<svg width="55" height="53" viewBox="0 0 55 53" fill="none" xmlns="http://www.w3.org/2000/svg">
<path d="M54.3756 24.3958L31.99 1.86266C31.9613 1.83366 31.9316 1.80551 31.9013 1.77823C29.4569 -0.416507 25.7632 -0.424348 23.3095 1.76008C23.279 1.78725 23.2493 1.81529 23.2204 1.84408L0.630769 24.3892C-0.209055 25.2276 -0.210452 26.5878 0.627761 27.4277C1.46608 28.2675 2.82636 28.2688 3.66608 27.4307L5.37108 25.729V44.279C5.37108 49.0176 9.22624 52.8728 13.9648 52.8728H21.6992C22.8858 52.8728 23.8476 51.9109 23.8476 50.7244V33.2146H31.3672V50.7244C31.3672 51.9109 32.329 52.8728 33.5156 52.8728H41.0351C45.7737 52.8728 49.6289 49.0176 49.6289 44.279C49.6289 43.0925 48.667 42.1306 47.4805 42.1306C46.2939 42.1306 45.332 43.0925 45.332 44.279C45.332 46.6483 43.4044 48.5759 41.0351 48.5759H35.664V31.0662C35.664 29.8796 34.7022 28.9177 33.5156 28.9177H21.6992C20.5126 28.9177 19.5508 29.8796 19.5508 31.0662V48.5759H13.9648C11.5955 48.5759 9.66796 46.6483 9.66796 44.279V21.5056C9.66796 21.4841 9.66763 21.4628 9.66699 21.4415L26.2051 4.936C27.01 4.25248 28.1906 4.25506 28.9924 4.94191L45.332 21.3893V33.5369C45.332 34.7234 46.2939 35.6853 47.4805 35.6853C48.667 35.6853 49.6289 34.7234 49.6289 33.5369V25.7144L51.3274 27.4242C51.7474 27.8469 52.2993 28.0585 52.8515 28.0585C53.3991 28.0585 53.9467 27.8504 54.3658 27.4341C55.2075 26.5978 55.212 25.2376 54.3756 24.3958Z" fill="#F60846"/>
</svg>
