<svg width="35" height="35" viewBox="0 0 35 35" fill="none" xmlns="http://www.w3.org/2000/svg">
<path d="M29.5312 0H5.46875C2.45328 0 0 2.45328 0 5.46875V8.20312C0 8.95822 0.61209 9.57031 1.36719 9.57031C2.12229 9.57031 2.73438 8.95822 2.73438 8.20312V5.46875C2.73438 3.96102 3.96102 2.73438 5.46875 2.73438H29.5312C31.039 2.73438 32.2656 3.96102 32.2656 5.46875V29.5312C32.2656 31.039 31.039 32.2656 29.5312 32.2656H5.46875C3.96102 32.2656 2.73438 31.039 2.73438 29.5312V26.7969C2.73438 26.0418 2.12229 25.4297 1.36719 25.4297C0.61209 25.4297 0 26.0418 0 26.7969V29.5312C0 32.5467 2.45328 35 5.46875 35H29.5312C32.5467 35 35 32.5467 35 29.5312V5.46875C35 2.45328 32.5467 0 29.5312 0Z" fill="#F60846"/>
<path d="M22.9632 14.5993L17.851 9.49179C17.3169 8.95811 16.4512 8.95852 15.9175 9.49268C15.3839 10.0268 15.3843 10.8925 15.9184 11.4262L21.0302 16.5332C21.5633 17.0663 21.5633 17.9336 21.0302 18.4667C21.0282 18.4687 21.0262 18.4707 21.0243 18.4727L15.9121 23.6486C15.3815 24.1859 15.3868 25.0515 15.924 25.5821C16.1904 25.8453 16.5376 25.9766 16.8847 25.9766C17.2374 25.9766 17.59 25.8409 17.8574 25.5701L22.967 20.3969C24.563 18.7974 24.5618 16.1979 22.9632 14.5993Z" fill="#F60846"/>
<path d="M15.9277 16.1328H1.36719C0.61209 16.1328 0 16.7449 0 17.5C0 18.2551 0.61209 18.8672 1.36719 18.8672H15.9277C16.6828 18.8672 17.2949 18.2551 17.2949 17.5C17.2949 16.7449 16.6828 16.1328 15.9277 16.1328Z" fill="#F60846"/>
</svg>
