<svg width="233" height="40" viewBox="0 0 233 40" fill="none" xmlns="http://www.w3.org/2000/svg">
<path d="M218.007 0.882324H230.945V4.41182H222.123V32.5883C222.123 33.6863 222.408 34.6078 222.976 35.353C223.545 36.0981 224.348 36.4707 225.387 36.4707C226.426 36.4707 227.22 36.1079 227.769 35.3824C228.318 34.6569 228.593 33.7256 228.593 32.5883V25.5883H232.709V32.3529C232.709 34.8235 232.053 36.7157 230.739 38.0295C229.426 39.3432 227.652 40.0001 225.417 40.0001C223.182 40.0001 221.388 39.3432 220.036 38.0295C218.683 36.7157 218.007 34.8235 218.007 32.3529V0.882324Z" fill="#373435"/>
<path d="M19.407 0.882267V4.41177H11.7618V39.1176H7.6452V4.41177H0V0.882267H19.407ZM53.3402 39.1176H49.2236V28.2941C43.8914 27.7059 41.2254 25 41.2254 20.1765V0.882267H45.3421V20.1765C45.3421 23.3136 47.3024 24.8824 51.223 24.8824C55.1437 24.8824 57.104 23.3136 57.104 20.1765V0.882267H61.2207V20.1765C61.2207 25 58.5938 27.7059 53.3402 28.2941V39.1176ZM90.6842 39.1176H86.5676V0.882267H95.4478C98.5059 0.882267 100.829 1.60776 102.417 3.05875C104.005 4.50974 104.799 6.52933 104.799 9.11765V19.1176C104.799 21.7451 104.014 23.7745 102.446 25.2058C100.878 26.6372 98.5451 27.353 95.4478 27.353H90.6842V39.1176ZM100.682 19.1176V9.11765C100.682 7.62739 100.231 6.47053 99.3292 5.64707C98.4275 4.82349 97.1337 4.41177 95.4478 4.41177H90.6842V23.8235H95.4478C98.9372 23.8235 100.682 22.2549 100.682 19.1176ZM144.848 31.7647V28.5293H148.964V31.7647C148.964 34.3921 148.161 36.4215 146.553 37.8529C144.946 39.2843 142.535 40 139.32 40C136.105 40 133.674 39.2843 132.027 37.8529C130.381 36.4215 129.557 34.3921 129.557 31.7647V8.23528C129.557 5.60779 130.361 3.57838 131.969 2.14703C133.576 0.715677 135.987 0 139.202 0C142.417 0 144.848 0.715677 146.494 2.14703C148.141 3.57838 148.964 5.60779 148.964 8.23528V21.1764H133.674V31.7647C133.674 34.9019 135.536 36.4706 139.261 36.4706C142.985 36.4706 144.848 34.9019 144.848 31.7647ZM133.674 8.23528V17.6471H144.848V8.23528C144.848 5.09799 142.985 3.52939 139.261 3.52939C135.536 3.52939 133.674 5.09799 133.674 8.23528Z" fill="#373435"/>
<path fill-rule="evenodd" clip-rule="evenodd" d="M164.727 1.00072L164.728 1.00061C165.849 -0.121296 167.685 -0.12108 168.806 1.00061L179.996 12.1931C181.118 13.3147 181.117 15.1515 179.996 16.2729L179.996 16.273C178.875 17.3943 177.039 17.3948 175.917 16.2729L164.727 5.08027C163.606 3.95848 163.606 2.12251 164.727 1.00072ZM202.876 1.00072L202.876 1.00061C201.755 -0.121296 199.919 -0.121296 198.798 1.00061L164.728 35.0788C163.606 36.2007 163.606 38.0366 164.728 39.1584L164.728 39.1585C165.849 40.2804 167.685 40.2804 168.806 39.1585L202.876 5.08027C203.998 3.95837 203.998 2.12251 202.876 1.00072ZM187.182 23.8602L187.182 23.8601C188.301 22.7415 190.131 22.7416 191.249 23.8601L202.455 35.0687C203.574 36.1874 203.573 38.0182 202.455 39.1368L202.455 39.1369C201.337 40.2555 199.506 40.2556 198.388 39.1369L187.182 27.9283C186.064 26.8096 186.064 24.9789 187.182 23.8602Z" fill="#F60846"/>
</svg>
