<svg width="41" height="40" viewBox="0 0 41 40" fill="none" xmlns="http://www.w3.org/2000/svg">
<path fill-rule="evenodd" clip-rule="evenodd" d="M1.72784 1.00072L1.72794 1.00061C2.84958 -0.121296 4.68501 -0.12108 5.80653 1.00061L16.9966 12.1931C18.118 13.3147 18.1174 15.1515 16.9963 16.2729L16.9962 16.273C15.8751 17.3943 14.0393 17.3948 12.9178 16.2729L1.72784 5.08027C0.606421 3.95848 0.606313 2.12251 1.72784 1.00072ZM39.8768 1.00072L39.8767 1.00061C38.7551 -0.121296 36.9198 -0.121296 35.7981 1.00061L1.72794 35.0788C0.60631 36.2007 0.60631 38.0366 1.72794 39.1584L1.72807 39.1585C2.84971 40.2804 4.68501 40.2804 5.80664 39.1585L39.8768 5.08027C40.9983 3.95837 40.9983 2.12251 39.8768 1.00072ZM24.1824 23.8602L24.1825 23.8601C25.301 22.7415 27.1312 22.7416 28.2497 23.8601L39.4556 35.0687C40.574 36.1874 40.5738 38.0182 39.4556 39.1368L39.4554 39.1369C38.337 40.2555 36.5067 40.2556 35.3883 39.1369L24.1824 27.9283C23.0641 26.8096 23.0641 24.9789 24.1824 23.8602Z" fill="#F60846"/>
</svg>
