<svg width="505" height="508" viewBox="0 0 505 508" fill="none" xmlns="http://www.w3.org/2000/svg">
<rect width="504.031" height="508" rx="252.016" fill="white"/>
<path d="M180.209 177.496V191.503H149.867V329.242H133.529V191.503H103.188V177.496H180.209Z" fill="#373435"/>
<path fill-rule="evenodd" clip-rule="evenodd" d="M252.918 177.965L252.919 177.964C257.37 173.512 264.655 173.513 269.106 177.964L313.516 222.385C317.967 226.836 317.965 234.126 313.515 238.576L313.515 238.577C309.066 243.027 301.78 243.029 297.328 238.576L252.918 194.156C248.468 189.703 248.467 182.417 252.918 177.965ZM404.322 177.965L404.322 177.964C399.87 173.512 392.586 173.512 388.135 177.964L252.919 313.212C248.467 317.665 248.467 324.951 252.919 329.403L252.919 329.404C257.371 333.856 264.655 333.856 269.106 329.404L404.322 194.156C408.773 189.703 408.773 182.417 404.322 177.965ZM342.035 268.689L342.036 268.688C346.475 264.248 353.738 264.249 358.177 268.688L402.65 313.172C407.089 317.612 407.088 324.878 402.65 329.317L402.65 329.318C398.211 333.757 390.947 333.758 386.508 329.318L342.035 284.834C337.597 280.394 337.597 273.128 342.035 268.689Z" fill="#F60846"/>
</svg>
