<svg width="471" height="442" viewBox="0 0 471 442" fill="none" xmlns="http://www.w3.org/2000/svg">
<path d="M67.9739 123.707L69.9581 127.712L74.3918 128.361L71.1828 131.484L71.9422 135.894L67.9739 133.811L64.0179 135.894L64.7773 131.484L61.5684 128.361L66.002 127.712L67.9739 123.707Z" fill="#EBEBEB"/>
<path d="M464.372 312.604L466.357 316.621L470.79 317.27L467.581 320.381L468.341 324.802L464.372 322.72L460.416 324.802L461.176 320.381L457.967 317.27L462.4 316.621L464.372 312.604Z" fill="#F5F5F5"/>
<path d="M385.865 429.068L387.849 433.073L392.27 433.722L389.061 436.846L389.821 441.255L385.865 439.173L381.909 441.255L382.656 436.846L379.459 433.722L383.88 433.073L385.865 429.068Z" fill="#F5F5F5"/>
<path d="M206.238 52.5473L206.973 54.0415L208.626 54.2864C208.718 54.2985 208.805 54.3366 208.877 54.3963C208.948 54.456 209.001 54.5347 209.029 54.6234C209.058 54.712 209.06 54.8069 209.036 54.8969C209.013 54.9869 208.964 55.0683 208.896 55.1315L207.671 56.2951L207.953 57.9363C207.967 58.0276 207.956 58.1212 207.921 58.2066C207.885 58.2921 207.827 58.3662 207.752 58.4206C207.678 58.4751 207.589 58.5079 207.497 58.5153C207.405 58.5228 207.312 58.5047 207.23 58.4629L205.76 57.6791L204.29 58.4629C204.208 58.5047 204.115 58.5228 204.023 58.5153C203.931 58.5079 203.843 58.4751 203.768 58.4206C203.693 58.3662 203.635 58.2921 203.6 58.2066C203.564 58.1212 203.553 58.0276 203.568 57.9363L203.837 56.2951L202.613 55.1315C202.544 55.0675 202.495 54.9851 202.472 54.8942C202.449 54.8032 202.453 54.7076 202.482 54.6186C202.512 54.5296 202.566 54.451 202.639 54.3921C202.713 54.3332 202.801 54.2965 202.894 54.2864L204.535 54.0415L205.27 52.5473C205.3 52.4416 205.363 52.3484 205.45 52.282C205.538 52.2156 205.644 52.1797 205.754 52.1797C205.864 52.1797 205.971 52.2156 206.058 52.282C206.145 52.3484 206.208 52.4416 206.238 52.5473Z" fill="#EBEBEB"/>
<path d="M3.95416 409.998L4.68903 411.48L6.33023 411.725C6.4234 411.737 6.5111 411.776 6.58333 411.836C6.65556 411.897 6.70942 411.976 6.73878 412.065C6.76814 412.155 6.77181 412.25 6.74938 412.342C6.72696 412.433 6.67933 412.516 6.61193 412.582L5.38715 413.733L5.66885 415.374C5.68331 415.466 5.67228 415.559 5.63695 415.645C5.60162 415.73 5.54338 415.804 5.46864 415.859C5.3939 415.913 5.30557 415.946 5.21339 415.953C5.12121 415.961 5.02876 415.943 4.94623 415.901L3.4765 415.129L2.00677 415.901C1.92424 415.943 1.8318 415.961 1.73962 415.953C1.64744 415.946 1.55911 415.913 1.48437 415.859C1.40963 415.804 1.35138 415.73 1.31605 415.645C1.28072 415.559 1.26968 415.466 1.28415 415.374L1.56585 413.733L0.341078 412.582C0.273896 412.517 0.226096 412.435 0.203049 412.344C0.180002 412.254 0.18262 412.159 0.210604 412.07C0.238588 411.981 0.29083 411.901 0.361472 411.84C0.432114 411.779 0.518359 411.739 0.610526 411.725L2.25172 411.48L2.99884 409.998C3.03157 409.897 3.09542 409.809 3.18123 409.746C3.26705 409.684 3.37041 409.65 3.4765 409.65C3.58259 409.65 3.68596 409.684 3.77177 409.746C3.85758 409.809 3.92143 409.897 3.95416 409.998Z" fill="#F5F5F5"/>
<path d="M36.9863 36.8089L37.7211 38.3031L39.3746 38.5358C39.4667 38.5505 39.553 38.5907 39.6236 38.6517C39.6943 38.7127 39.7465 38.7921 39.7745 38.8812C39.8025 38.9702 39.8051 39.0653 39.7821 39.1557C39.759 39.2462 39.7112 39.3284 39.644 39.3932L38.4193 40.618L38.701 42.2469C38.7205 42.3394 38.7129 42.4355 38.6791 42.5238C38.6452 42.612 38.5866 42.6886 38.5102 42.7443C38.4338 42.7999 38.343 42.8323 38.2486 42.8375C38.1542 42.8427 38.0604 42.8205 37.9783 42.7736L36.5086 42.002L35.0389 42.7736C34.9568 42.8205 34.863 42.8427 34.7686 42.8375C34.6742 42.8323 34.5834 42.7999 34.507 42.7443C34.4306 42.6886 34.372 42.612 34.3381 42.5238C34.3043 42.4355 34.2967 42.3394 34.3163 42.2469L34.5857 40.618L33.3609 39.3932C33.2935 39.3276 33.2459 39.2444 33.2235 39.1531C33.201 39.0617 33.2047 38.9659 33.2341 38.8766C33.2634 38.7872 33.3173 38.7079 33.3895 38.6477C33.4618 38.5874 33.5495 38.5487 33.6426 38.5358L35.2838 38.3031L36.0677 36.8089C36.107 36.7199 36.1714 36.6443 36.2529 36.5911C36.3345 36.538 36.4297 36.5098 36.527 36.5098C36.6243 36.5098 36.7195 36.538 36.801 36.5911C36.8826 36.6443 36.9469 36.7199 36.9863 36.8089Z" fill="#EBEBEB"/>
<path d="M35.002 332.003C35.0044 332.326 34.9109 332.642 34.7334 332.912C34.5559 333.181 34.3024 333.392 34.0049 333.517C33.7075 333.642 33.3796 333.676 33.0628 333.615C32.746 333.553 32.4546 333.399 32.2256 333.172C31.9966 332.945 31.8402 332.654 31.7764 332.338C31.7125 332.022 31.744 331.694 31.867 331.395C31.9899 331.097 32.1987 330.842 32.4668 330.662C32.7349 330.483 33.0504 330.387 33.373 330.387C33.803 330.387 34.2154 330.557 34.5206 330.86C34.8257 331.162 34.9988 331.574 35.002 332.003Z" fill="#EBEBEB"/>
<path d="M267.147 128.166C267.149 128.488 267.055 128.804 266.878 129.074C266.7 129.343 266.447 129.554 266.149 129.679C265.852 129.804 265.524 129.838 265.207 129.777C264.891 129.715 264.599 129.561 264.37 129.334C264.141 129.107 263.985 128.816 263.921 128.5C263.857 128.184 263.889 127.856 264.011 127.557C264.134 127.259 264.343 127.004 264.611 126.824C264.879 126.645 265.195 126.549 265.518 126.549C265.731 126.547 265.942 126.588 266.14 126.668C266.338 126.749 266.517 126.868 266.669 127.018C266.82 127.168 266.94 127.347 267.022 127.544C267.104 127.741 267.147 127.952 267.147 128.166Z" fill="#EBEBEB"/>
<path d="M182.686 38.1563C182.686 38.4785 182.59 38.7934 182.411 39.0613C182.232 39.3292 181.978 39.538 181.68 39.6613C181.382 39.7845 181.055 39.8168 180.739 39.7539C180.423 39.6911 180.133 39.536 179.905 39.3081C179.677 39.0803 179.522 38.7901 179.459 38.4741C179.396 38.1581 179.428 37.8306 179.552 37.5329C179.675 37.2353 179.884 36.9809 180.152 36.8019C180.42 36.6229 180.735 36.5273 181.057 36.5273C181.488 36.5305 181.9 36.7032 182.205 37.008C182.51 37.3128 182.682 37.7253 182.686 38.1563Z" fill="#F5F5F5"/>
<path d="M185.266 435.16C190.105 434.018 193.102 429.169 191.96 424.331C190.818 419.492 185.969 416.495 181.131 417.637C176.292 418.779 173.295 423.628 174.437 428.466C175.579 433.305 180.427 436.302 185.266 435.16Z" fill="#F0F0F0"/>
<path d="M180.101 421.131C178.257 421.127 176.46 421.711 174.97 422.797C174.209 424.543 174.022 426.485 174.436 428.345C174.85 430.204 175.845 431.883 177.275 433.141C178.706 434.399 180.499 435.169 182.396 435.342C184.293 435.514 186.196 435.08 187.83 434.101C188.553 432.763 188.917 431.26 188.885 429.74C188.853 428.219 188.426 426.733 187.647 425.427C186.868 424.12 185.763 423.039 184.44 422.288C183.118 421.537 181.622 421.143 180.101 421.143V421.131Z" fill="#E6E6E6"/>
<path d="M110.387 269.932H35.8594V236.288L110.387 147.688H146.052V238.198H164.534V269.932H146.052V297.465H110.387V269.932ZM110.387 238.198V191.853L70.9982 238.198H110.387Z" fill="#F60846"/>
<path d="M177.284 223.233C177.284 195.234 182.322 175.638 192.398 164.443C202.473 153.249 217.828 147.656 238.461 147.664C248.366 147.664 256.502 148.889 262.871 151.338C268.657 153.423 273.955 156.67 278.438 160.879C282.217 164.488 285.419 168.656 287.93 173.237C290.415 178.021 292.288 183.099 293.503 188.351C296.272 199.571 297.654 211.088 297.618 222.645C297.618 249.361 293.099 268.913 284.06 281.299C275.021 293.686 259.454 299.883 237.359 299.891C224.964 299.891 214.95 297.915 207.315 293.963C199.62 289.947 193.137 283.947 188.54 276.584C184.988 271.162 182.224 263.744 180.248 254.33C178.196 244.093 177.203 233.673 177.284 223.233ZM217.873 223.331C217.873 242.111 219.526 254.918 222.833 261.752C226.14 268.586 230.945 272.02 237.249 272.052C239.249 272.075 241.234 271.7 243.088 270.949C244.943 270.199 246.63 269.087 248.051 267.68C251.105 264.765 253.351 260.16 254.788 253.864C256.225 247.569 256.943 237.771 256.943 224.47C256.943 204.922 255.286 191.78 251.971 185.044C248.656 178.308 243.683 174.944 237.053 174.952C230.292 174.952 225.393 178.386 222.356 185.252C219.318 192.119 217.824 204.812 217.873 223.331Z" fill="#F60846"/>
<path d="M384.811 269.934H310.283V236.29L384.811 147.689H420.476V238.2H439.019V269.934H420.476V297.467H384.811V269.934ZM384.811 238.2V191.855L345.434 238.2H384.811Z" fill="#F60846"/>
<g opacity="0.3">
<path opacity="0.3" d="M175.692 95.9896C175.692 96.4431 175.557 96.8864 175.305 97.2633C175.053 97.6402 174.694 97.9337 174.275 98.1067C173.856 98.2797 173.395 98.3243 172.95 98.235C172.506 98.1456 172.098 97.9263 171.778 97.6047C171.458 97.2832 171.241 96.8739 171.154 96.4289C171.067 95.9838 171.114 95.5229 171.289 95.1046C171.464 94.6863 171.76 94.3295 172.138 94.0793C172.516 93.8291 172.96 93.6968 173.414 93.6993C173.714 93.6992 174.011 93.7586 174.289 93.8738C174.566 93.9891 174.817 94.158 175.029 94.3708C175.241 94.5836 175.408 94.8362 175.522 95.114C175.636 95.3918 175.694 95.6894 175.692 95.9896Z" fill="#F60846"/>
<path opacity="0.3" d="M18.8843 183.966C19.7772 183.966 20.501 183.242 20.501 182.349C20.501 181.456 19.7772 180.732 18.8843 180.732C17.9914 180.732 17.2676 181.456 17.2676 182.349C17.2676 183.242 17.9914 183.966 18.8843 183.966Z" fill="#F60846"/>
<path opacity="0.3" d="M285.983 420.065C287.261 420.065 288.298 419.029 288.298 417.75C288.298 416.472 287.261 415.436 285.983 415.436C284.704 415.436 283.668 416.472 283.668 417.75C283.668 419.029 284.704 420.065 285.983 420.065Z" fill="#F60846"/>
<path opacity="0.3" d="M341.65 325.88C342.543 325.88 343.267 325.156 343.267 324.263C343.267 323.37 342.543 322.646 341.65 322.646C340.757 322.646 340.033 323.37 340.033 324.263C340.033 325.156 340.757 325.88 341.65 325.88Z" fill="#F60846"/>
<path opacity="0.3" d="M449.024 34.7515C449.024 35.0712 448.93 35.3838 448.752 35.6497C448.574 35.9155 448.322 36.1227 448.026 36.2451C447.731 36.3675 447.406 36.3995 447.092 36.3371C446.779 36.2747 446.491 36.1207 446.265 35.8946C446.038 35.6685 445.884 35.3805 445.822 35.0669C445.76 34.7533 445.792 34.4282 445.914 34.1328C446.036 33.8374 446.244 33.5849 446.51 33.4072C446.775 33.2296 447.088 33.1348 447.408 33.1348C447.837 33.1348 448.248 33.3051 448.551 33.6083C448.854 33.9115 449.024 34.3227 449.024 34.7515Z" fill="#F60846"/>
<path opacity="0.3" d="M141.093 2.14795C141.093 2.46771 140.998 2.78028 140.82 3.04614C140.643 3.31201 140.39 3.51923 140.095 3.64159C139.799 3.76396 139.474 3.79598 139.161 3.7336C138.847 3.67121 138.559 3.51723 138.333 3.29113C138.107 3.06503 137.953 2.77697 137.89 2.46336C137.828 2.14975 137.86 1.82468 137.982 1.52927C138.105 1.23385 138.312 0.981357 138.578 0.803711C138.844 0.626065 139.156 0.53125 139.476 0.53125C139.904 0.534455 140.313 0.705815 140.616 1.00831C140.918 1.31081 141.09 1.72017 141.093 2.14795Z" fill="#F60846"/>
<path opacity="0.3" d="M269.632 86.9756C270.525 86.9756 271.249 86.2518 271.249 85.3589C271.249 84.466 270.525 83.7422 269.632 83.7422C268.739 83.7422 268.016 84.466 268.016 85.3589C268.016 86.2518 268.739 86.9756 269.632 86.9756Z" fill="#F60846"/>
</g>
<path d="M102.487 86.988C117.308 86.988 129.322 74.9737 129.322 60.1532C129.322 45.3327 117.308 33.3184 102.487 33.3184C87.6667 33.3184 75.6523 45.3327 75.6523 60.1532C75.6523 74.9737 87.6667 86.988 102.487 86.988Z" fill="#F60846"/>
<path opacity="0.7" d="M102.487 86.988C117.308 86.988 129.322 74.9737 129.322 60.1532C129.322 45.3327 117.308 33.3184 102.487 33.3184C87.6667 33.3184 75.6523 45.3327 75.6523 60.1532C75.6523 74.9737 87.6667 86.988 102.487 86.988Z" fill="white"/>
<path opacity="0.2" d="M93.2396 39.9083C89.585 39.8971 85.967 40.6349 82.6086 42.0762C78.4811 46.6126 76.0312 52.4255 75.6666 58.5478C75.3021 64.6702 77.0447 70.7328 80.6047 75.727C84.1646 80.7212 89.3272 84.346 95.2336 85.9983C101.14 87.6505 107.434 87.2307 113.069 84.8086C116.562 80.9587 118.863 76.1773 119.691 71.045C120.519 65.9127 119.84 60.6504 117.735 55.897C115.63 51.1435 112.19 47.1035 107.833 44.2674C103.476 41.4314 98.3893 39.9213 93.1906 39.9206L93.2396 39.9083Z" fill="#F60846"/>
<path opacity="0.2" d="M90.571 46.9984C90.571 47.4829 90.4273 47.9564 90.1581 48.3593C89.889 48.7621 89.5064 49.0761 89.0588 49.2615C88.6112 49.4469 88.1187 49.4954 87.6435 49.4009C87.1684 49.3063 86.7319 49.073 86.3893 48.7305C86.0468 48.3879 85.8135 47.9514 85.7189 47.4763C85.6244 47.0011 85.6729 46.5086 85.8583 46.061C86.0437 45.6134 86.3577 45.2308 86.7605 44.9616C87.1633 44.6925 87.637 44.5488 88.1214 44.5488C88.7711 44.5488 89.3941 44.8069 89.8535 45.2663C90.3129 45.7257 90.571 46.3487 90.571 46.9984Z" fill="#F60846"/>
<path opacity="0.2" d="M119.426 44.5492C119.426 45.0336 119.283 45.5072 119.014 45.9101C118.744 46.3129 118.362 46.6268 117.914 46.8122C117.467 46.9976 116.974 47.0462 116.499 46.9516C116.024 46.8571 115.587 46.6238 115.245 46.2812C114.902 45.9387 114.669 45.5022 114.574 45.027C114.48 44.5519 114.528 44.0593 114.714 43.6117C114.899 43.1642 115.213 42.7816 115.616 42.5124C116.019 42.2433 116.492 42.0996 116.977 42.0996C117.627 42.0996 118.25 42.3577 118.709 42.8171C119.168 43.2764 119.426 43.8995 119.426 44.5492Z" fill="#F60846"/>
<path opacity="0.2" d="M114.527 62.0387C114.527 62.8333 114.291 63.61 113.85 64.2706C113.408 64.9312 112.781 65.4462 112.047 65.7502C111.313 66.0543 110.505 66.1338 109.726 65.9788C108.946 65.8238 108.231 65.4412 107.669 64.8794C107.107 64.3175 106.724 63.6017 106.569 62.8225C106.414 62.0432 106.494 61.2355 106.798 60.5014C107.102 59.7673 107.617 59.1399 108.278 58.6985C108.938 58.2571 109.715 58.0215 110.509 58.0215C111.575 58.0215 112.597 58.4447 113.35 59.1981C114.103 59.9515 114.527 60.9733 114.527 62.0387Z" fill="#F60846"/>
<path opacity="0.2" d="M101.764 73.4915C101.764 74.5525 101.45 75.5896 100.86 76.4718C100.271 77.354 99.4328 78.0416 98.4526 78.4476C97.4724 78.8536 96.3937 78.9599 95.3531 78.7529C94.3125 78.5459 93.3566 78.035 92.6064 77.2847C91.8562 76.5345 91.3452 75.5786 91.1382 74.538C90.9312 73.4974 91.0375 72.4188 91.4435 71.4386C91.8495 70.4583 92.5371 69.6205 93.4193 69.031C94.3015 68.4416 95.3387 68.127 96.3997 68.127C97.8224 68.127 99.1869 68.6921 100.193 69.6982C101.199 70.7042 101.764 72.0687 101.764 73.4915Z" fill="#F60846"/>
<path d="M420.525 383.845C423.513 371.185 415.672 358.5 403.013 355.512C390.353 352.524 377.668 360.365 374.68 373.025C371.692 385.684 379.532 398.37 392.192 401.357C404.852 404.345 417.537 396.505 420.525 383.845Z" fill="#F60846"/>
<path opacity="0.3" d="M420.525 383.845C423.513 371.185 415.672 358.5 403.013 355.512C390.353 352.524 377.668 360.365 374.68 373.025C371.692 385.684 379.532 398.37 392.192 401.357C404.852 404.345 417.537 396.505 420.525 383.845Z" fill="white"/>
<path opacity="0.4" d="M412.479 360.199C407.258 358.624 401.651 358.909 396.618 361.008C391.584 363.107 387.435 366.889 384.88 371.707C382.325 376.525 381.522 382.081 382.609 387.425C383.695 392.77 386.604 397.571 390.837 401.009C393.033 401.676 395.315 402.014 397.61 402.013C402.472 402.012 407.215 400.506 411.188 397.702C415.16 394.898 418.167 390.933 419.796 386.352C421.425 381.771 421.596 376.797 420.286 372.115C418.976 367.432 416.249 363.27 412.479 360.199Z" fill="#F60846"/>
<path d="M375.123 385.503C349.978 397.334 368.729 406.459 404.162 393.721C436.974 381.926 449.479 367.058 420.084 371.675C421.664 377.86 380.573 393.868 375.123 385.503Z" fill="#F60846"/>
<path opacity="0.2" d="M412.197 147.688C379.263 169.942 336.629 199.336 324.858 269.932H322.348C333.799 200.12 374.878 170.027 407.825 147.688H412.197Z" fill="black"/>
<path d="M241.83 368.686C221.009 368.686 200.421 359.292 190.39 343.958C184.205 334.478 177.015 314.624 198.424 288.132L200.323 289.676C185.184 308.415 182.392 327.215 192.447 342.623C204.695 361.362 233.587 370.792 258.254 364.081C283.522 357.21 298.856 335.237 300.338 303.797C305.396 196.25 362.532 163.119 404.248 138.93C430.176 123.902 448.903 113.051 444.788 90.1352C444.212 86.963 442.951 84.7706 440.905 83.4234C435.577 79.9083 425.167 82.3456 413.115 85.1503C389.465 90.6618 357.082 98.2064 337.791 65.3947L339.91 64.1699C358.282 95.4384 388.375 88.4205 412.564 82.7865C425.167 79.8593 436.043 77.324 442.252 81.4025C444.886 83.1295 446.502 85.8607 447.152 89.731C451.573 114.324 431.229 126.131 405.448 141.074C364.21 164.981 307.748 197.719 302.751 303.969C301.207 336.548 285.212 359.341 258.855 366.506C253.302 367.984 247.577 368.718 241.83 368.686Z" fill="#F60846"/>
<path opacity="0.2" d="M241.83 368.686C221.009 368.686 200.421 359.292 190.39 343.958C184.205 334.478 177.015 314.624 198.424 288.132L200.323 289.676C185.184 308.415 182.392 327.215 192.447 342.623C204.695 361.362 233.587 370.792 258.254 364.081C283.522 357.21 298.856 335.237 300.338 303.797C305.396 196.25 362.532 163.119 404.248 138.93C430.176 123.902 448.903 113.051 444.788 90.1352C444.212 86.963 442.951 84.7706 440.905 83.4234C435.577 79.9083 425.167 82.3456 413.115 85.1503C389.465 90.6618 357.082 98.2064 337.791 65.3947L339.91 64.1699C358.282 95.4384 388.375 88.4205 412.564 82.7865C425.167 79.8593 436.043 77.324 442.252 81.4025C444.886 83.1295 446.502 85.8607 447.152 89.731C451.573 114.324 431.229 126.131 405.448 141.074C364.21 164.981 307.748 197.719 302.751 303.969C301.207 336.548 285.212 359.341 258.855 366.506C253.302 367.984 247.577 368.718 241.83 368.686Z" fill="white"/>
<path d="M312.572 36.4414C318.216 36.474 323.822 37.3534 329.205 39.0502C329.205 39.0502 342.677 62.0392 344.269 67.3057C343.706 72.4988 334.949 81.011 334.949 81.011L312.572 36.4414Z" fill="#F60846"/>
<path opacity="0.3" d="M312.572 36.4414C318.216 36.474 323.822 37.3534 329.205 39.0502C329.205 39.0502 342.677 62.0392 344.269 67.3057C343.706 72.4988 334.949 81.011 334.949 81.011L312.572 36.4414Z" fill="white"/>
<path d="M352.476 148.054C347.288 141.711 342.556 135.006 338.317 127.993C337.289 126.221 336.313 124.416 335.39 122.579C334.864 121.538 334.361 120.497 333.872 119.444C333.229 118.419 332.73 117.31 332.39 116.149C330.92 100.631 336.235 89.204 331.165 76.748L310.98 84.6356C310.98 84.6356 312.695 106.829 316.614 120.154C319.064 128.397 324.551 135.525 329.854 142.127C331.508 144.184 333.1 146.303 334.753 148.373C336.407 150.443 338.073 152.121 339.652 154.068C342.041 157.02 342.825 159.849 341.024 163.327L340.718 163.879C340.204 164.785 342.604 165.814 344.123 163.879C346.572 160.719 346.23 160.915 348.361 158.22C349.659 156.591 351.141 154.815 352.427 153.321C353.047 152.586 353.392 151.658 353.401 150.697C353.409 149.735 353.082 148.801 352.476 148.054Z" fill="#F60846"/>
<path opacity="0.7" d="M352.476 148.054C347.288 141.711 342.556 135.006 338.317 127.993C337.289 126.221 336.313 124.416 335.39 122.579C334.864 121.538 334.361 120.497 333.872 119.444C333.229 118.419 332.73 117.31 332.39 116.149C330.92 100.631 336.235 89.204 331.165 76.748L310.98 84.6356C310.98 84.6356 312.695 106.829 316.614 120.154C319.064 128.397 324.551 135.525 329.854 142.127C331.508 144.184 333.1 146.303 334.753 148.373C336.407 150.443 338.073 152.121 339.652 154.068C342.041 157.02 342.825 159.849 341.024 163.327L340.718 163.879C340.204 164.785 342.604 165.814 344.123 163.879C346.572 160.719 346.23 160.915 348.361 158.22C349.659 156.591 351.141 154.815 352.427 153.321C353.047 152.586 353.392 151.658 353.401 150.697C353.409 149.735 353.082 148.801 352.476 148.054Z" fill="white"/>
<path opacity="0.3" d="M347.54 141.674C344.337 145.107 340.782 148.194 336.934 150.884C337.46 151.472 337.975 152.109 338.501 152.672C342.354 150.069 345.854 146.977 348.912 143.474L347.54 141.674Z" fill="#F60846"/>
<path opacity="0.3" d="M352.476 148.054L352.329 147.883C351.387 148.964 350.838 150.333 350.774 151.765C350.695 152.748 350.854 153.736 351.239 154.644L352.402 153.26C353.011 152.532 353.35 151.618 353.363 150.67C353.377 149.722 353.063 148.798 352.476 148.054Z" fill="#F60846"/>
<path d="M307.771 51.1392C305.583 54.4156 302.958 57.3783 299.97 59.9454C298.312 61.3739 296.496 62.6068 294.556 63.6197C293.537 64.1418 292.481 64.588 291.396 64.9547L290.563 65.2241L290.294 65.2976L289.718 65.4568C289.364 65.541 289.003 65.5983 288.64 65.6283C287.607 65.7073 286.568 65.6121 285.566 65.3466C284.303 64.9881 283.092 64.4651 281.965 63.7911C281.059 63.2611 280.18 62.6846 279.332 62.0642C277.801 60.9252 276.337 59.6984 274.947 58.3899C272.268 55.8515 269.81 53.0899 267.599 50.1349C267.173 49.5592 266.961 48.853 267.001 48.1381C267.04 47.4231 267.328 46.7443 267.814 46.2188C268.3 45.6933 268.955 45.354 269.665 45.2595C270.374 45.165 271.095 45.3212 271.702 45.7012H271.8C274.69 47.5384 277.605 49.4735 280.447 51.2005C281.892 52.0456 283.288 52.9029 284.672 53.5643C285.304 53.8951 285.954 54.1895 286.619 54.4461C287.034 54.6291 287.478 54.7369 287.93 54.7646C288.003 54.7646 287.93 54.6788 287.477 54.6911C287.334 54.6825 287.191 54.6825 287.048 54.6911L286.779 54.7523L287.183 54.5441C287.727 54.2513 288.255 53.9283 288.763 53.5765C289.859 52.8038 290.883 51.9349 291.825 50.98C293.965 48.7377 295.969 46.3696 297.826 43.8886C298.844 42.7498 300.251 42.0326 301.77 41.8774C303.289 41.7222 304.812 42.1404 306.039 43.0499C307.266 43.9594 308.109 45.2945 308.402 46.7933C308.695 48.2922 308.418 49.8465 307.624 51.1515L307.771 51.1392Z" fill="#F60846"/>
<path opacity="0.7" d="M307.771 51.1392C305.583 54.4156 302.958 57.3783 299.97 59.9454C298.312 61.3739 296.496 62.6068 294.556 63.6197C293.537 64.1418 292.481 64.588 291.396 64.9547L290.563 65.2241L290.294 65.2976L289.718 65.4568C289.364 65.541 289.003 65.5983 288.64 65.6283C287.607 65.7073 286.568 65.6121 285.566 65.3466C284.303 64.9881 283.092 64.4651 281.965 63.7911C281.059 63.2611 280.18 62.6846 279.332 62.0642C277.801 60.9252 276.337 59.6984 274.947 58.3899C272.268 55.8515 269.81 53.0899 267.599 50.1349C267.173 49.5592 266.961 48.853 267.001 48.1381C267.04 47.4231 267.328 46.7443 267.814 46.2188C268.3 45.6933 268.955 45.354 269.665 45.2595C270.374 45.165 271.095 45.3212 271.702 45.7012H271.8C274.69 47.5384 277.605 49.4735 280.447 51.2005C281.892 52.0456 283.288 52.9029 284.672 53.5643C285.304 53.8951 285.954 54.1895 286.619 54.4461C287.034 54.6291 287.478 54.7369 287.93 54.7646C288.003 54.7646 287.93 54.6788 287.477 54.6911C287.334 54.6825 287.191 54.6825 287.048 54.6911L286.779 54.7523L287.183 54.5441C287.727 54.2513 288.255 53.9283 288.763 53.5765C289.859 52.8038 290.883 51.9349 291.825 50.98C293.965 48.7377 295.969 46.3696 297.826 43.8886C298.844 42.7498 300.251 42.0326 301.77 41.8774C303.289 41.7222 304.812 42.1404 306.039 43.0499C307.266 43.9594 308.109 45.2945 308.402 46.7933C308.695 48.2922 308.418 49.8465 307.624 51.1515L307.771 51.1392Z" fill="white"/>
<path d="M263.007 43.0797L264.44 45.5292C264.44 45.5292 265.53 48.7381 267.722 49.326L273.675 47.4031L273.368 46.901C272.609 45.7497 272.695 43.5083 272.952 41.6467C273.209 39.785 272.254 39.7238 271.544 40.1892C271.04 40.7683 270.687 41.4623 270.515 42.2101C270.223 41.8056 269.899 41.4248 269.547 41.071L267.735 39.2584C267.354 38.8867 266.848 38.6725 266.316 38.6589C265.784 38.6453 265.267 38.8332 264.869 39.1849L263.399 40.4954C263.05 40.8179 262.821 41.2493 262.75 41.7189C262.679 42.1885 262.77 42.6683 263.007 43.0797Z" fill="#F60846"/>
<path opacity="0.7" d="M263.007 43.0797L264.44 45.5292C264.44 45.5292 265.53 48.7381 267.722 49.326L273.675 47.4031L273.368 46.901C272.609 45.7497 272.695 43.5083 272.952 41.6467C273.209 39.785 272.254 39.7238 271.544 40.1892C271.04 40.7683 270.687 41.4623 270.515 42.2101C270.223 41.8056 269.899 41.4248 269.547 41.071L267.735 39.2584C267.354 38.8867 266.848 38.6725 266.316 38.6589C265.784 38.6453 265.267 38.8332 264.869 39.1849L263.399 40.4954C263.05 40.8179 262.821 41.2493 262.75 41.7189C262.679 42.1885 262.77 42.6683 263.007 43.0797Z" fill="white"/>
<path d="M318.586 34.261C311.984 36.0111 305.66 38.6785 299.798 42.1853C298.884 42.7576 298.166 43.5958 297.742 44.5874C297.317 45.5791 297.206 46.6768 297.422 47.7336C299.786 59.2954 305.163 74.7766 310.968 84.636L338.048 73.4293C338.232 68.6527 331.655 53.1961 324.955 38.2538C323.755 35.5716 321.44 33.5752 318.586 34.261Z" fill="#F60846"/>
<path opacity="0.8" d="M318.586 34.261C311.984 36.0111 305.66 38.6785 299.798 42.1853C298.884 42.7576 298.166 43.5958 297.742 44.5874C297.317 45.5791 297.206 46.6768 297.422 47.7336C299.786 59.2954 305.163 74.7766 310.968 84.636L338.048 73.4293C338.232 68.6527 331.655 53.1961 324.955 38.2538C323.755 35.5716 321.44 33.5752 318.586 34.261Z" fill="white"/>
<path opacity="0.3" d="M329.156 47.7223L323.779 45.9219C325.004 49.0695 329.328 53.0501 332.353 55.3894C331.373 52.9398 330.283 50.3678 329.156 47.7223Z" fill="#F60846"/>
<path d="M316.811 22.1362C314.569 17.8739 309.732 15.7306 303.926 16.2083C299.027 16.6247 294.691 21.6218 295.206 24.3163C295.72 27.0108 299.835 28.1621 300.619 29.0929L297.227 31.5424C296.825 31.8325 296.486 32.2009 296.23 32.6255C295.974 33.05 295.807 33.5219 295.738 34.0128C295.669 34.5037 295.701 35.0033 295.83 35.4818C295.96 35.9602 296.185 36.4075 296.492 36.7967C297.925 38.6094 299.811 40.471 300.901 41.8428C310.283 41.5978 317.227 38.0215 319.738 34.5799C318.795 30.2197 318.991 26.3739 316.811 22.1362Z" fill="#F60846"/>
<path opacity="0.8" d="M316.811 22.1362C314.569 17.8739 309.732 15.7306 303.926 16.2083C299.027 16.6247 294.691 21.6218 295.206 24.3163C295.72 27.0108 299.835 28.1621 300.619 29.0929L297.227 31.5424C296.825 31.8325 296.486 32.2009 296.23 32.6255C295.974 33.05 295.807 33.5219 295.738 34.0128C295.669 34.5037 295.701 35.0033 295.83 35.4818C295.96 35.9602 296.185 36.4075 296.492 36.7967C297.925 38.6094 299.811 40.471 300.901 41.8428C310.283 41.5978 317.227 38.0215 319.738 34.5799C318.795 30.2197 318.991 26.3739 316.811 22.1362Z" fill="white"/>
<path d="M312.207 24.7826C312.873 26.4907 313.017 28.3579 312.622 30.1482C312.227 31.9384 311.31 33.5715 309.988 34.8408C308.665 36.1101 306.995 36.9587 305.19 37.2794C303.385 37.6 301.525 37.3784 299.846 36.6424C298.167 35.9064 296.744 34.6891 295.757 33.1444C294.769 31.5997 294.262 29.7969 294.299 27.9639C294.336 26.1309 294.915 24.3501 295.964 22.8464C297.013 21.3428 298.484 20.1838 300.191 19.5161C302.483 18.6232 305.036 18.6764 307.289 19.6638C309.541 20.6512 311.31 22.4922 312.207 24.7826Z" fill="#263238"/>
<path d="M391.73 135.158C391.595 131.129 391.411 131.484 391.301 128.091C391.227 126.009 391.215 123.694 391.203 121.698C391.199 120.75 390.868 119.832 390.265 119.1C389.662 118.369 388.826 117.867 387.896 117.681C386.279 117.35 384.65 117.044 382.997 116.701C380.878 116.248 378.784 115.758 376.714 115.158C375.097 114.692 373.505 114.178 371.925 113.602C370.345 113.027 368.569 112.378 366.928 111.618C364.993 110.798 363.082 109.916 361.196 108.997C359.077 107.993 356.983 106.94 354.888 105.874C346.829 92.5362 346.658 83.7423 338.011 73.4297L319.443 81.8316C319.443 81.8316 333.087 106.033 342.371 116.297C347.723 122.2 356.113 124.87 363.597 126.805C368.998 128.189 374.472 129.255 379.947 130.272C382.078 130.663 384.393 130.81 386.23 132.084C387.59 133.126 388.522 134.629 388.851 136.31C388.933 136.653 389.007 136.996 389.072 137.338C389.305 138.367 391.815 137.583 391.73 135.158Z" fill="#F60846"/>
<path opacity="0.8" d="M391.73 135.158C391.595 131.129 391.411 131.484 391.301 128.091C391.227 126.009 391.215 123.694 391.203 121.698C391.199 120.75 390.868 119.832 390.265 119.1C389.662 118.369 388.826 117.867 387.896 117.681C386.279 117.35 384.65 117.044 382.997 116.701C380.878 116.248 378.784 115.758 376.714 115.158C375.097 114.692 373.505 114.178 371.925 113.602C370.345 113.027 368.569 112.378 366.928 111.618C364.993 110.798 363.082 109.916 361.196 108.997C359.077 107.993 356.983 106.94 354.888 105.874C346.829 92.5362 346.658 83.7423 338.011 73.4297L319.443 81.8316C319.443 81.8316 333.087 106.033 342.371 116.297C347.723 122.2 356.113 124.87 363.597 126.805C368.998 128.189 374.472 129.255 379.947 130.272C382.078 130.663 384.393 130.81 386.23 132.084C387.59 133.126 388.522 134.629 388.851 136.31C388.933 136.653 389.007 136.996 389.072 137.338C389.305 138.367 391.815 137.583 391.73 135.158Z" fill="white"/>
<path opacity="0.3" d="M382.312 116.541C381.577 116.382 380.842 116.223 380.095 116.039C380.156 120.277 378.172 127.576 377.449 129.793L379.776 130.234C381.301 125.822 382.156 121.207 382.312 116.541Z" fill="#F60846"/>
<path opacity="0.3" d="M391.252 121.697C391.248 120.751 390.919 119.835 390.319 119.103C389.718 118.371 388.885 117.869 387.957 117.68L386.732 117.447C386.929 118.84 387.642 120.107 388.729 120.999C389.428 121.645 390.266 122.123 391.178 122.395C391.252 122.175 391.252 121.93 391.252 121.697Z" fill="#F60846"/>
<path d="M310.479 24.8556C310.968 26.7173 308.886 28.6646 307.233 27.0602C305.69 25.4056 304.001 23.893 302.187 22.5408C300.484 21.4752 302.75 19.6136 305.432 20.3362C306.577 20.6237 307.634 21.1854 308.514 21.9727C309.393 22.7601 310.067 23.7495 310.479 24.8556Z" fill="white"/>
<path d="M310.614 84.0362C309.756 84.3546 311.324 85.8243 311.324 85.8243C311.324 85.8243 328.471 79.9577 338.882 73.9195C338.907 73.554 338.844 73.1877 338.699 72.8511C338.555 72.5145 338.332 72.2174 338.049 71.9844C329.139 76.5167 319.979 80.5405 310.614 84.0362Z" fill="#F60846"/>
<path opacity="0.5" d="M310.614 84.0362C309.756 84.3546 311.324 85.8243 311.324 85.8243C311.324 85.8243 328.471 79.9577 338.882 73.9195C338.907 73.554 338.844 73.1877 338.699 72.8511C338.555 72.5145 338.332 72.2174 338.049 71.9844C329.139 76.5167 319.979 80.5405 310.614 84.0362Z" fill="white"/>
<path d="M323.228 33.4529C326.609 35.1676 329.781 36.968 333.027 38.9644C334.607 39.9687 336.174 40.9853 337.73 42.0876C339.285 43.1899 340.828 44.3167 342.384 45.5905L342.96 46.0681L343.682 46.7295C344.113 47.1148 344.522 47.5237 344.907 47.9543C345.299 48.383 345.63 48.7994 345.948 49.1791C346.266 49.5587 346.609 50.0119 346.891 50.4038C348.032 51.9784 349.087 53.6138 350.051 55.3029C351.949 58.5784 353.587 61.9979 354.95 65.5298C355.202 66.1971 355.215 66.9311 354.987 67.6069C354.759 68.2827 354.304 68.8587 353.699 69.2369C353.094 69.6151 352.377 69.7721 351.67 69.6813C350.962 69.5904 350.308 69.2574 349.818 68.7387L349.757 68.6652C347.307 66.0565 344.944 63.313 342.568 60.7532C340.192 58.1934 337.779 55.5969 335.782 54.4578C333.002 52.7309 329.903 51.004 326.829 49.3138L317.57 44.1697C316.134 43.4096 315.059 42.1103 314.581 40.5576C314.104 39.0049 314.262 37.326 315.022 35.8902C315.783 34.4545 317.082 33.3795 318.635 32.9017C320.187 32.424 321.866 32.5826 323.302 33.3427L323.228 33.4529Z" fill="#F60846"/>
<path opacity="0.8" d="M323.228 33.4529C326.609 35.1676 329.781 36.968 333.027 38.9644C334.607 39.9687 336.174 40.9853 337.73 42.0876C339.285 43.1899 340.828 44.3167 342.384 45.5905L342.96 46.0681L343.682 46.7295C344.113 47.1148 344.522 47.5237 344.907 47.9543C345.299 48.383 345.63 48.7994 345.948 49.1791C346.266 49.5587 346.609 50.0119 346.891 50.4038C348.032 51.9784 349.087 53.6138 350.051 55.3029C351.949 58.5784 353.587 61.9979 354.95 65.5298C355.202 66.1971 355.215 66.9311 354.987 67.6069C354.759 68.2827 354.304 68.8587 353.699 69.2369C353.094 69.6151 352.377 69.7721 351.67 69.6813C350.962 69.5904 350.308 69.2574 349.818 68.7387L349.757 68.6652C347.307 66.0565 344.944 63.313 342.568 60.7532C340.192 58.1934 337.779 55.5969 335.782 54.4578C333.002 52.7309 329.903 51.004 326.829 49.3138L317.57 44.1697C316.134 43.4096 315.059 42.1103 314.581 40.5576C314.104 39.0049 314.262 37.326 315.022 35.8902C315.783 34.4545 317.082 33.3795 318.635 32.9017C320.187 32.424 321.866 32.5826 323.302 33.3427L323.228 33.4529Z" fill="white"/>
<path d="M357.853 71.6425L356.812 69.0337C356.812 69.0337 356.236 65.7023 354.166 64.7715L348.042 65.7391L348.251 66.278C348.814 67.5027 348.385 69.7441 347.834 71.5322C347.283 73.3204 348.214 73.5531 348.998 73.1979C349.439 73.002 349.867 72.2059 350.333 71.3608C350.561 71.7865 350.819 72.1958 351.104 72.5856L352.611 74.6554C352.926 75.0844 353.391 75.3783 353.913 75.4783C354.436 75.5782 354.977 75.4768 355.428 75.1943L357.094 74.1288C357.483 73.862 357.771 73.4705 357.909 73.0187C358.047 72.5669 358.027 72.0816 357.853 71.6425Z" fill="#F60846"/>
<path opacity="0.8" d="M357.853 71.6425L356.812 69.0337C356.812 69.0337 356.236 65.7023 354.166 64.7715L348.042 65.7391L348.251 66.278C348.814 67.5027 348.385 69.7441 347.834 71.5322C347.283 73.3204 348.214 73.5531 348.998 73.1979C349.439 73.002 349.867 72.2059 350.333 71.3608C350.561 71.7865 350.819 72.1958 351.104 72.5856L352.611 74.6554C352.926 75.0844 353.391 75.3783 353.913 75.4783C354.436 75.5782 354.977 75.4768 355.428 75.1943L357.094 74.1288C357.483 73.862 357.771 73.4705 357.909 73.0187C358.047 72.5669 358.027 72.0816 357.853 71.6425Z" fill="white"/>
<path opacity="0.3" d="M318.06 47.5391L316.566 47.6615L307.393 69.8055C307.894 69.8416 308.398 69.8002 308.887 69.683C308.887 69.683 320.841 65.2248 324.454 63.5591C322.029 58.5498 318.06 47.5391 318.06 47.5391Z" fill="#F60846"/>
<path d="M301.318 53.3431C302.433 59.1317 304.503 64.6945 307.442 69.8041C311.925 68.2609 319.396 65.3459 323.021 63.6802C320.585 58.4565 318.422 53.1092 316.542 47.6602C312.709 47.9174 304.295 51.1385 301.318 53.3431Z" fill="white"/>
<path opacity="0.3" d="M310.418 58.1334C310.239 58.7323 309.886 59.2647 309.405 59.6631C308.923 60.0616 308.334 60.3082 307.712 60.3718C307.09 60.4354 306.463 60.3131 305.911 60.0204C305.358 59.7277 304.905 59.2777 304.609 58.7274C304.312 58.1771 304.185 57.5512 304.245 56.9289C304.304 56.3066 304.546 55.7158 304.941 55.2313C305.337 54.7469 305.866 54.3904 306.464 54.2072C307.062 54.0239 307.7 54.0221 308.299 54.2018C309.101 54.4426 309.775 54.992 310.172 55.7291C310.569 56.4663 310.658 57.331 310.418 58.1334Z" fill="#F60846"/>
<path opacity="0.6" d="M312.758 53.9184C312.71 54.1228 312.602 54.3081 312.447 54.4498C312.292 54.5915 312.098 54.6831 311.89 54.7125C311.682 54.7419 311.47 54.7078 311.282 54.6146C311.094 54.5214 310.938 54.3735 310.836 54.1903C310.733 54.0072 310.688 53.7973 310.707 53.5882C310.726 53.3791 310.808 53.1806 310.942 53.0187C311.075 52.8568 311.255 52.7392 311.457 52.6812C311.658 52.6232 311.873 52.6275 312.072 52.6936C312.32 52.773 312.529 52.9435 312.656 53.1709C312.784 53.3982 312.82 53.6653 312.758 53.9184Z" fill="#F60846"/>
<path opacity="0.6" d="M315.501 52.8526C315.472 52.9947 315.414 53.1292 315.33 53.2475C315.247 53.3658 315.139 53.4654 315.015 53.5397C314.89 53.6141 314.752 53.6617 314.608 53.6794C314.464 53.6971 314.318 53.6846 314.179 53.6426C314.04 53.6006 313.912 53.5302 313.802 53.4357C313.692 53.3412 313.603 53.2248 313.541 53.0939C313.478 52.9631 313.444 52.8206 313.44 52.6757C313.436 52.5308 313.462 52.3867 313.517 52.2525C313.556 52.1229 313.62 52.0023 313.706 51.8976C313.792 51.7929 313.898 51.7062 314.017 51.6425C314.137 51.5788 314.268 51.5393 314.402 51.5263C314.537 51.5132 314.673 51.5269 314.803 51.5666C315.065 51.646 315.285 51.8255 315.416 52.0662C315.547 52.307 315.577 52.5895 315.501 52.8526Z" fill="#F60846"/>
<path opacity="0.5" d="M319.347 62.3951L308.017 66.8655L307.344 64.6364L318.661 60.166L319.347 62.3951Z" fill="#F60846"/>
</svg>
