<svg width="58" height="58" viewBox="0 0 58 58" fill="none" xmlns="http://www.w3.org/2000/svg">
<path fill-rule="evenodd" clip-rule="evenodd" d="M1.93713 29.0765L1.93713 29.0763C1.93694 27.4899 3.23494 26.1922 4.82113 26.1923L20.648 26.1941C22.234 26.1942 23.5324 27.4934 23.5326 29.079L23.5326 29.0792C23.5328 30.6649 22.235 31.9633 20.6487 31.963L4.82181 31.9611C3.23562 31.9609 1.93732 30.6627 1.93713 29.0765ZM28.9125 2.10108L28.9124 2.10108C27.3259 2.10089 26.0282 3.39864 26.0284 4.98506L26.0341 53.1733C26.0343 54.7597 27.3324 56.0578 28.9188 56.0579L28.9189 56.0579C30.5053 56.0581 31.8031 54.7604 31.8029 53.1739L31.7972 4.98576C31.7969 3.39942 30.4988 2.10127 28.9125 2.10108ZM33.9791 29.3628V29.3626C33.9789 27.7807 35.2731 26.4867 36.8549 26.4867L52.7044 26.4886C54.2862 26.4888 55.5807 27.7835 55.5809 29.3652V29.3654C55.5811 30.9472 54.2869 32.2415 52.7051 32.2413L36.8556 32.2394C35.2738 32.239 33.9793 30.9446 33.9791 29.3628Z" fill="#F60846"/>
</svg>
