<svg width="43" height="43" viewBox="0 0 43 43" fill="none" xmlns="http://www.w3.org/2000/svg">
<path d="M23.4316 30.5703C23.4316 32.4227 24.9387 33.9297 26.791 33.9297H30.7383C32.5906 33.9297 34.0977 32.4227 34.0977 30.5703V26.623C34.0977 24.7707 32.5906 23.2637 30.7383 23.2637H26.791C24.9387 23.2637 23.4316 24.7707 23.4316 26.623V30.5703ZM26.791 26.623H30.7383L30.7404 30.5702C30.7404 30.5702 30.7398 30.5703 30.7383 30.5703H26.791V26.623Z" fill="#E5E5E5"/>
<path d="M32.418 19.3164C33.3456 19.3164 34.0977 18.5644 34.0977 17.6367C34.0977 16.7091 33.3456 15.957 32.418 15.957C31.4903 15.957 30.7383 16.7091 30.7383 17.6367C30.7383 18.5644 31.4903 19.3164 32.418 19.3164Z" fill="#E5E5E5"/>
<path d="M25.1113 19.3164C26.039 19.3164 26.791 18.5644 26.791 17.6367C26.791 16.7091 26.039 15.957 25.1113 15.957C24.1837 15.957 23.4316 16.7091 23.4316 17.6367C23.4316 18.5644 24.1837 19.3164 25.1113 19.3164Z" fill="#E5E5E5"/>
<path d="M41.3203 29.5625C42.248 29.5625 43 28.8105 43 27.8828V10.0781C43 6.37341 39.986 3.35938 36.2812 3.35938H34.0977V1.67969C34.0977 0.751996 33.3457 0 32.418 0C31.4903 0 30.7383 0.751996 30.7383 1.67969V3.35938H23.0957V1.67969C23.0957 0.751996 22.3437 0 21.416 0C20.4883 0 19.7363 0.751996 19.7363 1.67969V3.35938H12.1777V1.67969C12.1777 0.751996 11.4257 0 10.498 0C9.57036 0 8.81836 0.751996 8.81836 1.67969V3.35938H6.71875C3.01403 3.35938 0 6.37341 0 10.0781V36.2812C0 39.986 3.01403 43 6.71875 43H36.2812C39.986 43 43 39.986 43 36.2812C43 35.3536 42.248 34.6016 41.3203 34.6016C40.3926 34.6016 39.6406 35.3536 39.6406 36.2812C39.6406 38.1336 38.1336 39.6406 36.2812 39.6406H6.71875C4.86639 39.6406 3.35938 38.1336 3.35938 36.2812V10.0781C3.35938 8.22577 4.86639 6.71875 6.71875 6.71875H8.81836V8.39844C8.81836 9.32613 9.57036 10.0781 10.498 10.0781C11.4257 10.0781 12.1777 9.32613 12.1777 8.39844V6.71875H19.7363V8.39844C19.7363 9.32613 20.4883 10.0781 21.416 10.0781C22.3437 10.0781 23.0957 9.32613 23.0957 8.39844V6.71875H30.7383V8.39844C30.7383 9.32613 31.4903 10.0781 32.418 10.0781C33.3457 10.0781 34.0977 9.32613 34.0977 8.39844V6.71875H36.2812C38.1336 6.71875 39.6406 8.22577 39.6406 10.0781V27.8828C39.6406 28.8105 40.3926 29.5625 41.3203 29.5625Z" fill="#E5E5E5"/>
<path d="M10.498 33.9297C11.4257 33.9297 12.1777 33.1777 12.1777 32.25C12.1777 31.3223 11.4257 30.5703 10.498 30.5703C9.57038 30.5703 8.81836 31.3223 8.81836 32.25C8.81836 33.1777 9.57038 33.9297 10.498 33.9297Z" fill="#E5E5E5"/>
<path d="M10.498 19.3164C11.4257 19.3164 12.1777 18.5644 12.1777 17.6367C12.1777 16.7091 11.4257 15.957 10.498 15.957C9.57038 15.957 8.81836 16.7091 8.81836 17.6367C8.81836 18.5644 9.57038 19.3164 10.498 19.3164Z" fill="#E5E5E5"/>
<path d="M10.498 26.623C11.4257 26.623 12.1777 25.871 12.1777 24.9434C12.1777 24.0157 11.4257 23.2637 10.498 23.2637C9.57038 23.2637 8.81836 24.0157 8.81836 24.9434C8.81836 25.871 9.57038 26.623 10.498 26.623Z" fill="#E5E5E5"/>
<path d="M17.8047 26.623C18.7324 26.623 19.4844 25.871 19.4844 24.9434C19.4844 24.0157 18.7324 23.2637 17.8047 23.2637C16.877 23.2637 16.125 24.0157 16.125 24.9434C16.125 25.871 16.877 26.623 17.8047 26.623Z" fill="#E5E5E5"/>
<path d="M17.8047 19.3164C18.7324 19.3164 19.4844 18.5644 19.4844 17.6367C19.4844 16.7091 18.7324 15.957 17.8047 15.957C16.877 15.957 16.125 16.7091 16.125 17.6367C16.125 18.5644 16.877 19.3164 17.8047 19.3164Z" fill="#E5E5E5"/>
<path d="M17.8047 33.9297C18.7324 33.9297 19.4844 33.1777 19.4844 32.25C19.4844 31.3223 18.7324 30.5703 17.8047 30.5703C16.877 30.5703 16.125 31.3223 16.125 32.25C16.125 33.1777 16.877 33.9297 17.8047 33.9297Z" fill="#E5E5E5"/>
</svg>
