<svg width="55" height="55" viewBox="0 0 55 55" fill="none" xmlns="http://www.w3.org/2000/svg">
<path d="M52.8516 37.8125C54.0381 37.8125 55 36.8506 55 35.6641V12.8906C55 8.15203 51.1448 4.29688 46.4062 4.29688H43.6133V2.14844C43.6133 0.961856 42.6514 0 41.4648 0C40.2783 0 39.3164 0.961856 39.3164 2.14844V4.29688H29.541V2.14844C29.541 0.961856 28.5792 0 27.3926 0C26.206 0 25.2441 0.961856 25.2441 2.14844V4.29688H15.5762V2.14844C15.5762 0.961856 14.6143 0 13.4277 0C12.2412 0 11.2793 0.961856 11.2793 2.14844V4.29688H8.59375C3.85516 4.29688 0 8.15203 0 12.8906V46.4062C0 51.1448 3.85516 55 8.59375 55H46.4062C51.1448 55 55 51.1448 55 46.4062C55 45.2197 54.0381 44.2578 52.8516 44.2578C51.665 44.2578 50.7031 45.2197 50.7031 46.4062C50.7031 48.7755 48.7755 50.7031 46.4062 50.7031H8.59375C6.22445 50.7031 4.29688 48.7755 4.29688 46.4062V12.8906C4.29688 10.5213 6.22445 8.59375 8.59375 8.59375H11.2793V10.7422C11.2793 11.9288 12.2412 12.8906 13.4277 12.8906C14.6143 12.8906 15.5762 11.9288 15.5762 10.7422V8.59375H25.2441V10.7422C25.2441 11.9288 26.206 12.8906 27.3926 12.8906C28.5792 12.8906 29.541 11.9288 29.541 10.7422V8.59375H39.3164V10.7422C39.3164 11.9288 40.2783 12.8906 41.4648 12.8906C42.6514 12.8906 43.6133 11.9288 43.6133 10.7422V8.59375H46.4062C48.7755 8.59375 50.7031 10.5213 50.7031 12.8906V35.6641C50.7031 36.8506 51.665 37.8125 52.8516 37.8125Z" fill="#0AAD74"/>
<path d="M13.4277 24.707C14.6143 24.707 15.5762 23.7451 15.5762 22.5586C15.5762 21.372 14.6143 20.4102 13.4277 20.4102C12.2412 20.4102 11.2793 21.372 11.2793 22.5586C11.2793 23.7451 12.2412 24.707 13.4277 24.707Z" fill="#0AAD74"/>
<path d="M32.1191 24.707C33.3057 24.707 34.2676 23.7451 34.2676 22.5586C34.2676 21.372 33.3057 20.4102 32.1191 20.4102C30.9326 20.4102 29.9707 21.372 29.9707 22.5586C29.9707 23.7451 30.9326 24.707 32.1191 24.707Z" fill="#0AAD74"/>
<path d="M41.4648 24.707C42.6514 24.707 43.6133 23.7451 43.6133 22.5586C43.6133 21.372 42.6514 20.4102 41.4648 20.4102C40.2783 20.4102 39.3164 21.372 39.3164 22.5586C39.3164 23.7451 40.2783 24.707 41.4648 24.707Z" fill="#0AAD74"/>
<path d="M13.4277 34.0527C14.6143 34.0527 15.5762 33.0908 15.5762 31.9043C15.5762 30.7177 14.6143 29.7559 13.4277 29.7559C12.2412 29.7559 11.2793 30.7177 11.2793 31.9043C11.2793 33.0908 12.2412 34.0527 13.4277 34.0527Z" fill="#0AAD74"/>
<path d="M13.4277 43.3984C14.6143 43.3984 15.5762 42.4365 15.5762 41.25C15.5762 40.0635 14.6143 39.1016 13.4277 39.1016C12.2412 39.1016 11.2793 40.0635 11.2793 41.25C11.2793 42.4365 12.2412 43.3984 13.4277 43.3984Z" fill="#0AAD74"/>
<path d="M22.7734 24.707C23.96 24.707 24.9219 23.7451 24.9219 22.5586C24.9219 21.372 23.96 20.4102 22.7734 20.4102C21.5869 20.4102 20.625 21.372 20.625 22.5586C20.625 23.7451 21.5869 24.707 22.7734 24.707Z" fill="#0AAD74"/>
<path d="M22.7734 34.0527C23.96 34.0527 24.9219 33.0908 24.9219 31.9043C24.9219 30.7177 23.96 29.7559 22.7734 29.7559C21.5869 29.7559 20.625 30.7177 20.625 31.9043C20.625 33.0908 21.5869 34.0527 22.7734 34.0527Z" fill="#0AAD74"/>
<path d="M22.7734 43.3984C23.96 43.3984 24.9219 42.4365 24.9219 41.25C24.9219 40.0635 23.96 39.1016 22.7734 39.1016C21.5869 39.1016 20.625 40.0635 20.625 41.25C20.625 42.4365 21.5869 43.3984 22.7734 43.3984Z" fill="#0AAD74"/>
<path d="M32.1191 34.0527C33.3057 34.0527 34.2676 33.0908 34.2676 31.9043C34.2676 30.7177 33.3057 29.7559 32.1191 29.7559C30.9326 29.7559 29.9707 30.7177 29.9707 31.9043C29.9707 33.0908 30.9326 34.0527 32.1191 34.0527Z" fill="#0AAD74"/>
<path d="M41.4648 34.0527C42.6514 34.0527 43.6133 33.0908 43.6133 31.9043C43.6133 30.7177 42.6514 29.7559 41.4648 29.7559C40.2783 29.7559 39.3164 30.7177 39.3164 31.9043C39.3164 33.0908 40.2783 34.0527 41.4648 34.0527Z" fill="#0AAD74"/>
<path d="M32.1191 43.3984C33.3057 43.3984 34.2676 42.4365 34.2676 41.25C34.2676 40.0635 33.3057 39.1016 32.1191 39.1016C30.9326 39.1016 29.9707 40.0635 29.9707 41.25C29.9707 42.4365 30.9326 43.3984 32.1191 43.3984Z" fill="#0AAD74"/>
</svg>
