<svg width="56" height="56" viewBox="0 0 56 56" fill="none" xmlns="http://www.w3.org/2000/svg">
<path d="M6.56425 34.842L9.78685 34.861C10.4865 34.8651 11.161 34.7571 11.7935 34.5537L22.3028 51.1324L23.6757 53.0853L23.7925 53.2056C25.0072 54.4598 26.6378 55.156 28.3837 55.1663C31.9376 55.1873 34.8459 52.313 34.8669 48.7591C34.8711 48.0429 34.758 47.3377 34.5308 46.6629L34.4876 46.5346L34.4285 46.4127C34.095 45.7237 33.7385 45.0034 33.3611 44.2409C32.4096 42.3183 30.8387 39.1442 30.6061 38.1915C30.7678 37.0666 32.2771 36.3901 33.3494 36.3964L47.483 36.4798C50.8593 36.4997 53.6222 33.7691 53.6421 30.3929C53.6486 29.2815 53.351 28.2058 52.803 27.2704C54.2656 26.146 55.1814 24.3891 55.1928 22.4527C55.2018 20.9321 54.6549 19.4639 53.6528 18.3188C53.3891 18.0174 53.1014 17.7469 52.7941 17.5094C53.3205 16.6043 53.615 15.5673 53.6213 14.4941C53.635 12.1656 52.3306 10.1286 50.404 9.08203C50.7784 8.31035 50.9843 7.46238 50.9894 6.59056C51.0109 2.94494 48.4418 0.283625 44.8806 0.262627L23.8492 0.138623C22.6627 0.131627 21.6952 1.08779 21.6882 2.27436C21.6812 3.46092 22.6373 4.42843 23.8239 4.43542L44.8552 4.55943C46.5241 4.56927 46.6961 5.9654 46.6926 6.56523C46.6874 7.45166 45.9358 7.92924 45.7057 8.05443C44.4966 8.71214 44.311 9.66626 44.308 10.1764C44.2999 11.5427 45.4732 12.6199 46.9791 12.6287L47.4637 12.6316C48.4957 12.6377 49.3304 13.4618 49.3245 14.4688C49.3207 15.1096 48.9601 15.7113 48.3835 16.0389C48.3469 16.0596 48.313 16.0775 48.2822 16.0938C47.3297 16.6011 46.844 17.3351 46.8384 18.2757C46.8336 19.0864 47.3665 20.491 49.3942 20.6124C50.2138 20.6616 50.9015 21.4927 50.896 22.4274C50.8912 23.2515 50.3043 23.9933 49.5007 24.1909C48.2069 24.5092 47.3328 25.5189 47.3258 26.7033C47.3224 27.2897 47.5336 28.1399 48.5592 28.8605C49.0549 29.2088 49.3488 29.7722 49.3453 30.3676C49.3393 31.3746 48.5153 32.1889 47.5084 32.183L33.3747 32.0996C30.1015 32.0803 26.4662 34.3839 26.3008 38.1389L26.2987 38.2208C26.2911 39.5125 27.2221 41.5238 29.5101 46.1468C29.8569 46.8475 30.1858 47.512 30.4916 48.142C30.5449 48.3332 30.5713 48.5317 30.5701 48.7338C30.5631 49.9184 29.5936 50.8765 28.409 50.8695C27.8738 50.8664 27.3711 50.6698 26.9787 50.3131L25.9037 48.7875L15.2216 31.9362C15.8777 30.9339 16.2625 29.7382 16.2701 28.4538L16.3993 6.54012C16.4202 2.98624 13.5459 0.0778729 9.99207 0.0569185L6.76946 0.0379175C3.21558 0.0169632 0.307217 2.89123 0.286263 6.44512L0.157056 28.3588C0.136101 31.9127 3.01037 34.821 6.56425 34.842ZM4.58306 6.47045C4.59005 5.28582 5.5595 4.32773 6.74413 4.33472L9.96673 4.35372C11.1514 4.3607 12.1094 5.33016 12.1025 6.51479L11.9733 28.4285C11.9663 29.6131 10.9968 30.5712 9.81219 30.5642L6.58959 30.5452C5.40496 30.5382 4.44687 29.5688 4.45386 28.3841L4.58306 6.47045Z" fill="#F60846"/>
</svg>
