<svg width="55" height="55" viewBox="0 0 55 55" fill="none" xmlns="http://www.w3.org/2000/svg">
<path d="M54.3599 41.1621L48.0169 34.8306C46.769 33.5827 44.7382 33.5827 43.4914 34.8293L37.1474 41.1621C36.3078 42.0003 36.3065 43.3602 37.1447 44.1998C37.9829 45.0395 39.3429 45.0407 40.1825 44.2025L43.6054 40.7857V52.8519C43.6054 54.0383 44.5671 55 45.7536 55C46.94 55 47.9017 54.0384 47.9017 52.8519V40.7857L51.3247 44.2025C51.7439 44.621 52.2931 44.8303 52.8422 44.8303C53.3925 44.8303 53.943 44.62 54.3625 44.1997C55.2006 43.3602 55.1994 42.0002 54.3599 41.1621Z" fill="#0AAD74"/>
<path d="M53.833 18.9632C53.7621 18.7163 53.6454 18.4782 53.4812 18.2611C53.3596 18.1004 53.2199 17.9616 53.067 17.8454C52.6537 17.3335 52.1803 16.8673 51.6532 16.4597L32.2118 1.42992C32.1541 1.38523 32.0941 1.34366 32.0323 1.30509C29.2336 -0.435031 25.7565 -0.435031 22.9579 1.30509C22.8961 1.34355 22.8361 1.38523 22.7784 1.42992L3.33705 16.4597C1.24749 18.0751 0 20.6163 0 23.2574V46.4078C0.000107422 51.1455 3.8545 54.9999 8.59233 54.9999H35.0134C36.1998 54.9999 37.1615 54.0382 37.1615 52.8518C37.1615 51.6653 36.1999 50.7037 35.0134 50.7037H8.59233C6.22347 50.7037 4.29622 48.7764 4.29622 46.4076V23.2574C4.29622 21.9369 4.92002 20.6663 5.96469 19.8585L25.311 4.90221C26.6671 4.10031 28.3233 4.10031 29.6794 4.90221L48.424 19.3933L29.6881 33.567C28.3261 34.3767 26.6595 34.3758 25.298 33.5645L12.5647 24.0308C11.6151 23.3196 10.2688 23.5132 9.55773 24.4628C8.84671 25.4124 9.04017 26.7586 9.98978 27.4698L22.8046 37.0645C22.8542 37.1015 22.9053 37.1364 22.9577 37.1692C24.3571 38.0394 25.926 38.4744 27.495 38.4744C29.0639 38.4744 30.6329 38.0393 32.0323 37.1692C32.0878 37.1346 32.1417 37.0975 32.1939 37.0581L50.6897 23.0661C50.6926 23.1297 50.6941 23.1934 50.6941 23.2573V27.7195C50.6941 28.9059 51.6557 29.8676 52.8422 29.8676C54.0287 29.8676 54.9902 28.906 54.9902 27.7195V23.2573C54.9903 21.7409 54.5789 20.2574 53.833 18.9632Z" fill="#0AAD74"/>
</svg>
