<svg width="31" height="31" viewBox="0 0 31 31" fill="none" xmlns="http://www.w3.org/2000/svg">
<path fill-rule="evenodd" clip-rule="evenodd" d="M0.848206 0.844126L0.848285 0.844043C1.69287 -0.000748605 3.07495 -0.000586078 3.91945 0.844043L12.3455 9.27197C13.1899 10.1165 13.1895 11.4996 12.3454 12.344L12.3453 12.3441C11.5011 13.1885 10.1187 13.1888 9.2742 12.344L0.848206 3.91602C0.0037798 3.07131 0.00369854 1.68884 0.848206 0.844126ZM29.5743 0.844126L29.5742 0.844043C28.7296 -0.000748605 27.3476 -0.000748605 26.5031 0.844043L0.848285 26.5049C0.00369662 27.3497 0.00369662 28.7321 0.848285 29.5768L0.84838 29.5769C1.69297 30.4216 3.07495 30.4216 3.91953 29.5769L29.5743 3.91602C30.4188 3.07123 30.4188 1.68884 29.5743 0.844126ZM17.7565 18.0573L17.7565 18.0572C18.5988 17.2149 19.9769 17.2149 20.8191 18.0572L29.2571 26.4972C30.0992 27.3396 30.0992 28.7182 29.2571 29.5605L29.257 29.5606C28.4149 30.4029 27.0366 30.403 26.1945 29.5606L17.7565 21.1206C16.9144 20.2781 16.9144 18.8996 17.7565 18.0573Z" fill="white"/>
</svg>
