<svg width="42" height="42" viewBox="0 0 42 42" fill="none" xmlns="http://www.w3.org/2000/svg">
<path fill-rule="evenodd" clip-rule="evenodd" d="M0.886919 0.887147L0.88703 0.887031C2.06974 -0.295677 4.0051 -0.295449 5.1877 0.887031L16.987 12.6861C18.1695 13.8685 18.1689 15.8049 16.9868 16.987L16.9867 16.9871C15.8045 18.1693 13.8687 18.1697 12.6861 16.987L0.886919 5.1878C-0.29556 4.00521 -0.295674 2.06974 0.886919 0.887147ZM41.1131 0.887147L41.1129 0.887031C39.9302 -0.295677 37.995 -0.295677 36.8123 0.887031L0.88703 36.8122C-0.295677 37.9949 -0.295677 39.9303 0.88703 41.1129L0.887163 41.113C2.06987 42.2957 4.0051 42.2957 5.18781 41.113L41.1131 5.1878C42.2957 4.00509 42.2957 2.06974 41.1131 0.887147ZM24.5642 24.9856L24.5643 24.9855C25.7437 23.8062 27.6734 23.8063 28.8528 24.9855L40.6689 36.8015C41.8482 37.9808 41.8481 39.9108 40.6689 41.0901L40.6688 41.0902C39.4895 42.2694 37.5595 42.2695 36.3802 41.0902L24.5642 29.2742C23.385 28.0948 23.385 26.1649 24.5642 24.9856Z" fill="#F60846"/>
</svg>
