<svg width="30" height="30" viewBox="0 0 30 30" fill="none" xmlns="http://www.w3.org/2000/svg">
<path d="M28.8281 0.00585938H1.17188C0.524648 0.00585938 0 0.530508 0 1.17773C0 5.71816 1.34344 9.69328 4.22783 13.6876C6.02736 16.1797 9.25564 18.0144 10.8984 18.836V25.9508C10.8984 26.3981 11.1531 26.8063 11.5547 27.0032L17.4141 29.8743C17.5772 29.9542 17.7536 29.9938 17.9296 29.9938C18.1455 29.9938 18.3607 29.9342 18.5498 29.8163C18.893 29.6023 19.1016 29.2264 19.1016 28.8219V23.9923C19.1016 23.3451 18.5769 22.8204 17.9297 22.8204C17.2825 22.8204 16.7578 23.3451 16.7578 23.9923V26.9427L13.2422 25.22V18.0993C13.2422 17.6415 12.9756 17.2256 12.5596 17.0344C10.3718 16.0292 7.53328 14.2617 6.12797 12.3155C3.79975 9.09141 2.59324 5.8967 2.37873 2.34961H27.6213C27.4068 5.89664 26.2003 9.09141 23.872 12.3155C22.3868 14.3723 19.592 16.1756 17.4811 17.0503C16.8832 17.2981 16.5993 17.9836 16.8471 18.5815C17.0948 19.1794 17.7803 19.4633 18.3783 19.2155C20.6179 18.2875 23.8981 16.283 25.7722 13.6876C28.6566 9.69328 30 5.71816 30 1.17773C30 0.530508 29.4754 0.00585938 28.8281 0.00585938Z" fill="white"/>
</svg>
