<svg width="600" height="600" viewBox="0 0 600 600" fill="none" xmlns="http://www.w3.org/2000/svg">
<path d="M296.401 581.64C451.873 581.64 577.909 506.209 577.909 413.16C577.909 320.111 451.873 244.68 296.401 244.68C140.928 244.68 14.8926 320.111 14.8926 413.16C14.8926 506.209 140.928 581.64 296.401 581.64Z" fill="#F5F5F5"/>
<path d="M346.248 338.1L341.148 335.16C339.21 334.171 337.066 333.656 334.89 333.656C332.715 333.656 330.57 334.171 328.632 335.16L59.3642 490.62C55.9202 492.612 55.9202 495.864 59.3642 497.82L64.4522 500.76C66.392 501.742 68.5358 502.254 70.7102 502.254C72.8847 502.254 75.0285 501.742 76.9682 500.76L158.772 453.6L195.168 474.612C204.552 480.024 219.9 480.024 229.284 474.612L285.684 442.032C293.7 437.4 293.7 429.828 285.684 425.232L246.84 402.72L346.248 345.324C349.692 343.332 349.692 340.08 346.248 338.1Z" fill="#E0E0E0"/>
<path d="M444.24 528.996C472.344 545.22 517.895 545.22 545.987 528.996C574.079 512.772 574.091 486.48 545.987 470.256C517.883 454.032 472.344 454.032 444.24 470.256C416.136 486.48 416.148 512.772 444.24 528.996Z" fill="#E0E0E0"/>
<path d="M168.984 103.751L173.508 101.015C173.469 100.701 173.449 100.384 173.448 100.067V97.8352C173.567 95.6715 174.194 93.5663 175.278 91.69C176.362 89.8137 177.873 88.2191 179.688 87.0352C180.229 86.6741 180.837 86.4244 181.475 86.3008C182.114 86.1772 182.771 86.1821 183.408 86.3152C183.972 80.6632 187.896 74.3152 192.672 71.5072C197.82 68.5312 202.008 70.9432 202.008 76.8952V80.2432C201.987 81.874 201.72 83.4923 201.216 85.0432L207.6 81.3232C209.52 80.2192 211.068 81.1072 211.068 83.3152C211.003 84.5178 210.656 85.6881 210.053 86.7308C209.45 87.7735 208.61 88.659 207.6 89.3152L168.96 111.743C167.052 112.847 165.504 111.959 165.504 109.751C165.572 108.548 165.922 107.378 166.527 106.335C167.131 105.293 167.973 104.408 168.984 103.751Z" fill="#EBEBEB"/>
<path d="M130.249 94.6319L125.449 96.4559V86.0159C125.449 77.7359 118.849 75.7559 111.673 79.8839C104.569 83.9999 98.7605 94.0919 98.7605 102.372V103.884C97.7548 103.576 96.6922 103.5 95.6529 103.662C94.6135 103.824 93.6245 104.22 92.7605 104.82C90.041 106.591 87.778 108.979 86.1557 111.79C84.5334 114.601 83.5976 117.755 83.4245 120.996V121.68L76.8005 125.496C75.0088 126.663 73.5175 128.236 72.4479 130.087C71.3782 131.939 70.7604 134.017 70.6445 136.152C70.6445 140.076 73.4045 141.66 76.8005 139.752L130.249 108.84C132.037 107.671 133.526 106.097 134.593 104.246C135.661 102.394 136.277 100.318 136.393 98.1839C136.393 94.2599 133.645 92.6639 130.249 94.6319Z" fill="#EBEBEB"/>
<path d="M229.932 466.199L276.624 439.199C281.424 436.415 283.824 432.779 283.824 429.143C283.824 425.507 283.824 422.639 283.824 422.639L239.892 397.715C238.54 396.831 237.415 395.642 236.609 394.243C235.802 392.844 235.336 391.275 235.248 389.663V332.062L153.744 379.199V436.799C153.833 438.41 154.301 439.979 155.11 441.376C155.919 442.773 157.046 443.959 158.4 444.839L195.096 466.199C204.708 471.755 220.308 471.755 229.932 466.199Z" fill="#263238"/>
<path opacity="0.15" d="M173.316 446.986V453.454L158.4 444.838C157.047 443.956 155.922 442.767 155.115 441.368C154.308 439.969 153.842 438.399 153.756 436.786V379.198L169.296 370.234C169.608 374.182 169.968 378.262 170.28 382.234L159.396 388.534V433.51C159.478 435.121 159.941 436.689 160.746 438.087C161.551 439.484 162.676 440.671 164.028 441.55L173.316 446.986Z" fill="black"/>
<path d="M159.361 433.547C159.449 435.161 159.916 436.731 160.725 438.13C161.534 439.529 162.662 440.718 164.017 441.599L195.073 459.707C204.673 465.275 220.273 465.275 229.933 459.707L276.637 432.719C286.237 427.163 286.237 418.151 276.637 412.595L245.545 394.463C244.192 393.584 243.066 392.397 242.259 391C241.452 389.603 240.986 388.034 240.901 386.423V341.459L159.301 388.571L159.361 433.547Z" fill="#455A64"/>
<path opacity="0.3" d="M255.025 399.947L245.557 394.475C244.204 393.596 243.078 392.409 242.27 391.012C241.463 389.615 240.998 388.046 240.913 386.435V341.459L159.312 388.571V433.547C159.4 435.161 159.868 436.731 160.677 438.13C161.486 439.529 162.614 440.718 163.969 441.599L173.269 446.975L255.025 399.947Z" fill="black"/>
<path d="M62.2312 469.043C63.9917 469.895 65.928 470.321 67.8836 470.285C69.8391 470.25 71.7588 469.755 73.4872 468.839L341.771 313.943C343.46 312.841 344.866 311.356 345.873 309.609C346.88 307.862 347.461 305.901 347.567 303.887V59.4713C347.499 57.5161 346.97 55.6046 346.024 53.8925C345.077 52.1805 343.739 50.7163 342.119 49.6192C340.359 48.7672 338.422 48.3416 336.467 48.377C334.511 48.4125 332.592 48.9079 330.863 49.8232L62.5912 204.707C60.8977 205.814 59.4892 207.305 58.48 209.059C57.4708 210.812 56.8895 212.779 56.7832 214.799V459.191C56.8531 461.146 57.3828 463.057 58.3294 464.769C59.2759 466.48 60.6127 467.945 62.2312 469.043Z" fill="#455A64"/>
<path d="M73.4877 468.827L341.772 313.943C343.462 312.839 344.869 311.352 345.878 309.602C346.887 307.853 347.47 305.891 347.58 303.875V59.4591C347.58 55.7511 344.976 54.2511 341.772 56.1111L73.4877 210.995C71.7983 212.098 70.3921 213.583 69.3831 215.33C68.3741 217.077 67.7906 219.037 67.6797 221.051V465.479C67.6797 469.199 70.2837 470.675 73.4877 468.827Z" fill="#37474F"/>
<path d="M75.3594 427.33V223.643C75.4269 222.401 75.7886 221.193 76.4145 220.119C77.0404 219.044 77.9126 218.134 78.9594 217.462L336.311 68.8545C338.291 67.6545 339.911 68.6385 339.911 70.9185V274.606C339.843 275.85 339.481 277.059 338.855 278.135C338.229 279.211 337.358 280.124 336.311 280.798L78.9234 429.394C76.9554 430.534 75.3594 429.598 75.3594 427.33Z" fill="#F60846"/>
<path opacity="0.7" d="M75.3594 427.33V223.643C75.4269 222.401 75.7886 221.193 76.4145 220.119C77.0404 219.044 77.9126 218.134 78.9594 217.462L336.311 68.8545C338.291 67.6545 339.911 68.6385 339.911 70.9185V274.606C339.843 275.85 339.481 277.059 338.855 278.135C338.229 279.211 337.358 280.124 336.311 280.798L78.9234 429.394C76.9554 430.534 75.3594 429.598 75.3594 427.33Z" fill="white"/>
<path d="M58.4998 209.027L69.3838 215.303C68.3538 217.052 67.7649 219.024 67.6678 221.051V465.479C67.6678 468.851 69.9598 470.747 73.4758 468.839C71.75 469.763 69.8294 470.263 67.8724 470.299C65.9153 470.334 63.9778 469.904 62.2198 469.043C60.6188 468.093 59.2808 466.758 58.3273 465.159C57.3737 463.56 56.8349 461.748 56.7598 459.887V214.799C56.836 212.758 57.4351 210.771 58.4998 209.027Z" fill="#263238"/>
<path d="M202.536 378.887L215.676 371.339C216.876 370.667 217.812 371.147 217.812 372.419C217.757 373.135 217.536 373.828 217.165 374.443C216.794 375.057 216.284 375.577 215.676 375.959L202.536 383.495C201.336 384.179 200.412 383.699 200.412 382.415C200.463 381.701 200.682 381.009 201.051 380.396C201.42 379.783 201.929 379.266 202.536 378.887Z" fill="#F60846"/>
<path d="M137.893 507.348L147.049 502.056C147.049 502.056 152.509 479.388 150.337 458.988C147.277 430.32 128.401 419.532 121.201 422.004C114.001 424.476 111.949 432.804 123.817 449.904C130.801 459.972 139.465 480.96 137.893 507.348Z" fill="#F60846"/>
<g opacity="0.3">
<path opacity="0.3" d="M137.893 507.348L147.049 502.056C147.049 502.056 152.509 479.388 150.337 458.988C147.277 430.32 128.401 419.532 121.201 422.004C114.001 424.476 111.949 432.804 123.817 449.904C130.801 459.972 139.465 480.96 137.893 507.348Z" fill="white"/>
</g>
<path d="M141.685 496.212H141.601C141.519 496.198 141.44 496.167 141.369 496.121C141.299 496.076 141.238 496.017 141.191 495.947C141.144 495.878 141.112 495.799 141.096 495.717C141.079 495.635 141.08 495.55 141.097 495.468C146.113 469.068 136.873 439.308 125.497 426.936C125.437 426.879 125.389 426.81 125.356 426.734C125.324 426.657 125.307 426.575 125.307 426.492C125.307 426.409 125.324 426.327 125.356 426.25C125.389 426.174 125.437 426.105 125.497 426.048C125.557 425.989 125.627 425.942 125.704 425.91C125.781 425.878 125.864 425.861 125.947 425.861C126.031 425.861 126.114 425.878 126.191 425.91C126.268 425.942 126.338 425.989 126.397 426.048C138.049 438.636 147.457 468.84 142.369 495.648C142.348 495.811 142.266 495.96 142.139 496.065C142.012 496.17 141.85 496.222 141.685 496.212Z" fill="white"/>
<path d="M114.817 520.668C113.449 521.364 109.813 518.268 108.817 517.488C107.069 516.164 105.692 514.412 104.821 512.4C103.843 510.131 103.6 507.614 104.125 505.2C104.399 503.924 104.764 502.668 105.217 501.444L106.417 497.844C106.907 496.678 107.156 495.425 107.149 494.16C106.945 491.616 104.749 489.732 102.841 488.16C100.669 486.36 98.4366 484.008 98.6046 480.96C98.89 478.613 99.945 476.427 101.605 474.744C103.153 472.98 104.953 471.432 106.405 469.56C107.505 468.258 108.127 466.62 108.169 464.916C108.075 463.869 107.777 462.849 107.293 461.916C106.161 459.959 105.194 457.912 104.401 455.796C103.765 453.636 104.005 450.996 105.733 449.556C106.502 449.041 107.366 448.685 108.275 448.508C109.183 448.331 110.118 448.336 111.025 448.524C112.75 448.812 114.389 449.48 115.825 450.48C120.517 453.408 123.025 459.252 127.993 461.568C129.988 462.308 132.028 462.922 134.101 463.404C135.14 463.649 136.117 464.11 136.967 464.757C137.816 465.404 138.52 466.223 139.033 467.16C140.725 471 137.005 475.452 138.133 479.496C139.117 483.096 142.477 484.596 144.241 487.896C144.949 489.339 145.18 490.969 144.901 492.552C144.606 495.243 143.813 497.856 142.561 500.256C141.166 502.719 139.623 505.096 137.941 507.372C137.941 507.372 115.033 520.56 114.817 520.668Z" fill="#F60846"/>
<g opacity="0.65">
<path opacity="0.65" d="M114.817 520.668C113.449 521.364 109.813 518.268 108.817 517.488C107.069 516.164 105.692 514.412 104.821 512.4C103.843 510.131 103.6 507.614 104.125 505.2C104.399 503.924 104.764 502.668 105.217 501.444L106.417 497.844C106.907 496.678 107.156 495.425 107.149 494.16C106.945 491.616 104.749 489.732 102.841 488.16C100.669 486.36 98.4366 484.008 98.6046 480.96C98.89 478.613 99.945 476.427 101.605 474.744C103.153 472.98 104.953 471.432 106.405 469.56C107.505 468.258 108.127 466.62 108.169 464.916C108.075 463.869 107.777 462.849 107.293 461.916C106.161 459.959 105.194 457.912 104.401 455.796C103.765 453.636 104.005 450.996 105.733 449.556C106.502 449.041 107.366 448.685 108.275 448.508C109.183 448.331 110.118 448.336 111.025 448.524C112.75 448.812 114.389 449.48 115.825 450.48C120.517 453.408 123.025 459.252 127.993 461.568C129.988 462.308 132.028 462.922 134.101 463.404C135.14 463.649 136.117 464.11 136.967 464.757C137.816 465.404 138.52 466.223 139.033 467.16C140.725 471 137.005 475.452 138.133 479.496C139.117 483.096 142.477 484.596 144.241 487.896C144.949 489.339 145.18 490.969 144.901 492.552C144.606 495.243 143.813 497.856 142.561 500.256C141.166 502.719 139.623 505.096 137.941 507.372C137.941 507.372 115.033 520.56 114.817 520.668Z" fill="white"/>
</g>
<path d="M128.089 513.756C128.009 513.75 127.931 513.728 127.859 513.692C127.788 513.655 127.725 513.605 127.673 513.543C127.622 513.481 127.583 513.41 127.56 513.334C127.536 513.257 127.528 513.176 127.537 513.096C129.721 489.312 119.821 462.432 112.045 454.368C111.988 454.313 111.944 454.246 111.913 454.173C111.883 454.1 111.867 454.022 111.867 453.942C111.867 453.863 111.883 453.785 111.913 453.712C111.944 453.638 111.988 453.572 112.045 453.516C112.159 453.406 112.312 453.344 112.471 453.344C112.63 453.344 112.782 453.406 112.897 453.516C120.829 461.736 130.897 489.072 128.713 513.192C128.703 513.349 128.633 513.497 128.516 513.602C128.399 513.708 128.246 513.763 128.089 513.756Z" fill="white"/>
<path d="M125.724 484.416C125.664 484.427 125.603 484.427 125.544 484.416C119.974 482.602 114.225 481.395 108.396 480.816C108.317 480.81 108.24 480.788 108.17 480.752C108.099 480.716 108.036 480.667 107.985 480.607C107.934 480.546 107.895 480.476 107.871 480.401C107.846 480.326 107.837 480.247 107.844 480.168C107.85 480.088 107.872 480.011 107.909 479.94C107.945 479.869 107.996 479.806 108.058 479.756C108.12 479.705 108.191 479.668 108.268 479.646C108.344 479.624 108.425 479.618 108.504 479.628C114.443 480.222 120.298 481.47 125.964 483.348C126.112 483.407 126.232 483.521 126.299 483.666C126.366 483.811 126.375 483.976 126.324 484.128C126.265 484.231 126.176 484.313 126.069 484.365C125.961 484.416 125.841 484.434 125.724 484.416Z" fill="white"/>
<path d="M450.072 65.3157C450.058 65.0918 450.018 64.8703 449.952 64.6557C449.964 64.6334 449.97 64.6087 449.97 64.5837C449.97 64.5586 449.964 64.5339 449.952 64.5117C449.923 64.2934 449.867 64.0797 449.784 63.8757C449.692 63.552 449.55 63.2445 449.364 62.9637C449.308 62.8259 449.227 62.6997 449.124 62.5917C449.07 62.4939 449.001 62.4048 448.92 62.3277C448.783 62.1542 448.626 61.9972 448.452 61.8597C448.261 61.7233 448.056 61.6067 447.84 61.5117C447.051 61.2156 446.201 61.1166 445.365 61.2233C444.528 61.3299 443.73 61.639 443.04 62.1237L198.768 203.064C194.82 205.332 191.568 210.9 191.568 218.868V443.904C191.567 444.768 191.794 445.617 192.226 446.365C192.657 447.113 193.279 447.734 194.028 448.165C194.777 448.596 195.626 448.822 196.49 448.82C197.354 448.817 198.202 448.587 198.948 448.152L442.956 307.2C445.048 305.843 446.789 304.013 448.04 301.857C449.291 299.701 450.016 297.28 450.156 294.792V66.2037C450.108 65.9037 450.096 65.5917 450.072 65.3157Z" fill="#FAFAFA"/>
<path d="M446.124 62.2684C446.539 62.2566 446.95 62.3429 447.324 62.5204C447.44 62.5658 447.549 62.6263 447.648 62.7004H447.72C447.809 62.7711 447.89 62.8516 447.96 62.9404L448.056 63.0724L448.14 63.1924L448.2 63.2644V63.3604L448.284 63.4924C448.404 63.6728 448.493 63.8714 448.548 64.0804C448.572 64.1431 448.592 64.2072 448.608 64.2724V64.3684L448.752 64.8244C448.789 64.9497 448.813 65.0783 448.824 65.2084C448.824 65.4604 448.824 65.7364 448.824 66.0004V294.756C448.684 297.037 448.016 299.254 446.873 301.232C445.73 303.211 444.143 304.896 442.236 306.156L198.276 447.156C197.708 447.499 197.056 447.677 196.392 447.672C195.394 447.669 194.437 447.271 193.731 446.565C193.026 445.859 192.628 444.903 192.624 443.904V218.868C192.624 210.756 196.032 205.896 199.212 204.06L443.52 63.0724C444.304 62.5842 445.202 62.3072 446.124 62.2684ZM446.124 61.0684C445.001 61.1084 443.909 61.4437 442.956 62.0404L198.768 203.064C194.82 205.332 191.568 210.9 191.568 218.868V443.904C191.568 444.551 191.696 445.19 191.943 445.787C192.19 446.384 192.553 446.927 193.009 447.383C193.466 447.84 194.009 448.203 194.606 448.45C195.202 448.697 195.842 448.824 196.488 448.824C197.334 448.816 198.161 448.584 198.888 448.152L442.956 307.2C445.048 305.844 446.789 304.013 448.04 301.857C449.291 299.702 450.016 297.281 450.156 294.792V66.2044C450.156 65.9044 450.156 65.5924 450.156 65.3164C450.142 65.0925 450.102 64.871 450.036 64.6564C450.048 64.6341 450.054 64.6094 450.054 64.5844C450.054 64.5593 450.048 64.5346 450.036 64.5124C450.007 64.2941 449.951 64.0804 449.868 63.8764C449.776 63.5527 449.634 63.2452 449.448 62.9644C449.392 62.8266 449.311 62.7004 449.208 62.5924C449.154 62.4945 449.085 62.4055 449.004 62.3284C448.867 62.1549 448.71 61.9979 448.536 61.8604C448.345 61.724 448.14 61.6074 447.924 61.5124C447.411 61.2679 446.849 61.1448 446.28 61.1524L446.124 61.0684Z" fill="#E0E0E0"/>
<path d="M262.175 198.576L425.087 104.508V112.068L262.175 206.124C260.639 207.012 259.391 206.28 259.391 204.516V203.4C259.439 202.433 259.717 201.491 260.201 200.652C260.685 199.813 261.361 199.102 262.175 198.576Z" fill="#E0E0E0"/>
<path d="M438.167 96.9598L428.303 102.648V110.208L438.167 104.508C438.974 103.982 439.647 103.273 440.13 102.439C440.614 101.606 440.895 100.67 440.951 99.7078V98.5918C440.951 96.7918 439.703 96.0718 438.167 96.9598Z" fill="#E0E0E0"/>
<path d="M433.368 105.36C433.173 105.363 432.981 105.308 432.816 105.204C432.574 105.03 432.382 104.796 432.26 104.524C432.138 104.252 432.09 103.953 432.12 103.656C432.13 103.006 432.293 102.368 432.595 101.792C432.897 101.217 433.331 100.721 433.86 100.344C434.057 100.212 434.285 100.135 434.521 100.12C434.757 100.105 434.993 100.153 435.204 100.26C435.445 100.436 435.635 100.671 435.757 100.942C435.879 101.213 435.928 101.512 435.9 101.808C435.894 102.459 435.732 103.098 435.43 103.674C435.127 104.25 434.692 104.745 434.16 105.12C433.922 105.267 433.649 105.35 433.368 105.36ZM434.64 100.704C434.471 100.713 434.307 100.763 434.16 100.848C433.718 101.174 433.357 101.596 433.103 102.083C432.849 102.569 432.71 103.107 432.696 103.656C432.674 103.85 432.7 104.047 432.771 104.229C432.842 104.411 432.956 104.572 433.104 104.7C433.226 104.755 433.361 104.777 433.494 104.762C433.627 104.747 433.753 104.697 433.86 104.616C434.302 104.291 434.664 103.868 434.918 103.382C435.171 102.895 435.31 102.357 435.324 101.808C435.346 101.614 435.321 101.418 435.25 101.236C435.179 101.054 435.064 100.892 434.916 100.764C434.831 100.721 434.736 100.7 434.64 100.704Z" fill="#FAFAFA"/>
<path d="M436.427 104.856C436.368 104.871 436.306 104.871 436.247 104.856L434.963 103.884C434.911 103.828 434.883 103.755 434.883 103.68C434.883 103.604 434.911 103.531 434.963 103.476C434.984 103.445 435.012 103.419 435.044 103.399C435.075 103.379 435.111 103.366 435.148 103.361C435.185 103.355 435.223 103.357 435.259 103.366C435.295 103.376 435.329 103.393 435.359 103.416L436.655 104.388C436.706 104.443 436.735 104.516 436.735 104.592C436.735 104.667 436.706 104.74 436.655 104.796C436.624 104.823 436.587 104.842 436.548 104.853C436.508 104.863 436.467 104.864 436.427 104.856Z" fill="#FAFAFA"/>
<path d="M198.768 203.064C194.82 205.332 191.568 210.9 191.568 218.868V443.904C191.567 444.768 191.794 445.617 192.226 446.365C192.657 447.113 193.279 447.734 194.028 448.165C194.777 448.596 195.626 448.822 196.49 448.82C197.354 448.817 198.202 448.587 198.948 448.152L253.2 416.832V193.464L253.284 171.6L198.768 203.064Z" fill="#F0F0F0"/>
<path d="M252.095 173.604L251.999 193.464V416.172L198.383 447.156C197.815 447.498 197.163 447.677 196.499 447.672C195.501 447.668 194.544 447.27 193.838 446.564C193.132 445.859 192.734 444.902 192.731 443.904V218.868C192.731 210.756 196.139 205.896 199.319 204.06L252.119 173.604H252.095ZM253.319 171.6L198.827 203.064C194.879 205.332 191.627 210.9 191.627 218.868V443.904C191.627 444.55 191.754 445.189 192.001 445.786C192.249 446.383 192.611 446.926 193.068 447.383C193.525 447.839 194.067 448.202 194.664 448.449C195.261 448.696 195.901 448.824 196.547 448.824C197.392 448.815 198.22 448.583 198.947 448.152L253.199 416.832V193.464L253.283 171.6H253.319Z" fill="#E0E0E0"/>
<path d="M213.156 229.692L241.788 213.168C242.796 212.592 243.612 213.06 243.612 214.224V216.624C243.578 217.257 243.395 217.872 243.078 218.421C242.761 218.969 242.319 219.435 241.788 219.78L213.156 236.28C212.148 236.856 211.332 236.388 211.332 235.224V232.824C211.37 232.196 211.554 231.585 211.871 231.041C212.188 230.497 212.628 230.035 213.156 229.692Z" fill="#E0E0E0"/>
<path d="M205.632 236.148V238.548C205.597 239.18 205.414 239.795 205.097 240.344C204.78 240.892 204.338 241.358 203.808 241.704L203.076 242.148C202.068 242.736 201.252 242.256 201.252 241.092V238.692C201.287 238.058 201.47 237.441 201.787 236.891C202.104 236.34 202.545 235.872 203.076 235.524L203.808 235.08C204.816 234.504 205.632 234.984 205.632 236.148Z" fill="#F60846"/>
<path d="M213.156 242.821L241.788 226.297C242.796 225.721 243.612 226.189 243.612 227.353V229.753C243.578 230.386 243.395 231.001 243.078 231.55C242.761 232.098 242.319 232.564 241.788 232.909L213.156 249.433C212.148 250.009 211.332 249.541 211.332 248.377V245.977C211.366 245.344 211.549 244.729 211.866 244.18C212.183 243.632 212.625 243.166 213.156 242.821Z" fill="#E0E0E0"/>
<path d="M205.632 249.276V251.676C205.598 252.309 205.415 252.924 205.098 253.473C204.781 254.021 204.339 254.487 203.808 254.832L203.076 255.276C202.068 255.864 201.252 255.396 201.252 254.232V251.832C201.287 251.198 201.47 250.581 201.787 250.031C202.104 249.481 202.545 249.013 203.076 248.664L203.808 248.22C204.816 247.632 205.632 248.112 205.632 249.276Z" fill="#F60846"/>
<path d="M213.156 255.948L241.788 239.424C242.796 238.848 243.612 239.316 243.612 240.48V242.88C243.578 243.512 243.395 244.128 243.078 244.677C242.761 245.225 242.319 245.691 241.788 246.036L213.156 262.56C212.148 263.136 211.332 262.668 211.332 261.504V259.104C211.366 258.471 211.549 257.856 211.866 257.307C212.183 256.759 212.625 256.293 213.156 255.948Z" fill="#E0E0E0"/>
<path d="M205.632 262.404V264.804C205.598 265.436 205.415 266.052 205.098 266.6C204.781 267.149 204.339 267.615 203.808 267.96L203.076 268.404C202.068 268.992 201.252 268.524 201.252 267.36V264.96C201.287 264.326 201.47 263.709 201.787 263.159C202.104 262.608 202.545 262.14 203.076 261.792L203.808 261.348C204.816 260.772 205.632 261.24 205.632 262.404Z" fill="#F60846"/>
<path d="M213.156 299.485L241.788 282.961C242.796 282.385 243.612 282.853 243.612 284.017V286.417C243.578 287.05 243.395 287.665 243.078 288.214C242.761 288.762 242.319 289.228 241.788 289.573L213.156 306.097C212.148 306.673 211.332 306.205 211.332 305.041V302.641C211.366 302.008 211.549 301.393 211.866 300.844C212.183 300.296 212.625 299.83 213.156 299.485Z" fill="#E0E0E0"/>
<path d="M205.632 305.999V308.399C205.598 309.032 205.415 309.647 205.098 310.196C204.781 310.744 204.339 311.21 203.808 311.555L203.076 311.999C202.068 312.587 201.252 312.119 201.252 310.955V308.555C201.287 307.921 201.47 307.304 201.787 306.754C202.104 306.204 202.545 305.736 203.076 305.387L203.808 304.943C204.816 304.307 205.632 304.799 205.632 305.999Z" fill="#F60846"/>
<path d="M213.156 311.112L241.788 294.588C242.796 294.012 243.612 294.48 243.612 295.644V298.044C243.578 298.677 243.395 299.292 243.078 299.841C242.761 300.389 242.319 300.855 241.788 301.2L213.156 317.724C212.148 318.3 211.332 317.832 211.332 316.668V314.268C211.366 313.635 211.549 313.02 211.866 312.471C212.183 311.923 212.625 311.457 213.156 311.112Z" fill="#E0E0E0"/>
<path d="M205.632 317.568V319.968C205.598 320.6 205.415 321.216 205.098 321.764C204.781 322.313 204.339 322.779 203.808 323.124L203.076 323.568C202.068 324.156 201.252 323.688 201.252 322.524V320.124C201.287 319.49 201.47 318.873 201.787 318.323C202.104 317.772 202.545 317.304 203.076 316.956L203.808 316.512C204.816 315.936 205.632 316.404 205.632 317.568Z" fill="#F60846"/>
<path d="M213.156 322.8L241.788 306.276C242.796 305.7 243.612 306.167 243.612 307.331V309.731C243.578 310.364 243.395 310.98 243.078 311.528C242.761 312.077 242.319 312.542 241.788 312.887L213.156 329.412C212.148 329.988 211.332 329.52 211.332 328.356V325.956C211.366 325.323 211.549 324.707 211.866 324.159C212.183 323.61 212.625 323.145 213.156 322.8Z" fill="#E0E0E0"/>
<path d="M205.632 329.197V331.597C205.598 332.229 205.415 332.845 205.098 333.393C204.781 333.942 204.339 334.407 203.808 334.753L203.076 335.197C202.068 335.785 201.252 335.317 201.252 334.153V331.753C201.287 331.119 201.47 330.502 201.787 329.951C202.104 329.401 202.545 328.933 203.076 328.585L203.808 328.141C204.816 327.601 205.632 328.033 205.632 329.197Z" fill="#F60846"/>
<path d="M212.664 269.531V273.635L216.216 269.531H212.664Z" fill="#F60846"/>
<path d="M218.4 268.692C218.4 269.448 218.94 269.76 219.6 269.364L242.4 256.236C242.751 256.004 243.043 255.694 243.251 255.329C243.46 254.964 243.579 254.555 243.6 254.136C243.6 253.368 243.06 253.056 242.4 253.44L219.6 266.64C219.255 266.865 218.966 267.167 218.758 267.524C218.549 267.88 218.427 268.28 218.4 268.692Z" fill="#E0E0E0"/>
<path d="M212.664 276.121V280.225L216.216 276.121H212.664Z" fill="#F60846"/>
<path d="M218.4 275.28C218.4 276.036 218.94 276.336 219.6 275.952L242.4 262.8C242.751 262.569 243.043 262.258 243.251 261.893C243.46 261.529 243.579 261.12 243.6 260.7C243.6 259.932 243.06 259.62 242.4 260.004L219.6 273.204C219.251 273.432 218.961 273.738 218.752 274.099C218.544 274.46 218.423 274.864 218.4 275.28Z" fill="#E0E0E0"/>
<path d="M212.664 282.709V286.801L216.216 282.709H212.664Z" fill="#F60846"/>
<path d="M218.4 281.867C218.4 282.623 218.94 282.923 219.6 282.539L242.4 269.412C242.75 269.179 243.04 268.868 243.249 268.503C243.457 268.139 243.577 267.731 243.6 267.312C243.6 266.544 243.06 266.232 242.4 266.616L219.6 279.815C219.255 280.041 218.966 280.343 218.758 280.7C218.549 281.056 218.427 281.456 218.4 281.867Z" fill="#E0E0E0"/>
<path d="M212.664 289.297V293.389L216.216 289.297H212.664Z" fill="#F60846"/>
<path d="M218.4 288.455C218.4 289.211 218.94 289.511 219.6 289.127L242.4 275.999C242.75 275.767 243.04 275.456 243.249 275.091C243.457 274.727 243.577 274.319 243.6 273.899C243.6 273.131 243.06 272.819 242.4 273.203L219.6 286.403C219.253 286.627 218.964 286.929 218.755 287.286C218.547 287.642 218.425 288.043 218.4 288.455Z" fill="#E0E0E0"/>
<path d="M447.768 61.4643C446.978 61.1682 446.128 61.0692 445.292 61.1759C444.455 61.2825 443.658 61.5916 442.968 62.0763L198.768 203.064C196.677 204.418 194.935 206.246 193.684 208.4C192.433 210.554 191.708 212.973 191.568 215.46V229.344L182.436 223.98V210.264C182.572 207.784 183.293 205.371 184.537 203.221C185.782 201.071 187.517 199.246 189.6 197.892L433.812 56.9043C435.852 55.7043 437.688 55.7043 439.008 56.4843C440.328 57.2643 446.244 60.6603 447.768 61.4643Z" fill="#F60846"/>
<path d="M450.096 66.1557C450.096 61.6437 446.88 59.8077 442.896 62.0877L198.768 203.064C196.676 204.416 194.933 206.244 193.682 208.398C192.431 210.553 191.707 212.972 191.568 215.46V229.356L450.096 80.1357V66.1557Z" fill="#F60846"/>
<g opacity="0.2">
<path opacity="0.2" d="M442.943 62.0767L198.767 203.065C196.669 204.383 194.936 206.207 193.727 208.369L184.643 203.113C185.821 200.975 187.527 199.174 189.599 197.881L433.811 56.9047C434.554 56.3646 435.432 56.0388 436.348 55.9626C437.264 55.8864 438.184 56.0629 439.007 56.4727C440.291 57.2647 446.207 60.6367 447.743 61.4527C446.952 61.1573 446.102 61.0598 445.265 61.1686C444.428 61.2773 443.631 61.5891 442.943 62.0767Z" fill="white"/>
</g>
<path opacity="0.15" d="M182.459 224.016V210.264C182.55 207.716 183.303 205.234 184.643 203.064L193.751 208.308C192.431 210.449 191.694 212.899 191.615 215.412V229.308L182.459 224.016Z" fill="black"/>
<path d="M421.896 80.8555C420.396 81.7195 419.172 84.2995 419.172 86.6155C419.172 88.9315 420.372 90.0955 421.896 89.2315C423.42 88.3675 424.608 85.7875 424.608 83.4715C424.608 81.1555 423.396 79.9915 421.896 80.8555Z" fill="white"/>
<path d="M431.687 75.1914C430.175 76.0554 428.963 78.6354 428.963 80.9514C428.963 83.2674 430.163 84.4314 431.687 83.5674C433.211 82.7034 434.399 80.1234 434.399 77.8074C434.399 75.4914 433.199 74.3274 431.687 75.1914Z" fill="white"/>
<path d="M441.468 69.5293C439.968 70.4053 438.756 72.9733 438.756 75.2893C438.756 77.6053 439.956 78.7693 441.468 77.9053C442.98 77.0413 444.192 74.4613 444.192 72.1453C444.192 69.8293 442.98 68.6653 441.468 69.5293Z" fill="white"/>
<path d="M193.799 448.02L186.263 443.664C185.257 443.084 184.398 442.282 183.749 441.319C183.1 440.356 182.679 439.258 182.519 438.108C182.501 437.764 182.501 437.42 182.519 437.076V223.992L191.663 229.344V443.904C191.664 444.161 191.684 444.418 191.723 444.672C191.742 444.811 191.774 444.947 191.819 445.08C191.807 445.14 191.807 445.201 191.819 445.26C191.858 445.412 191.911 445.561 191.975 445.704C191.974 445.724 191.974 445.744 191.975 445.764L192.227 446.292C192.323 446.46 192.443 446.628 192.551 446.784C192.636 446.905 192.728 447.021 192.827 447.132C193.207 447.569 193.663 447.935 194.171 448.212L193.799 448.02Z" fill="#E0E0E0"/>
<path d="M272.904 538.439C271.441 538.473 269.995 538.13 268.704 537.443L217.2 507.719L219.804 506.207L216.12 502.943C215.987 502.824 215.886 502.674 215.823 502.507C215.76 502.34 215.739 502.16 215.76 501.983C215.789 501.791 215.864 501.609 215.979 501.452C216.094 501.295 216.245 501.169 216.42 501.083L239.436 487.787C240.063 487.466 240.792 487.406 241.464 487.619L247.308 489.815C247.472 489.87 247.646 489.892 247.819 489.88C247.992 489.867 248.161 489.821 248.316 489.743L291.84 464.615L292.14 464.795L342.672 493.967C343.165 494.251 343.574 494.66 343.856 495.153C344.139 495.647 344.285 496.207 344.28 496.775C344.284 497.344 344.136 497.903 343.851 498.394C343.566 498.886 343.155 499.292 342.66 499.571L277.092 537.443C275.803 538.125 274.362 538.468 272.904 538.439ZM219.6 507.719L269.28 536.399C270.399 536.954 271.631 537.243 272.88 537.243C274.129 537.243 275.361 536.954 276.48 536.399L342.06 498.527C342.369 498.349 342.626 498.093 342.804 497.785C342.983 497.476 343.077 497.126 343.077 496.769C343.077 496.413 342.983 496.062 342.804 495.754C342.626 495.445 342.369 495.189 342.06 495.011L291.84 466.019L248.94 490.799C248.633 490.964 248.296 491.063 247.949 491.092C247.602 491.121 247.253 491.079 246.924 490.967L241.068 488.771C240.902 488.718 240.728 488.698 240.555 488.713C240.382 488.727 240.214 488.776 240.06 488.855L217.032 502.139L220.728 505.403C220.859 505.523 220.961 505.673 221.023 505.84C221.086 506.007 221.108 506.186 221.088 506.363C221.054 506.554 220.977 506.734 220.863 506.89C220.748 507.046 220.6 507.174 220.428 507.263L219.6 507.719Z" fill="#E0E0E0"/>
<path d="M302.399 538.463C300.935 538.485 299.49 538.134 298.199 537.443L246.659 507.719L249.275 506.207L245.579 502.943C245.446 502.824 245.345 502.674 245.282 502.507C245.219 502.34 245.198 502.16 245.219 501.983C245.252 501.793 245.329 501.612 245.444 501.456C245.558 501.3 245.707 501.173 245.879 501.083L268.907 487.787C269.53 487.467 270.255 487.407 270.923 487.619L276.767 489.815C277.103 489.925 277.469 489.899 277.787 489.743L321.299 464.615L321.611 464.795L360.323 487.199L359.723 488.243L321.323 466.067L278.399 490.799C278.092 490.964 277.755 491.063 277.408 491.092C277.061 491.121 276.712 491.079 276.383 490.967L270.539 488.771C270.201 488.665 269.835 488.695 269.519 488.855L246.503 502.139L250.187 505.415C250.319 505.532 250.421 505.68 250.483 505.845C250.546 506.01 250.568 506.188 250.547 506.363C250.518 506.556 250.443 506.738 250.328 506.895C250.213 507.051 250.061 507.178 249.887 507.263L249.095 507.731L298.799 536.399C299.918 536.954 301.15 537.243 302.399 537.243C303.648 537.243 304.88 536.954 305.999 536.399L360.287 505.043L360.887 506.099L306.599 537.443C305.308 538.134 303.863 538.485 302.399 538.463Z" fill="#F60846"/>
<path d="M373.415 508.8C368.294 508.904 363.231 507.702 358.703 505.308C354.635 502.908 352.427 499.788 352.475 496.392C352.523 492.996 354.779 489.948 358.787 487.632C366.911 482.94 380.135 482.94 388.259 487.632C392.315 489.972 394.535 493.116 394.523 496.476C394.511 499.836 392.255 502.98 388.187 505.308C383.636 507.697 378.555 508.899 373.415 508.8ZM359.315 504.252C367.067 508.728 379.715 508.728 387.587 504.252C391.259 502.152 393.299 499.392 393.311 496.476C393.323 493.56 391.319 490.788 387.659 488.676C379.859 484.176 367.187 484.176 359.387 488.676C355.787 490.776 353.735 493.476 353.687 496.416C353.639 499.356 355.643 502.14 359.315 504.252Z" fill="#F60846"/>
<path d="M380.208 501.6C379.998 501.601 379.791 501.547 379.608 501.444L366.192 493.691C366.055 493.613 365.935 493.508 365.838 493.382C365.742 493.257 365.671 493.114 365.63 492.961C365.588 492.809 365.578 492.649 365.598 492.493C365.618 492.336 365.669 492.185 365.748 492.047C365.827 491.91 365.932 491.79 366.057 491.694C366.182 491.597 366.325 491.526 366.478 491.485C366.631 491.444 366.79 491.433 366.947 491.453C367.104 491.474 367.255 491.525 367.392 491.604L380.82 499.344C380.958 499.423 381.079 499.529 381.176 499.656C381.272 499.782 381.343 499.927 381.383 500.081C381.423 500.235 381.433 500.396 381.41 500.553C381.387 500.711 381.334 500.863 381.252 501C381.146 501.183 380.994 501.335 380.811 501.44C380.627 501.545 380.42 501.6 380.208 501.6Z" fill="#F60846"/>
<path d="M366.791 501.6C366.522 501.607 366.257 501.523 366.041 501.361C365.825 501.199 365.67 500.97 365.601 500.709C365.532 500.448 365.552 500.172 365.659 499.924C365.766 499.676 365.954 499.472 366.191 499.344L379.607 491.604C379.744 491.524 379.894 491.472 380.051 491.451C380.207 491.429 380.366 491.439 380.519 491.479C380.672 491.519 380.815 491.589 380.941 491.684C381.066 491.78 381.172 491.9 381.251 492.036C381.333 492.173 381.387 492.324 381.409 492.482C381.432 492.64 381.423 492.801 381.382 492.955C381.342 493.109 381.272 493.253 381.175 493.38C381.078 493.507 380.957 493.613 380.819 493.692L367.391 501.444C367.208 501.548 367.002 501.602 366.791 501.6Z" fill="#F60846"/>
<path d="M195.48 172.091C196.68 172.847 202.38 176.087 203.808 176.819C203.051 176.543 202.238 176.455 201.439 176.564C200.64 176.673 199.88 176.974 199.224 177.443L103.956 232.475C101.981 233.773 100.339 235.519 99.1652 237.571C97.9913 239.623 97.3181 241.923 97.2003 244.283V352.715C97.151 354.676 97.8752 356.577 99.2163 358.007C99.3758 358.157 99.5441 358.298 99.7203 358.427C94.2843 354.563 88.5963 354.623 88.4883 347.759V239.327C88.6213 236.963 89.3072 234.663 90.4911 232.612C91.6749 230.561 93.3235 228.817 95.3043 227.519L190.572 172.487C191.284 171.997 192.112 171.703 192.973 171.633C193.835 171.564 194.699 171.722 195.48 172.091Z" fill="#263238"/>
<path d="M202.261 176.508C201.182 176.546 200.132 176.865 199.213 177.432L103.957 232.464C101.986 233.766 100.347 235.513 99.1737 237.564C98.0002 239.615 97.3246 241.912 97.2012 244.272V352.704C97.2012 356.136 99.1092 359.064 101.773 359.064C102.569 359.041 103.346 358.814 104.029 358.404L199.405 303.336C201.371 302.044 203.006 300.31 204.179 298.271C205.353 296.233 206.031 293.948 206.161 291.6L206.029 181.428C206.029 178.344 204.493 176.628 202.261 176.628V176.508Z" fill="#37474F"/>
<path d="M199.2 177.432L103.968 232.464C101.965 233.719 100.313 235.461 99.1679 237.528L90.5039 232.512C91.6496 230.468 93.3027 228.752 95.3039 227.532L190.572 172.5C191.281 171.988 192.116 171.68 192.987 171.608C193.858 171.536 194.733 171.704 195.516 172.092C196.716 172.848 202.404 176.064 203.832 176.892C203.075 176.592 202.256 176.484 201.448 176.579C200.639 176.673 199.867 176.966 199.2 177.432Z" fill="#455A64"/>
<path d="M127.668 239.316V304.116C127.668 307.08 129.744 308.28 132.312 306.804L188.424 274.404C189.772 273.527 190.895 272.346 191.704 270.956C192.512 269.566 192.984 268.006 193.08 266.4V201.6C193.08 198.636 191.004 197.436 188.436 198.912L132.324 231.312C130.975 232.189 129.852 233.37 129.043 234.76C128.234 236.15 127.763 237.711 127.668 239.316Z" fill="#F60846"/>
<path opacity="0.3" d="M167.28 228.288C167.28 225.324 165.192 224.124 162.624 225.6L127.668 245.784V304.104C127.668 307.068 129.744 308.268 132.312 306.792L167.268 286.608L167.28 228.288Z" fill="black"/>
<path d="M110.232 269.521V334.321C110.232 337.285 112.308 338.485 114.876 337.009L170.988 304.609C172.342 303.727 173.468 302.538 174.275 301.139C175.082 299.74 175.547 298.17 175.632 296.557V231.757C175.632 228.793 173.556 227.593 170.988 229.069L114.876 261.469C113.525 262.352 112.4 263.541 111.593 264.94C110.786 266.339 110.32 267.908 110.232 269.521Z" fill="#F60846"/>
<path opacity="0.3" d="M110.232 269.521V334.321C110.232 337.285 112.308 338.485 114.876 337.009L170.988 304.609C172.342 303.727 173.468 302.538 174.275 301.139C175.082 299.74 175.547 298.17 175.632 296.557V231.757C175.632 228.793 173.556 227.593 170.988 229.069L114.876 261.469C113.525 262.352 112.4 263.541 111.593 264.94C110.786 266.339 110.32 267.908 110.232 269.521Z" fill="white"/>
<path d="M162.552 277.884V271.332C162.552 270.132 161.724 269.664 160.704 270.264L149.472 276.744V263.784C149.472 262.584 148.644 262.116 147.612 262.704L141.948 265.98C141.407 266.332 140.956 266.807 140.633 267.366C140.31 267.924 140.123 268.552 140.088 269.196V282.156L128.868 288.636C128.326 288.987 127.875 289.462 127.552 290.021C127.229 290.58 127.042 291.207 127.008 291.852V298.404C127.008 299.604 127.836 300.06 128.868 299.472L140.088 292.992V306C140.088 307.2 140.928 307.668 141.948 307.068L147.612 303.804C148.154 303.45 148.605 302.974 148.928 302.413C149.251 301.852 149.437 301.223 149.472 300.576V287.58L160.704 281.1C161.241 280.745 161.687 280.269 162.008 279.711C162.329 279.152 162.515 278.527 162.552 277.884Z" fill="white"/>
<path d="M237.036 319.931L230.4 316.104V384.48L237.036 388.296L249.888 361.32L268.176 350.772L237.036 319.931Z" fill="#E0E0E0"/>
<path d="M237.036 388.872C236.932 388.872 236.829 388.848 236.736 388.8L230.112 384.972C230.026 384.922 229.954 384.85 229.903 384.764C229.853 384.678 229.825 384.58 229.824 384.48V316.08C229.827 315.979 229.854 315.88 229.905 315.792C229.955 315.704 230.026 315.63 230.112 315.576C230.203 315.529 230.304 315.504 230.406 315.504C230.509 315.504 230.609 315.529 230.7 315.576L237.324 319.404L237.432 319.488L268.572 350.4C268.636 350.464 268.684 350.541 268.714 350.626C268.743 350.712 268.752 350.803 268.74 350.892C268.731 350.979 268.701 351.062 268.653 351.135C268.605 351.208 268.54 351.269 268.464 351.312L250.332 361.776L237.6 388.548C237.566 388.619 237.517 388.683 237.457 388.734C237.398 388.786 237.328 388.825 237.252 388.848C237.183 388.874 237.109 388.882 237.036 388.872ZM231.036 384.144L236.82 387.492L249.42 361.092C249.469 360.987 249.549 360.899 249.648 360.84L267.276 350.664L236.676 320.4L230.988 317.112L231.036 384.144Z" fill="#455A64"/>
<path d="M237.035 319.932V388.296L249.887 361.32L268.175 350.772L237.035 319.932Z" fill="#FAFAFA"/>
<path d="M237.035 388.872H236.903C236.774 388.844 236.659 388.773 236.576 388.671C236.493 388.568 236.447 388.44 236.447 388.308V319.908C236.445 319.793 236.477 319.679 236.539 319.583C236.601 319.486 236.691 319.41 236.797 319.365C236.903 319.319 237.02 319.307 237.133 319.329C237.246 319.351 237.35 319.406 237.431 319.488L268.571 350.4C268.635 350.464 268.684 350.541 268.713 350.626C268.742 350.712 268.751 350.803 268.739 350.892C268.73 350.979 268.7 351.062 268.652 351.135C268.604 351.208 268.539 351.269 268.463 351.312L250.331 361.776L237.599 388.548C237.55 388.654 237.47 388.741 237.369 388.799C237.268 388.857 237.151 388.883 237.035 388.872ZM237.611 321.312V385.74L249.371 361.068C249.42 360.963 249.5 360.875 249.599 360.816L267.227 350.64L237.611 321.312Z" fill="#455A64"/>
<path d="M218.147 315.984L211.523 312.156V380.532L218.147 384.348L231.011 357.372L249.287 346.812L218.147 315.984Z" fill="#263238"/>
<path d="M218.146 315.984V384.348L231.01 357.372L249.287 346.812L218.146 315.984Z" fill="#455A64"/>
<path d="M362.398 333.085C362.304 333.085 362.212 333.059 362.132 333.011C362.052 332.962 361.986 332.892 361.942 332.809C361.872 332.686 361.853 332.541 361.889 332.404C361.925 332.267 362.013 332.15 362.134 332.077L364.918 330.469C365.043 330.398 365.19 330.378 365.328 330.415C365.467 330.453 365.585 330.543 365.656 330.667C365.728 330.791 365.747 330.939 365.71 331.077C365.673 331.216 365.583 331.334 365.458 331.405L362.674 333.013C362.59 333.061 362.495 333.086 362.398 333.085ZM358.534 332.113C358.464 332.115 358.394 332.102 358.329 332.077C358.263 332.051 358.204 332.012 358.153 331.963C358.103 331.914 358.063 331.855 358.036 331.79C358.008 331.725 357.994 331.656 357.994 331.585C357.989 331.557 357.989 331.529 357.994 331.501V328.333C357.994 328.19 358.051 328.053 358.153 327.951C358.254 327.85 358.391 327.793 358.534 327.793C358.678 327.793 358.815 327.85 358.916 327.951C359.018 328.053 359.074 328.19 359.074 328.333V331.561C359.074 331.708 359.016 331.848 358.913 331.952C358.809 332.055 358.669 332.113 358.522 332.113H358.534ZM369.838 328.789C369.719 328.794 369.601 328.758 369.504 328.686C369.408 328.615 369.338 328.513 369.308 328.397C369.277 328.281 369.287 328.158 369.335 328.048C369.384 327.939 369.468 327.849 369.574 327.793L372.358 326.185C372.419 326.149 372.486 326.125 372.556 326.115C372.626 326.105 372.697 326.109 372.765 326.127C372.833 326.145 372.897 326.176 372.953 326.219C373.009 326.262 373.056 326.316 373.09 326.377C373.161 326.5 373.18 326.646 373.144 326.783C373.108 326.919 373.02 327.037 372.898 327.109L370.102 328.717C370.02 328.769 369.924 328.798 369.826 328.801L369.838 328.789ZM377.266 324.505C377.172 324.505 377.08 324.479 377 324.431C376.92 324.382 376.854 324.312 376.81 324.229C376.74 324.106 376.721 323.961 376.757 323.824C376.793 323.687 376.881 323.57 377.002 323.497L379.798 321.889C379.86 321.846 379.93 321.816 380.004 321.801C380.078 321.787 380.154 321.788 380.228 321.804C380.302 321.821 380.371 321.853 380.431 321.898C380.492 321.943 380.542 322 380.579 322.066C380.617 322.131 380.639 322.204 380.647 322.279C380.654 322.354 380.645 322.43 380.621 322.502C380.598 322.573 380.559 322.639 380.508 322.695C380.457 322.75 380.395 322.795 380.326 322.825L377.542 324.433C377.455 324.483 377.355 324.508 377.254 324.505H377.266ZM358.534 323.509C358.391 323.509 358.254 323.452 358.153 323.351C358.051 323.25 357.994 323.113 357.994 322.969V319.753C357.994 319.61 358.051 319.473 358.153 319.371C358.254 319.27 358.391 319.213 358.534 319.213C358.678 319.213 358.815 319.27 358.916 319.371C359.018 319.473 359.074 319.61 359.074 319.753V322.969C359.074 323.041 359.06 323.112 359.032 323.179C359.004 323.245 358.963 323.305 358.912 323.355C358.861 323.406 358.8 323.445 358.733 323.472C358.666 323.498 358.594 323.511 358.522 323.509H358.534ZM384.706 320.209C384.613 320.208 384.521 320.183 384.439 320.137C384.357 320.09 384.288 320.025 384.238 319.945C384.169 319.821 384.152 319.674 384.19 319.537C384.228 319.4 384.319 319.284 384.442 319.213L387.226 317.605C387.347 317.555 387.482 317.55 387.606 317.592C387.73 317.633 387.834 317.719 387.9 317.831C387.966 317.944 387.989 318.077 387.964 318.205C387.94 318.334 387.869 318.449 387.766 318.529L384.97 320.137C384.887 320.187 384.791 320.212 384.694 320.209H384.706ZM392.146 315.925C392.05 315.927 391.956 315.903 391.873 315.854C391.79 315.805 391.723 315.734 391.678 315.649C391.608 315.526 391.589 315.381 391.625 315.244C391.661 315.107 391.749 314.99 391.87 314.917L394.666 313.309C394.728 313.266 394.798 313.236 394.872 313.221C394.946 313.207 395.022 313.208 395.096 313.224C395.17 313.241 395.239 313.273 395.299 313.318C395.36 313.363 395.41 313.42 395.447 313.486C395.485 313.551 395.507 313.624 395.515 313.699C395.522 313.774 395.513 313.85 395.489 313.922C395.466 313.993 395.427 314.059 395.376 314.115C395.325 314.17 395.263 314.215 395.194 314.245L392.398 315.853C392.318 315.899 392.227 315.924 392.134 315.925H392.146ZM358.546 314.929C358.403 314.929 358.266 314.872 358.165 314.771C358.063 314.67 358.006 314.532 358.006 314.389V311.173C358.006 311.03 358.063 310.893 358.165 310.791C358.266 310.69 358.403 310.633 358.546 310.633C358.69 310.633 358.827 310.69 358.928 310.791C359.03 310.893 359.086 311.03 359.086 311.173V314.401C359.085 314.473 359.069 314.544 359.04 314.61C359.01 314.676 358.968 314.735 358.916 314.784C358.863 314.833 358.801 314.871 358.734 314.896C358.666 314.921 358.594 314.932 358.522 314.929H358.546ZM399.586 311.629C399.472 311.624 399.361 311.582 399.272 311.51C399.182 311.438 399.118 311.339 399.089 311.228C399.059 311.117 399.066 310.999 399.108 310.892C399.15 310.785 399.225 310.695 399.322 310.633L402.106 309.025C402.168 308.989 402.236 308.964 402.307 308.954C402.377 308.944 402.449 308.948 402.519 308.966C402.588 308.984 402.653 309.015 402.71 309.058C402.767 309.101 402.814 309.155 402.85 309.217C402.92 309.342 402.937 309.488 402.899 309.625C402.861 309.762 402.77 309.879 402.646 309.949L399.862 311.557C399.782 311.603 399.691 311.628 399.598 311.629H399.586ZM407.026 307.345C406.931 307.344 406.838 307.317 406.756 307.269C406.674 307.22 406.606 307.152 406.558 307.069C406.489 306.945 406.472 306.798 406.51 306.661C406.548 306.524 406.639 306.408 406.762 306.337L409.546 304.729C409.671 304.66 409.817 304.643 409.954 304.681C410.091 304.719 410.208 304.81 410.278 304.933C410.349 305.056 410.368 305.202 410.332 305.339C410.296 305.475 410.208 305.593 410.086 305.665L407.29 307.273C407.204 307.325 407.103 307.35 407.002 307.345H407.026ZM358.546 306.337C358.403 306.337 358.266 306.28 358.165 306.179C358.063 306.078 358.006 305.94 358.006 305.797V302.581C358.006 302.51 358.02 302.44 358.048 302.375C358.075 302.309 358.114 302.25 358.165 302.199C358.215 302.149 358.274 302.11 358.34 302.082C358.405 302.055 358.476 302.041 358.546 302.041C358.617 302.041 358.688 302.055 358.753 302.082C358.819 302.11 358.878 302.149 358.928 302.199C358.978 302.25 359.018 302.309 359.045 302.375C359.072 302.44 359.086 302.51 359.086 302.581V305.797C359.086 305.87 359.072 305.942 359.043 306.01C359.015 306.077 358.973 306.137 358.92 306.188C358.867 306.238 358.805 306.278 358.736 306.303C358.668 306.329 358.595 306.341 358.522 306.337H358.546ZM414.466 303.049C414.372 303.051 414.279 303.028 414.196 302.981C414.114 302.935 414.046 302.867 413.998 302.785C413.928 302.662 413.909 302.517 413.945 302.38C413.981 302.243 414.069 302.126 414.19 302.053L416.986 300.445C417.046 300.407 417.114 300.382 417.184 300.371C417.254 300.36 417.326 300.363 417.394 300.382C417.463 300.4 417.527 300.432 417.583 300.476C417.639 300.52 417.685 300.575 417.718 300.637C417.788 300.762 417.805 300.908 417.767 301.045C417.729 301.182 417.638 301.299 417.514 301.369L414.73 302.977C414.643 303.027 414.543 303.052 414.442 303.049H414.466ZM421.894 298.765C421.8 298.765 421.708 298.739 421.628 298.691C421.548 298.642 421.482 298.572 421.438 298.489C421.402 298.429 421.378 298.362 421.368 298.292C421.358 298.222 421.362 298.151 421.38 298.083C421.398 298.015 421.429 297.951 421.472 297.895C421.515 297.839 421.569 297.792 421.63 297.757L424.414 296.149C424.539 296.078 424.686 296.058 424.824 296.095C424.963 296.133 425.081 296.223 425.152 296.347C425.224 296.471 425.243 296.619 425.206 296.757C425.169 296.896 425.079 297.014 424.954 297.085L422.17 298.693C422.083 298.758 421.979 298.796 421.87 298.801L421.894 298.765ZM358.546 297.757C358.403 297.757 358.266 297.7 358.165 297.599C358.063 297.498 358.006 297.36 358.006 297.217V294.001C358.006 293.858 358.063 293.721 358.165 293.619C358.266 293.518 358.403 293.461 358.546 293.461C358.69 293.461 358.827 293.518 358.928 293.619C359.03 293.721 359.086 293.858 359.086 294.001V297.217C359.086 297.29 359.072 297.362 359.043 297.43C359.015 297.497 358.973 297.557 358.92 297.608C358.867 297.658 358.805 297.698 358.736 297.723C358.668 297.749 358.595 297.761 358.522 297.757H358.546ZM428.674 293.713C428.592 293.735 428.505 293.735 428.422 293.713C428.36 293.682 428.304 293.638 428.258 293.584C428.213 293.53 428.178 293.468 428.157 293.401C428.136 293.334 428.128 293.264 428.134 293.193C428.141 293.123 428.161 293.055 428.194 292.993C428.562 292.309 428.767 291.549 428.794 290.773V290.125C428.814 289.997 428.878 289.881 428.976 289.796C429.074 289.712 429.199 289.666 429.328 289.666C429.458 289.666 429.583 289.712 429.681 289.796C429.779 289.881 429.843 289.997 429.862 290.125V290.773C429.84 291.721 429.593 292.651 429.142 293.485C429.09 293.565 429.016 293.629 428.929 293.669C428.842 293.709 428.745 293.725 428.65 293.713H428.674ZM358.522 289.201C358.381 289.201 358.246 289.146 358.145 289.047C358.044 288.949 357.986 288.814 357.982 288.673V285.445C357.982 285.302 358.039 285.165 358.141 285.063C358.242 284.962 358.379 284.905 358.522 284.905C358.666 284.905 358.803 284.962 358.904 285.063C359.006 285.165 359.062 285.302 359.062 285.445V288.673C359.059 288.814 359.001 288.949 358.9 289.047C358.799 289.146 358.664 289.201 358.522 289.201ZM429.322 285.277C429.179 285.277 429.042 285.22 428.941 285.119C428.839 285.018 428.782 284.88 428.782 284.737V281.521C428.771 281.444 428.776 281.366 428.798 281.291C428.819 281.217 428.856 281.148 428.907 281.089C428.958 281.03 429.021 280.983 429.091 280.95C429.162 280.918 429.239 280.901 429.316 280.901C429.394 280.901 429.471 280.918 429.542 280.95C429.612 280.983 429.675 281.03 429.726 281.089C429.776 281.148 429.814 281.217 429.835 281.291C429.857 281.366 429.862 281.444 429.85 281.521V284.737C429.841 284.874 429.78 285.002 429.68 285.096C429.58 285.19 429.448 285.242 429.31 285.241L429.322 285.277ZM358.522 280.621C358.379 280.621 358.242 280.564 358.141 280.463C358.039 280.362 357.982 280.224 357.982 280.081V276.865C357.982 276.722 358.039 276.585 358.141 276.483C358.242 276.382 358.379 276.325 358.522 276.325C358.666 276.325 358.803 276.382 358.904 276.483C359.006 276.585 359.062 276.722 359.062 276.865V280.081C359.053 280.218 358.992 280.346 358.892 280.44C358.792 280.534 358.66 280.586 358.522 280.585V280.621ZM429.322 276.685C429.182 276.685 429.048 276.63 428.949 276.531C428.85 276.432 428.794 276.297 428.794 276.157V272.929C428.814 272.801 428.878 272.685 428.976 272.6C429.074 272.516 429.199 272.47 429.328 272.47C429.458 272.47 429.583 272.516 429.681 272.6C429.779 272.685 429.843 272.801 429.862 272.929V276.157C429.85 276.296 429.785 276.425 429.679 276.517C429.574 276.609 429.438 276.656 429.298 276.649L429.322 276.685ZM358.522 272.041C358.379 272.041 358.242 271.984 358.141 271.883C358.039 271.782 357.982 271.644 357.982 271.501V268.285C357.982 268.142 358.039 268.005 358.141 267.903C358.242 267.802 358.379 267.745 358.522 267.745C358.666 267.745 358.803 267.802 358.904 267.903C359.006 268.005 359.062 268.142 359.062 268.285V271.501C359.053 271.638 358.992 271.766 358.892 271.86C358.792 271.954 358.66 272.006 358.522 272.005V272.041ZM429.322 268.105C429.181 268.102 429.047 268.044 428.948 267.943C428.85 267.842 428.794 267.706 428.794 267.565V264.349C428.783 264.272 428.788 264.194 428.81 264.119C428.831 264.045 428.868 263.976 428.919 263.917C428.97 263.858 429.033 263.811 429.103 263.778C429.174 263.746 429.251 263.729 429.328 263.729C429.406 263.729 429.483 263.746 429.554 263.778C429.624 263.811 429.687 263.858 429.738 263.917C429.788 263.976 429.826 264.045 429.847 264.119C429.869 264.194 429.874 264.272 429.862 264.349V267.565C429.853 267.706 429.789 267.838 429.683 267.933C429.578 268.027 429.44 268.076 429.298 268.069L429.322 268.105ZM358.522 263.449C358.379 263.449 358.242 263.392 358.141 263.291C358.039 263.19 357.982 263.052 357.982 262.909V259.693C357.982 259.55 358.039 259.413 358.141 259.311C358.242 259.21 358.379 259.153 358.522 259.153C358.666 259.153 358.803 259.21 358.904 259.311C359.006 259.413 359.062 259.55 359.062 259.693V262.909C359.053 263.046 358.992 263.174 358.892 263.268C358.792 263.362 358.66 263.414 358.522 263.413V263.449ZM429.322 259.525C429.181 259.522 429.047 259.464 428.948 259.363C428.85 259.262 428.794 259.126 428.794 258.985V255.769C428.783 255.692 428.788 255.614 428.81 255.539C428.831 255.465 428.868 255.396 428.919 255.337C428.97 255.278 429.033 255.231 429.103 255.198C429.174 255.166 429.251 255.149 429.328 255.149C429.406 255.149 429.483 255.166 429.554 255.198C429.624 255.231 429.687 255.278 429.738 255.337C429.788 255.396 429.826 255.465 429.847 255.539C429.869 255.614 429.874 255.692 429.862 255.769V258.985C429.853 259.126 429.789 259.258 429.683 259.353C429.578 259.447 429.44 259.496 429.298 259.489L429.322 259.525ZM358.522 254.869C358.379 254.869 358.242 254.812 358.141 254.711C358.039 254.61 357.982 254.472 357.982 254.329V251.113C357.982 250.97 358.039 250.833 358.141 250.731C358.242 250.63 358.379 250.573 358.522 250.573C358.666 250.573 358.803 250.63 358.904 250.731C359.006 250.833 359.062 250.97 359.062 251.113V254.329C359.053 254.466 358.992 254.594 358.892 254.688C358.792 254.782 358.66 254.834 358.522 254.833V254.869ZM429.322 250.933C429.181 250.933 429.046 250.878 428.945 250.779C428.844 250.681 428.786 250.546 428.782 250.405V247.201C428.782 247.058 428.839 246.921 428.941 246.819C429.042 246.718 429.179 246.661 429.322 246.661C429.466 246.661 429.603 246.718 429.704 246.819C429.806 246.921 429.862 247.058 429.862 247.201V250.429C429.844 250.564 429.776 250.687 429.672 250.774C429.567 250.86 429.434 250.905 429.298 250.897L429.322 250.933ZM358.522 246.277C358.381 246.277 358.246 246.222 358.145 246.123C358.044 246.025 357.986 245.89 357.982 245.749V242.521C357.982 242.378 358.039 242.241 358.141 242.139C358.242 242.038 358.379 241.981 358.522 241.981C358.666 241.981 358.803 242.038 358.904 242.139C359.006 242.241 359.062 242.378 359.062 242.521V245.749C359.05 245.884 358.988 246.009 358.888 246.1C358.788 246.192 358.658 246.242 358.522 246.241V246.277ZM429.322 242.353C429.179 242.353 429.042 242.296 428.941 242.195C428.839 242.094 428.782 241.956 428.782 241.813V238.561C428.782 238.418 428.839 238.281 428.941 238.179C429.042 238.078 429.179 238.021 429.322 238.021C429.466 238.021 429.603 238.078 429.704 238.179C429.806 238.281 429.862 238.418 429.862 238.561V241.777C429.862 241.85 429.848 241.922 429.819 241.99C429.79 242.057 429.749 242.117 429.696 242.168C429.643 242.218 429.581 242.258 429.512 242.283C429.444 242.309 429.371 242.321 429.298 242.317L429.322 242.353ZM358.522 237.697C358.379 237.697 358.242 237.64 358.141 237.539C358.039 237.438 357.982 237.3 357.982 237.157V233.941C357.982 233.798 358.039 233.661 358.141 233.559C358.242 233.458 358.379 233.401 358.522 233.401C358.666 233.401 358.803 233.458 358.904 233.559C359.006 233.661 359.062 233.798 359.062 233.941V237.157C359.053 237.294 358.992 237.422 358.892 237.516C358.792 237.61 358.66 237.662 358.522 237.661V237.697ZM429.322 233.773C429.179 233.773 429.042 233.716 428.941 233.615C428.839 233.514 428.782 233.376 428.782 233.233V230.017C428.771 229.94 428.776 229.862 428.798 229.787C428.819 229.713 428.856 229.644 428.907 229.585C428.958 229.526 429.021 229.479 429.091 229.446C429.162 229.414 429.239 229.397 429.316 229.397C429.394 229.397 429.471 229.414 429.542 229.446C429.612 229.479 429.675 229.526 429.726 229.585C429.776 229.644 429.814 229.713 429.835 229.787C429.857 229.862 429.862 229.94 429.85 230.017V233.233C429.841 233.372 429.779 233.502 429.676 233.596C429.573 233.69 429.438 233.741 429.298 233.737L429.322 233.773ZM358.522 229.117C358.379 229.117 358.242 229.06 358.141 228.959C358.039 228.858 357.982 228.72 357.982 228.577V225.361C357.982 225.218 358.039 225.081 358.141 224.979C358.242 224.878 358.379 224.821 358.522 224.821C358.666 224.821 358.803 224.878 358.904 224.979C359.006 225.081 359.062 225.218 359.062 225.361V228.577C359.053 228.714 358.992 228.842 358.892 228.936C358.792 229.03 358.66 229.082 358.522 229.081V229.117ZM429.322 225.181C429.179 225.181 429.042 225.124 428.941 225.023C428.839 224.922 428.782 224.784 428.782 224.641V221.425C428.771 221.348 428.776 221.27 428.798 221.195C428.819 221.121 428.856 221.052 428.907 220.993C428.958 220.934 429.021 220.887 429.091 220.854C429.162 220.822 429.239 220.805 429.316 220.805C429.394 220.805 429.471 220.822 429.542 220.854C429.612 220.887 429.675 220.934 429.726 220.993C429.776 221.052 429.814 221.121 429.835 221.195C429.857 221.27 429.862 221.348 429.85 221.425V224.641C429.841 224.78 429.779 224.91 429.676 225.004C429.573 225.098 429.438 225.149 429.298 225.145L429.322 225.181ZM358.522 220.525C358.381 220.525 358.246 220.47 358.145 220.371C358.044 220.273 357.986 220.138 357.982 219.997V216.769C357.982 216.626 358.039 216.489 358.141 216.387C358.242 216.286 358.379 216.229 358.522 216.229C358.666 216.229 358.803 216.286 358.904 216.387C359.006 216.489 359.062 216.626 359.062 216.769V219.997C359.05 220.132 358.988 220.257 358.888 220.348C358.788 220.44 358.658 220.49 358.522 220.489V220.525ZM429.322 216.601C429.179 216.601 429.042 216.544 428.941 216.443C428.839 216.342 428.782 216.204 428.782 216.061V212.845C428.771 212.768 428.776 212.69 428.798 212.615C428.819 212.541 428.856 212.472 428.907 212.413C428.958 212.354 429.021 212.307 429.091 212.274C429.162 212.242 429.239 212.225 429.316 212.225C429.394 212.225 429.471 212.242 429.542 212.274C429.612 212.307 429.675 212.354 429.726 212.413C429.776 212.472 429.814 212.541 429.835 212.615C429.857 212.69 429.862 212.768 429.85 212.845V216.001C429.854 216.075 429.842 216.149 429.815 216.218C429.789 216.287 429.749 216.35 429.697 216.403C429.645 216.456 429.583 216.498 429.514 216.526C429.446 216.553 429.372 216.567 429.298 216.565L429.322 216.601ZM359.782 212.221C359.666 212.22 359.552 212.183 359.458 212.113C359.344 212.027 359.268 211.899 359.248 211.758C359.228 211.616 359.264 211.472 359.35 211.357C359.811 210.72 360.395 210.182 361.066 209.773L362.002 209.233C362.125 209.163 362.271 209.144 362.408 209.18C362.545 209.216 362.662 209.304 362.734 209.425C362.771 209.486 362.795 209.553 362.805 209.623C362.815 209.692 362.811 209.764 362.793 209.832C362.775 209.9 362.744 209.964 362.701 210.02C362.658 210.076 362.604 210.123 362.542 210.157L361.606 210.697C361.061 211.032 360.587 211.473 360.214 211.993C360.159 212.059 360.089 212.111 360.01 212.145C359.93 212.178 359.844 212.192 359.758 212.185L359.782 212.221ZM429.31 208.009C429.17 208.009 429.036 207.954 428.937 207.855C428.838 207.756 428.782 207.621 428.782 207.481V204.253C428.802 204.125 428.866 204.009 428.964 203.924C429.062 203.84 429.187 203.794 429.316 203.794C429.446 203.794 429.571 203.84 429.669 203.924C429.767 204.009 429.831 204.125 429.85 204.253V207.481C429.838 207.62 429.773 207.749 429.667 207.841C429.562 207.933 429.426 207.98 429.286 207.973L429.31 208.009ZM366.91 207.553C366.814 207.555 366.72 207.531 366.637 207.482C366.554 207.433 366.487 207.362 366.442 207.277C366.372 207.154 366.353 207.009 366.389 206.872C366.425 206.735 366.513 206.618 366.634 206.545L369.43 204.937C369.553 204.867 369.699 204.848 369.836 204.884C369.973 204.92 370.09 205.008 370.162 205.129C370.233 205.254 370.253 205.401 370.217 205.54C370.181 205.679 370.093 205.799 369.97 205.873L367.198 207.445C367.107 207.497 367.003 207.522 366.898 207.517L366.91 207.553ZM374.338 203.257C374.224 203.252 374.113 203.21 374.024 203.138C373.934 203.066 373.87 202.967 373.841 202.856C373.811 202.745 373.818 202.627 373.86 202.52C373.902 202.413 373.977 202.323 374.074 202.261L376.858 200.641C376.983 200.57 377.13 200.55 377.268 200.587C377.407 200.625 377.525 200.715 377.596 200.839C377.668 200.963 377.687 201.111 377.65 201.249C377.613 201.388 377.523 201.506 377.398 201.577L374.614 203.185C374.523 203.223 374.424 203.235 374.326 203.221L374.338 203.257ZM429.298 199.429C429.155 199.429 429.018 199.372 428.917 199.271C428.815 199.17 428.758 199.033 428.758 198.889V195.601C428.758 195.458 428.815 195.321 428.917 195.219C429.018 195.118 429.155 195.061 429.298 195.061C429.442 195.061 429.579 195.118 429.68 195.219C429.782 195.321 429.838 195.458 429.838 195.601V198.817C429.843 198.892 429.833 198.967 429.807 199.038C429.782 199.108 429.741 199.173 429.689 199.227C429.638 199.281 429.575 199.324 429.505 199.353C429.436 199.381 429.361 199.395 429.286 199.393L429.298 199.429ZM381.778 198.961C381.685 198.96 381.593 198.935 381.511 198.889C381.429 198.842 381.36 198.777 381.31 198.697C381.241 198.573 381.224 198.426 381.262 198.289C381.3 198.152 381.391 198.036 381.514 197.965L384.298 196.357C384.359 196.321 384.426 196.297 384.496 196.287C384.566 196.277 384.637 196.281 384.705 196.299C384.773 196.317 384.837 196.348 384.893 196.391C384.949 196.434 384.996 196.488 385.03 196.549C385.101 196.672 385.12 196.818 385.084 196.955C385.048 197.091 384.96 197.209 384.838 197.281L382.042 198.889C381.955 198.926 381.86 198.939 381.766 198.925L381.778 198.961ZM389.218 194.677C389.131 194.671 389.046 194.642 388.973 194.594C388.899 194.546 388.839 194.479 388.798 194.401C388.728 194.278 388.709 194.133 388.745 193.996C388.781 193.859 388.869 193.742 388.99 193.669L391.774 192.061C391.899 191.99 392.046 191.971 392.185 192.007C392.324 192.042 392.444 192.131 392.518 192.253C392.554 192.314 392.578 192.382 392.587 192.453C392.596 192.523 392.591 192.594 392.572 192.663C392.553 192.731 392.52 192.795 392.476 192.85C392.432 192.906 392.377 192.952 392.314 192.985L389.53 194.605C389.428 194.65 389.316 194.662 389.206 194.641L389.218 194.677ZM429.298 190.849C429.155 190.849 429.018 190.792 428.917 190.691C428.815 190.59 428.758 190.452 428.758 190.309V187.093C428.758 186.95 428.815 186.813 428.917 186.711C429.018 186.61 429.155 186.553 429.298 186.553C429.442 186.553 429.579 186.61 429.68 186.711C429.782 186.813 429.838 186.95 429.838 187.093V190.309C429.826 190.446 429.762 190.573 429.66 190.665C429.557 190.756 429.424 190.805 429.286 190.801L429.298 190.849ZM396.646 190.381C396.553 190.38 396.461 190.355 396.379 190.309C396.297 190.262 396.228 190.197 396.178 190.117C396.109 189.991 396.091 189.843 396.129 189.704C396.167 189.565 396.258 189.446 396.382 189.373L399.166 187.765C399.291 187.696 399.437 187.679 399.574 187.717C399.711 187.755 399.828 187.846 399.898 187.969C399.969 188.092 399.988 188.238 399.952 188.375C399.916 188.511 399.828 188.629 399.706 188.701L396.91 190.309C396.823 190.346 396.728 190.359 396.634 190.345L396.646 190.381ZM404.086 186.085C403.992 186.087 403.899 186.064 403.816 186.017C403.734 185.971 403.666 185.903 403.618 185.821C403.548 185.698 403.529 185.553 403.565 185.416C403.601 185.279 403.689 185.162 403.81 185.089L406.606 183.481C406.667 183.447 406.734 183.424 406.803 183.415C406.873 183.407 406.943 183.412 407.01 183.43C407.078 183.448 407.141 183.48 407.196 183.523C407.251 183.565 407.298 183.619 407.332 183.679C407.367 183.74 407.389 183.807 407.398 183.876C407.407 183.945 407.402 184.016 407.384 184.083C407.365 184.151 407.334 184.214 407.291 184.269C407.248 184.324 407.195 184.371 407.134 184.405L404.398 186.001C404.293 186.034 404.18 186.034 404.074 186.001L404.086 186.085ZM429.286 182.257C429.145 182.257 429.01 182.202 428.909 182.103C428.808 182.005 428.75 181.87 428.746 181.729V178.501C428.746 178.358 428.803 178.221 428.905 178.119C429.006 178.018 429.143 177.961 429.286 177.961C429.43 177.961 429.567 178.018 429.668 178.119C429.77 178.221 429.826 178.358 429.826 178.501V181.729C429.814 181.864 429.752 181.989 429.652 182.08C429.552 182.172 429.422 182.222 429.286 182.221V182.257ZM411.502 181.801C411.407 181.8 411.314 181.773 411.232 181.725C411.15 181.676 411.082 181.608 411.034 181.525C410.965 181.401 410.948 181.254 410.986 181.117C411.024 180.98 411.115 180.864 411.238 180.793L414.022 179.185C414.145 179.115 414.291 179.096 414.428 179.132C414.565 179.168 414.682 179.256 414.754 179.377C414.791 179.438 414.815 179.505 414.825 179.575C414.835 179.644 414.831 179.716 414.813 179.784C414.795 179.852 414.764 179.916 414.721 179.972C414.678 180.028 414.624 180.075 414.562 180.109L411.778 181.729C411.691 181.763 411.596 181.776 411.502 181.765V181.801ZM418.942 177.505C418.848 177.507 418.755 177.484 418.672 177.437C418.59 177.391 418.522 177.323 418.474 177.241C418.404 177.117 418.384 176.969 418.42 176.83C418.456 176.692 418.544 176.572 418.666 176.497L421.462 174.889C421.524 174.846 421.594 174.816 421.668 174.801C421.742 174.787 421.818 174.788 421.892 174.804C421.966 174.821 422.035 174.853 422.095 174.898C422.156 174.943 422.206 175 422.243 175.066C422.281 175.131 422.303 175.204 422.311 175.279C422.318 175.354 422.309 175.43 422.285 175.502C422.262 175.573 422.223 175.639 422.172 175.695C422.121 175.75 422.059 175.795 421.99 175.825L419.206 177.433C419.123 177.467 419.032 177.479 418.942 177.469V177.505ZM429.094 173.701C428.988 173.701 428.884 173.669 428.796 173.609C428.709 173.549 428.641 173.464 428.602 173.365C428.314 172.681 427.594 172.585 426.766 173.065L426.646 173.137C426.585 173.174 426.517 173.198 426.446 173.208C426.376 173.219 426.303 173.215 426.234 173.197C426.165 173.179 426.1 173.147 426.043 173.104C425.986 173.061 425.938 173.007 425.902 172.945C425.866 172.884 425.843 172.816 425.834 172.746C425.825 172.676 425.83 172.604 425.849 172.536C425.868 172.468 425.901 172.404 425.945 172.348C425.989 172.293 426.044 172.247 426.106 172.213L426.226 172.141C426.488 171.933 426.794 171.786 427.121 171.714C427.448 171.642 427.787 171.645 428.112 171.724C428.438 171.802 428.741 171.955 428.998 172.168C429.256 172.382 429.461 172.652 429.598 172.957C429.65 173.089 429.647 173.237 429.591 173.367C429.535 173.497 429.43 173.6 429.298 173.653C429.233 173.675 429.162 173.679 429.094 173.665V173.701Z" fill="#F60846"/>
<path d="M358.523 244.634C358.43 244.634 358.338 244.609 358.259 244.562L355.463 242.954C355.341 242.881 355.253 242.764 355.217 242.627C355.181 242.49 355.2 242.344 355.271 242.222C355.341 242.098 355.458 242.007 355.595 241.969C355.732 241.931 355.878 241.948 356.003 242.018L358.799 243.602C358.923 243.674 359.014 243.793 359.052 243.932C359.09 244.071 359.072 244.22 359.003 244.346C358.958 244.434 358.889 244.508 358.804 244.558C358.719 244.609 358.622 244.635 358.523 244.634ZM351.083 240.338C350.99 240.336 350.899 240.311 350.819 240.266L347.999 238.658C347.889 238.581 347.812 238.466 347.783 238.335C347.753 238.204 347.773 238.067 347.839 237.951C347.905 237.834 348.012 237.746 348.139 237.704C348.266 237.661 348.404 237.668 348.527 237.722L351.323 239.342C351.444 239.414 351.532 239.531 351.568 239.668C351.604 239.805 351.585 239.951 351.515 240.074C351.47 240.15 351.408 240.215 351.332 240.261C351.257 240.307 351.171 240.333 351.083 240.338ZM343.655 236.042C343.558 236.042 343.463 236.017 343.379 235.97L340.595 234.362C340.471 234.291 340.38 234.175 340.342 234.038C340.304 233.901 340.321 233.754 340.391 233.63C340.426 233.568 340.474 233.514 340.531 233.471C340.588 233.428 340.653 233.396 340.722 233.378C340.792 233.36 340.864 233.356 340.934 233.367C341.005 233.377 341.073 233.401 341.135 233.438L343.919 235.046C344.016 235.107 344.091 235.198 344.133 235.305C344.175 235.412 344.182 235.529 344.152 235.641C344.123 235.752 344.059 235.85 343.969 235.923C343.88 235.995 343.769 236.036 343.655 236.042ZM336.215 231.746C336.117 231.752 336.02 231.727 335.939 231.674L333.155 230.066C333.093 230.031 333.039 229.984 332.996 229.928C332.953 229.872 332.922 229.808 332.904 229.74C332.886 229.672 332.882 229.601 332.892 229.531C332.902 229.461 332.926 229.394 332.963 229.334C333.035 229.212 333.152 229.124 333.289 229.088C333.426 229.052 333.572 229.071 333.695 229.142L336.479 230.75C336.576 230.811 336.651 230.902 336.693 231.009C336.735 231.116 336.742 231.233 336.712 231.345C336.683 231.456 336.619 231.554 336.529 231.627C336.44 231.699 336.329 231.74 336.215 231.746Z" fill="#F60846"/>
<path d="M428.398 159.205C434.602 155.605 439.63 158.533 439.63 165.697C439.63 172.861 434.602 181.585 428.398 185.161C422.194 188.737 417.154 185.845 417.154 178.681C417.154 171.517 422.17 162.793 428.398 159.205Z" fill="#FAFAFA"/>
<path d="M423.358 187.201C422.251 187.217 421.161 186.936 420.202 186.385C417.934 185.077 416.686 182.353 416.686 178.717C416.686 171.409 421.834 162.493 428.158 158.845C431.302 157.021 434.29 156.745 436.558 158.053C438.826 159.361 440.086 162.097 440.086 165.733C440.086 173.041 434.938 181.945 428.614 185.605C427.028 186.581 425.218 187.131 423.358 187.201ZM433.402 158.161C431.701 158.228 430.047 158.737 428.602 159.637C422.53 163.141 417.586 171.697 417.586 178.717C417.586 182.005 418.678 184.453 420.646 185.593C422.614 186.733 425.29 186.457 428.146 184.801C434.218 181.297 439.15 172.741 439.15 165.733C439.15 162.433 438.058 159.997 436.09 158.857C435.275 158.377 434.347 158.124 433.402 158.125V158.161Z" fill="#F60846"/>
<path d="M435.599 169.345V166.693C435.599 166.213 435.263 166.021 434.843 166.261L430.283 168.889V163.621C430.283 163.141 429.947 162.949 429.539 163.189L427.199 164.521C426.979 164.664 426.796 164.857 426.664 165.085C426.533 165.312 426.457 165.567 426.443 165.829V171.085L421.883 173.713C421.663 173.856 421.48 174.049 421.348 174.277C421.217 174.504 421.141 174.759 421.127 175.021V177.685C421.127 178.165 421.463 178.357 421.883 178.117L426.443 175.489V180.745C426.443 181.225 426.779 181.429 427.199 181.189L429.503 179.857C429.72 179.712 429.9 179.518 430.03 179.291C430.159 179.064 430.233 178.81 430.247 178.549V173.293L434.807 170.653C435.034 170.514 435.224 170.323 435.362 170.095C435.499 169.868 435.581 169.611 435.599 169.345Z" fill="#F60846"/>
<path d="M432.634 199.992V283.2C432.601 283.821 432.423 284.425 432.112 284.963C431.801 285.501 431.367 285.958 430.846 286.296L370.702 321.024C370.524 321.16 370.312 321.243 370.089 321.264C369.866 321.285 369.642 321.244 369.442 321.144L366.082 319.212C365.889 319.084 365.738 318.902 365.646 318.689C365.555 318.476 365.527 318.241 365.566 318.012V217.548C365.597 216.929 365.774 216.326 366.083 215.788C366.392 215.249 366.823 214.792 367.342 214.452L412.51 188.4L432.634 199.992Z" fill="#F0F0F0"/>
<path d="M372.275 219.36L365.999 215.904C365.72 216.409 365.564 216.972 365.543 217.548V318C365.503 318.229 365.531 318.464 365.623 318.677C365.715 318.89 365.866 319.071 366.059 319.2L369.419 321.132C369.619 321.232 369.843 321.273 370.066 321.252C370.288 321.231 370.501 321.148 370.679 321.012L372.251 320.112L372.275 219.36Z" fill="#E0E0E0"/>
<path d="M432.634 199.993V283.201C432.599 283.821 432.419 284.423 432.108 284.961C431.798 285.499 431.365 285.956 430.846 286.297L370.702 321.025C369.718 321.589 368.914 321.133 368.914 319.993V219.493C368.947 218.872 369.127 218.269 369.438 217.731C369.748 217.193 370.181 216.736 370.702 216.397L405.802 196.117L415.87 190.309L432.634 199.993Z" fill="#FAFAFA"/>
<path d="M415.871 191.329L431.747 200.509V283.201C431.715 283.665 431.577 284.117 431.344 284.52C431.111 284.924 430.789 285.268 430.403 285.529L370.259 320.257C370.149 320.324 370.026 320.365 369.899 320.377C369.899 320.377 369.815 320.245 369.815 319.993V219.493C369.846 219.029 369.982 218.579 370.213 218.176C370.444 217.772 370.763 217.427 371.147 217.165L406.247 196.885L415.847 191.329H415.871ZM415.847 190.309L405.779 196.117L370.679 216.397C370.158 216.736 369.725 217.193 369.414 217.731C369.103 218.269 368.924 218.872 368.891 219.493V319.945C368.891 320.749 369.299 321.217 369.887 321.217C370.167 321.209 370.441 321.126 370.679 320.977L430.799 286.249C431.318 285.908 431.75 285.451 432.061 284.913C432.371 284.375 432.551 283.773 432.587 283.153V199.993L415.787 190.309H415.847Z" fill="#E0E0E0"/>
<path d="M423.838 200.652C424.486 200.652 424.942 201.168 424.942 202.068V272.868C424.904 273.555 424.705 274.224 424.361 274.82C424.017 275.416 423.538 275.923 422.962 276.3L378.562 301.908C378.297 302.081 377.99 302.177 377.674 302.184C377.026 302.184 376.582 301.668 376.582 300.768V229.968C376.62 229.281 376.819 228.612 377.163 228.016C377.507 227.42 377.986 226.913 378.562 226.536L408.562 209.22L422.962 200.928C423.226 200.765 423.528 200.674 423.838 200.664V200.652ZM423.838 199.836C423.38 199.849 422.933 199.981 422.542 200.22L408.142 208.5L378.142 225.828C377.44 226.276 376.856 226.886 376.438 227.606C376.02 228.327 375.782 229.137 375.742 229.968V300.768C375.71 301.044 375.736 301.322 375.817 301.587C375.898 301.853 376.033 302.098 376.213 302.309C376.393 302.519 376.615 302.69 376.864 302.811C377.113 302.932 377.385 303.001 377.662 303.012C378.124 303.001 378.575 302.869 378.97 302.628L423.37 277.02C424.072 276.57 424.656 275.958 425.073 275.235C425.491 274.513 425.73 273.701 425.77 272.868V202.068C425.803 201.793 425.779 201.513 425.698 201.247C425.618 200.981 425.483 200.735 425.303 200.524C425.122 200.313 424.9 200.142 424.65 200.022C424.4 199.901 424.127 199.834 423.85 199.824L423.838 199.836Z" fill="#F60846"/>
<path d="M415.871 207.601V190.309L432.671 199.993L417.695 208.633C416.675 209.209 415.871 208.801 415.871 207.601Z" fill="#E0E0E0"/>
<path d="M385.666 253.331L415.894 235.703C416.556 235.289 417.112 234.724 417.517 234.055C417.921 233.386 418.163 232.631 418.222 231.852C418.222 230.46 417.178 229.932 415.894 230.652L385.654 248.267C384.991 248.684 384.436 249.251 384.034 249.923C383.632 250.594 383.393 251.351 383.338 252.131C383.338 253.547 384.382 254.075 385.666 253.331ZM415.894 241.811L385.654 259.439C384.991 259.856 384.436 260.423 384.034 261.095C383.632 261.766 383.393 262.523 383.338 263.303C383.338 264.683 384.382 265.211 385.666 264.503L415.894 246.875C416.558 246.459 417.115 245.893 417.519 245.221C417.924 244.55 418.164 243.793 418.222 243.011C418.222 241.595 417.178 241.067 415.894 241.811ZM415.894 252.959L385.654 270.587C384.991 271.001 384.435 271.566 384.033 272.235C383.63 272.905 383.392 273.66 383.338 274.439C383.338 275.831 384.382 276.359 385.666 275.639L415.894 257.999C416.558 257.587 417.116 257.023 417.52 256.353C417.925 255.684 418.165 254.928 418.222 254.147C418.222 252.743 417.178 252.215 415.894 252.959Z" fill="#F60846"/>
<path opacity="0.3" d="M385.666 253.331L415.894 235.703C416.556 235.289 417.112 234.724 417.517 234.055C417.921 233.386 418.163 232.631 418.222 231.852C418.222 230.46 417.178 229.932 415.894 230.652L385.654 248.267C384.991 248.684 384.436 249.251 384.034 249.923C383.632 250.594 383.393 251.351 383.338 252.131C383.338 253.547 384.382 254.075 385.666 253.331ZM415.894 241.811L385.654 259.439C384.991 259.856 384.436 260.423 384.034 261.095C383.632 261.766 383.393 262.523 383.338 263.303C383.338 264.683 384.382 265.211 385.666 264.503L415.894 246.875C416.558 246.459 417.115 245.893 417.519 245.221C417.924 244.55 418.164 243.793 418.222 243.011C418.222 241.595 417.178 241.067 415.894 241.811ZM415.894 252.959L385.654 270.587C384.991 271.001 384.435 271.566 384.033 272.235C383.63 272.905 383.392 273.66 383.338 274.439C383.338 275.831 384.382 276.359 385.666 275.639L415.894 257.999C416.558 257.587 417.116 257.023 417.52 256.353C417.925 255.684 418.165 254.928 418.222 254.147C418.222 252.743 417.178 252.215 415.894 252.959Z" fill="white"/>
<path d="M335.183 204.229V287.389C335.148 288.009 334.967 288.612 334.657 289.15C334.346 289.688 333.914 290.145 333.395 290.485L273.251 325.201C273.068 325.332 272.854 325.412 272.631 325.433C272.408 325.454 272.183 325.415 271.979 325.321L268.631 323.389C268.438 323.26 268.287 323.079 268.195 322.866C268.104 322.653 268.076 322.418 268.115 322.189V221.785C268.148 221.166 268.326 220.564 268.634 220.026C268.943 219.488 269.373 219.03 269.891 218.689L315.059 192.613L335.183 204.229Z" fill="#F0F0F0"/>
<path d="M274.799 223.597L268.559 220.141C268.273 220.643 268.113 221.207 268.091 221.785V322.249C268.061 322.478 268.094 322.711 268.187 322.923C268.28 323.134 268.429 323.316 268.619 323.449L271.967 325.381C272.169 325.482 272.395 325.525 272.62 325.504C272.845 325.483 273.06 325.398 273.239 325.261L274.799 324.361V223.597Z" fill="#E0E0E0"/>
<path d="M335.183 204.23V287.39C335.148 288.01 334.967 288.613 334.657 289.15C334.346 289.688 333.914 290.145 333.395 290.486L273.251 325.202C272.267 325.766 271.463 325.31 271.463 324.17V223.73C271.496 223.109 271.676 222.506 271.986 221.968C272.297 221.43 272.73 220.973 273.251 220.634L308.399 200.402L318.455 194.594L335.183 204.23Z" fill="#FAFAFA"/>
<path d="M318.408 195.601L334.296 204.781V287.425C334.261 287.889 334.122 288.339 333.89 288.742C333.657 289.145 333.336 289.491 332.952 289.753L272.808 324.481C272.695 324.55 272.568 324.591 272.436 324.601C272.368 324.485 272.338 324.351 272.352 324.217V223.729C272.384 223.264 272.521 222.813 272.754 222.409C272.987 222.006 273.309 221.661 273.696 221.401L308.796 201.121L318.396 195.565L318.408 195.601ZM318.396 194.545L308.4 200.401L273.3 220.681C272.779 221.02 272.346 221.477 272.035 222.015C271.724 222.553 271.545 223.157 271.512 223.777V324.229C271.512 325.033 271.92 325.501 272.508 325.501C272.788 325.493 273.062 325.41 273.3 325.261L333.444 290.533C333.963 290.193 334.395 289.735 334.706 289.197C335.016 288.66 335.196 288.057 335.232 287.437V204.277L318.432 194.593L318.396 194.545Z" fill="#E0E0E0"/>
<path d="M326.398 204.889C327.046 204.889 327.49 205.405 327.49 206.305V277.105C327.452 277.792 327.253 278.46 326.909 279.056C326.565 279.653 326.086 280.16 325.51 280.537L281.11 306.145C280.844 306.315 280.538 306.41 280.222 306.421C279.574 306.421 279.13 305.905 279.13 305.005V234.205C279.168 233.517 279.367 232.849 279.711 232.253C280.055 231.656 280.534 231.149 281.11 230.773L311.11 213.457L325.51 205.165C325.779 205.003 326.085 204.912 326.398 204.901V204.889ZM326.398 204.073C325.94 204.084 325.493 204.216 325.102 204.457L310.702 212.737L280.702 230.065C280.001 230.513 279.417 231.123 279 231.843C278.582 232.564 278.343 233.373 278.302 234.205V305.005C278.271 305.28 278.296 305.559 278.377 305.824C278.458 306.089 278.593 306.334 278.773 306.545C278.953 306.755 279.175 306.927 279.424 307.048C279.674 307.169 279.945 307.237 280.222 307.249C280.681 307.237 281.128 307.105 281.518 306.865L325.918 281.257C326.62 280.806 327.204 280.194 327.622 279.472C328.039 278.749 328.278 277.938 328.318 277.105V206.305C328.35 206.029 328.324 205.75 328.243 205.485C328.162 205.22 328.027 204.975 327.847 204.764C327.667 204.554 327.445 204.382 327.196 204.261C326.947 204.14 326.675 204.072 326.398 204.061V204.073Z" fill="#F60846"/>
<path d="M318.42 211.837V194.545L335.22 204.229L320.244 212.869C319.2 213.445 318.42 212.977 318.42 211.837Z" fill="#E0E0E0"/>
<path d="M288.203 257.568L318.443 240C319.105 239.585 319.661 239.021 320.065 238.352C320.47 237.683 320.711 236.928 320.771 236.148C320.771 234.756 319.727 234.228 318.443 234.948L288.203 252.564C287.539 252.98 286.983 253.546 286.58 254.218C286.178 254.89 285.94 255.647 285.887 256.428C285.887 257.784 286.919 258.312 288.203 257.568ZM318.443 246.048L288.203 263.676C287.539 264.092 286.983 264.658 286.58 265.33C286.178 266.002 285.94 266.759 285.887 267.54C285.887 268.92 286.919 269.448 288.203 268.74L318.443 251.112C319.107 250.696 319.664 250.13 320.068 249.458C320.472 248.787 320.713 248.03 320.771 247.248C320.771 245.832 319.727 245.316 318.443 246V246.048ZM318.443 257.196L288.203 274.8C287.538 275.212 286.981 275.776 286.578 276.446C286.175 277.116 285.938 277.872 285.887 278.652C285.887 280.044 286.919 280.572 288.203 279.852L318.443 262.224C319.107 261.812 319.665 261.247 320.069 260.578C320.474 259.908 320.714 259.153 320.771 258.372C320.771 256.98 319.727 256.452 318.443 257.196Z" fill="#F60846"/>
<path opacity="0.3" d="M288.203 257.568L318.443 240C319.105 239.585 319.661 239.021 320.065 238.352C320.47 237.683 320.711 236.928 320.771 236.148C320.771 234.756 319.727 234.228 318.443 234.948L288.203 252.564C287.539 252.98 286.983 253.546 286.58 254.218C286.178 254.89 285.94 255.647 285.887 256.428C285.887 257.784 286.919 258.312 288.203 257.568ZM318.443 246.048L288.203 263.676C287.539 264.092 286.983 264.658 286.58 265.33C286.178 266.002 285.94 266.759 285.887 267.54C285.887 268.92 286.919 269.448 288.203 268.74L318.443 251.112C319.107 250.696 319.664 250.13 320.068 249.458C320.472 248.787 320.713 248.03 320.771 247.248C320.771 245.832 319.727 245.316 318.443 246V246.048ZM318.443 257.196L288.203 274.8C287.538 275.212 286.981 275.776 286.578 276.446C286.175 277.116 285.938 277.872 285.887 278.652C285.887 280.044 286.919 280.572 288.203 279.852L318.443 262.224C319.107 261.812 319.665 261.247 320.069 260.578C320.474 259.908 320.714 259.153 320.771 258.372C320.771 256.98 319.727 256.452 318.443 257.196Z" fill="white"/>
<path d="M466.223 479.182C466.319 484.39 466.727 491.962 466.223 494.122C465.719 496.282 457.043 498.394 450.251 498.706C443.459 499.018 435.287 497.998 434.795 502.798C434.303 507.598 438.563 510.802 441.683 512.242C446.975 514.702 452.879 514.162 458.075 513.442C463.271 512.722 466.043 513.226 471.527 514.57C477.011 515.914 480.107 515.086 482.447 513.91C485.927 512.17 485.003 506.23 483.779 502.366C482.555 498.502 482.687 494.962 483.143 489.598C483.599 484.234 485.135 476.398 485.135 476.398L466.223 479.182Z" fill="#FFBDA7"/>
<path d="M483.779 502.269C483.779 502.269 483.779 503.913 480.179 504.669C476.579 505.425 470.723 505.221 466.583 505.497C460.379 505.893 455.675 506.601 448.583 505.497C442.343 504.513 442.583 499.569 448.199 498.777C441.911 498.885 435.227 498.453 434.783 502.749C434.291 507.549 438.551 510.753 441.671 512.193C446.963 514.653 452.867 514.113 458.063 513.393C463.259 512.673 466.031 513.177 471.515 514.521C476.999 515.865 480.095 515.037 482.435 513.861C485.927 512.073 485.003 506.133 483.779 502.269Z" fill="#455A64"/>
<path d="M530.712 466.257C533.628 470.481 538.428 478.473 539.112 480.453C539.796 482.433 540.384 489.885 539.112 492.081C537.288 493.413 534.432 494.181 531.996 495.381C528.468 497.121 527.712 500.013 530.016 502.221C533.22 505.305 538.416 505.665 541.536 505.485C546.096 504.789 546.408 499.689 547.056 495.165C547.704 490.641 546.972 481.773 550.404 476.313C553.836 470.853 559.896 470.313 560.688 472.161C560.316 469.413 558.792 469.341 555.516 467.481C552.24 465.621 549.372 465.681 547.56 461.373C545.4 456.273 543.444 450.189 543.444 450.189L530.712 466.257Z" fill="#FFBDA7"/>
<path d="M537.119 505.571C540.383 506.111 542.687 506.111 548.483 503.267C553.499 500.807 554.771 499.763 555.539 498.407C556.739 496.247 555.443 490.919 556.487 486.335C557.263 483.104 558.373 479.963 559.799 476.963C560.939 474.179 560.855 472.979 560.675 472.163C560.279 470.423 556.739 470.207 553.367 472.163C549.995 474.119 547.811 477.851 546.695 486.743C545.579 495.635 547.295 505.355 537.119 505.571Z" fill="#263238"/>
<path d="M560.675 472.163C560.291 469.415 559.343 469.007 556.067 467.159C554.867 466.463 553.667 465.959 552.527 465.407C549.347 464.807 544.343 467.303 544.127 473.975C543.911 480.647 545.015 489.107 543.011 492.239C541.295 494.915 538.487 494.735 539.135 492.083C534.623 493.739 533.075 493.763 530.531 495.155C527.603 496.763 526.619 500.951 529.331 502.631C532.911 505.068 537.27 506.086 541.559 505.487C546.119 504.791 546.431 499.691 547.079 495.167C547.727 490.643 546.995 481.775 550.427 476.315C553.859 470.855 559.883 470.399 560.675 472.163Z" fill="#455A64"/>
<path d="M531.599 468.91C531.599 468.91 515.051 444.61 506.219 428.866C499.679 417.226 499.091 414.97 497.483 407.35C494.039 390.994 493.235 387.154 493.235 387.154L488.099 420.202C488.927 423.802 490.583 430.894 490.643 435.07C490.599 443.229 489.937 451.372 488.663 459.43C487.466 468.513 485.788 477.526 483.635 486.43C482.351 487.318 478.619 487.498 475.379 487.39C472.223 487.198 469.103 486.614 466.091 485.65C466.091 485.65 463.391 446.71 462.767 435.994C462.011 423.142 461.747 418.09 461.339 411.034C460.703 399.79 459.179 383.518 459.611 362.854C460.475 321.766 469.631 303.01 469.631 303.01L515.999 296.566C519.851 310.414 527.855 312.022 528.695 330.922C528.887 335.206 526.619 343.726 526.535 350.374C526.295 371.974 524.363 405.886 524.363 405.886C529.451 410.578 533.183 414.826 536.699 425.71C538.835 432.322 543.575 449.074 545.579 455.866C539.711 455.866 531.503 466.258 531.599 468.91Z" fill="#455A64"/>
<path d="M484.68 326.698L485.88 326.506C486.96 333.958 488.736 342.406 489.708 343.066C491.412 344.266 497.724 345.178 499.14 344.818C500.556 344.458 501.816 343.306 504.336 339.886C506.1 337.486 505.908 335.986 505.536 332.686C505.38 331.486 505.2 330.07 505.092 328.318L506.292 328.234C506.4 329.938 506.568 331.318 506.724 332.53C507.144 335.83 507.396 337.81 505.32 340.63C502.596 344.326 501.228 345.598 499.428 346.03C499.168 346.093 498.903 346.125 498.636 346.126C496.14 346.246 490.716 345.25 489.036 344.11C487.2 342.838 485.232 330.466 484.68 326.698Z" fill="#37474F"/>
<path d="M465.694 325.605L466.894 325.953C463.378 338.565 464.146 350.121 470.434 353.637C471.634 345.117 473.194 336.309 475.414 326.889L476.614 327.177C469.414 357.525 468.598 381.429 469.522 410.145C470.218 432.033 471.61 469.641 472.258 487.102L470.998 486.885C470.35 469.329 468.97 431.961 468.274 410.193C467.65 390.741 467.854 373.497 470.254 354.993C463.054 351.309 461.926 339.129 465.694 325.605Z" fill="#37474F"/>
<path d="M528.142 336.922C527.372 337.662 526.439 338.213 525.418 338.53C523.462 338.614 520.222 335.83 519.298 333.73C518.864 332.5 518.602 331.216 518.518 329.914C518.329 328.009 517.984 326.123 517.486 324.274L518.686 323.914C519.206 325.829 519.567 327.784 519.766 329.758C519.836 330.936 520.066 332.099 520.45 333.214C521.23 334.99 524.05 337.318 525.37 337.258C526.555 336.672 527.611 335.856 528.478 334.858C528.358 335.434 528.238 336.286 528.142 336.922Z" fill="#37474F"/>
<path d="M535.462 462.37C535.75 462.034 536.05 461.71 536.35 461.386C528.43 447.574 511.426 417.37 509.95 410.038C508.006 400.654 504.658 369.178 504.514 352.246H503.314C503.446 369.238 506.806 400.858 508.762 410.29C510.286 417.97 527.602 448.666 535.462 462.37Z" fill="#37474F"/>
<path d="M511.199 321.766C514.343 326.77 516.251 335.554 512.195 345.178L511.055 344.686C514.919 335.506 513.119 327.178 510.143 322.45L511.199 321.766Z" fill="#37474F"/>
<path d="M493.199 387.155L498.239 352.511C498.239 352.511 511.283 350.687 513.083 338.447C513.395 345.647 510.503 351.947 502.403 355.247L495.923 387.227L497.447 407.291L493.199 387.155Z" fill="#37474F"/>
<path d="M519.911 240.6C528.311 242.604 532.931 244.944 536.399 256.416C539.687 267.216 545.195 285.612 546.647 293.388C547.343 297.18 547.667 300.792 542.399 302.988C530.495 308.028 519.011 311.556 519.011 311.556L514.367 297.504L527.087 291.144L523.919 280.896L519.911 240.6Z" fill="#FFBDA7"/>
<path d="M527.088 291.166C528.166 293.601 530.012 295.616 532.344 296.902C529.236 297.274 526.212 294.034 525.42 291.994L527.088 291.166Z" fill="#F0997A"/>
<path d="M520.511 240.504C524.279 241.188 529.439 241.98 533.207 247.704C536.975 253.428 543.095 273.384 543.095 273.384C543.095 273.384 540.107 277.104 532.295 279.192C524.483 281.28 521.195 279.504 521.195 279.504L515.363 260.4L520.511 240.504Z" fill="#F60846"/>
<path opacity="0.2" d="M520.511 240.504C524.279 241.188 529.439 241.98 533.207 247.704C536.975 253.428 543.095 273.384 543.095 273.384C543.095 273.384 540.107 277.104 532.295 279.192C524.483 281.28 521.195 279.504 521.195 279.504L515.363 260.4L520.511 240.504Z" fill="black"/>
<path d="M478.92 198.587C477.444 196.619 477.66 193.667 478.716 191.387C479.772 189.107 481.812 186.887 487.464 184.451C494.184 181.559 512.52 179.651 519.552 191.915C520.596 193.751 501.432 226.187 501.804 233.087C497.604 227.975 483.804 210.107 483.804 210.107C480.36 208.343 478.296 206.903 477.804 203.495C477.656 201.783 478.046 200.067 478.92 198.587Z" fill="#263238"/>
<path d="M480.924 208.104C480.924 208.104 475.572 215.604 476.052 216.276C477.106 217.24 478.243 218.112 479.448 218.88L480.924 208.104Z" fill="#F0997A"/>
<path d="M487.908 194.218C484.584 195.514 481.608 197.818 480.108 204.79C479.712 206.614 480.972 209.242 480.108 211.654C476.508 221.974 479.268 230.986 481.176 233.074C482.46 234.478 489.648 235.57 493.512 234.778C498.312 233.794 508.992 229.882 514.44 222.778C520.836 214.462 523.02 202.822 516.912 197.662C508.368 190.426 491.46 192.838 487.908 194.218Z" fill="#FFBDA7"/>
<path d="M510.947 228.539L511.547 239.027C517.379 242.423 505.331 246.863 492.551 241.427L491.627 231.971L510.947 228.539Z" fill="#FFBDA7"/>
<path d="M492.059 236.254C492.287 238.654 492.527 242.254 488.771 243.31C485.231 244.246 479.519 244.834 473.951 246.91C473.951 246.91 494.015 250.078 504.551 248.338C515.087 246.598 516.911 239.83 516.911 239.83C513.119 239.314 511.535 238.63 511.391 236.23L492.059 236.254Z" fill="#FFBDA7"/>
<path d="M481.572 233.362C483.192 234.418 486.852 235.366 491.94 235.03L491.712 232.402C490.113 232.914 488.47 233.279 486.804 233.494C485.063 233.712 483.3 233.667 481.572 233.362Z" fill="#F0997A"/>
<path d="M482.88 197.662C482.376 202.222 485.148 203.878 487.128 204.922C486.23 206.552 485.814 208.404 485.928 210.262C486.216 212.662 486.972 214.582 489.204 215.518C490.56 216.082 491.016 215.518 491.604 214.438C492.42 212.914 493.476 210.574 496.812 211.27C500.64 212.074 501.252 217.966 498.72 221.614C498.23 222.388 497.559 223.032 496.764 223.49C495.97 223.947 495.076 224.206 494.16 224.242C493.662 224.193 493.18 224.041 492.744 223.795C492.308 223.549 491.928 223.215 491.628 222.814C491.628 222.814 491.52 227.902 497.832 231.382C497.832 231.382 504.156 235.558 511.032 234.034C514.321 230.884 517.438 227.559 520.368 224.074C528.228 214.282 529.872 195.694 517.968 191.446C517.404 191.254 507.636 188.782 502.2 189.562C485.496 191.998 482.964 196.87 482.88 197.662Z" fill="#263238"/>
<path d="M519.6 192C521.472 192 527.148 194.892 527.124 207.492C527.124 216.012 525.072 227.4 522.324 232.692C515.028 240.732 493.908 242.292 484.572 238.896C490.572 236.124 491.7 228.612 491.676 222.792C494.436 226.968 499.488 227.964 505.608 224.892C511.728 221.82 519.6 192 519.6 192Z" fill="#263238"/>
<path d="M528.095 251.027C526.343 242.519 521.735 240.671 519.695 240.299L514.391 239.375C514.391 240.383 515.111 242.795 505.703 243.971C499.703 244.727 489.203 243.179 489.203 243.179C485.186 243.829 481.211 244.719 477.299 245.843C471.191 247.583 467.975 254.711 463.979 264.131C460.835 271.571 462.011 279.143 467.639 284.687C467.811 289.33 467.699 293.978 467.303 298.607C464.931 307.609 463.515 316.836 463.079 326.135C463.079 326.135 466.679 329.495 495.275 328.859C517.427 328.355 527.675 318.455 527.675 318.455C527.039 315.155 524.723 308.063 520.535 297.047C521.039 286.271 531.875 269.447 528.095 251.027Z" fill="#F60846"/>
<path d="M428.46 273.371C428.46 273.371 396.972 267.107 395.172 265.811C393.648 264.707 393.156 262.895 392.388 261.275C391.48 259.434 390.308 257.736 388.908 256.235C388.02 255.227 386.94 254.363 386.1 253.319C385.26 252.275 385.008 251.135 384.252 250.151C383.496 249.167 382.488 249.875 382.008 250.823C381.485 252.211 381.524 253.748 382.116 255.107C382.344 255.707 382.548 256.307 382.788 256.919C383.065 257.455 383.286 258.018 383.448 258.599C383.526 258.899 383.501 259.216 383.376 259.499C383.04 260.063 381.972 259.691 381.504 259.499C378.327 258.218 375.444 256.303 373.032 253.871C372 252.827 371.184 251.651 370.08 250.679C369.067 249.761 367.923 249 366.684 248.423C365.857 248.009 364.927 247.842 364.008 247.943C362.652 248.447 364.164 250.619 364.524 251.351C364.969 252.153 365.185 253.063 365.148 253.979C365.097 254.518 365.154 255.062 365.315 255.579C365.475 256.096 365.737 256.576 366.084 256.991C366.874 257.875 367.463 258.919 367.812 260.051C367.835 260.451 367.835 260.851 367.812 261.251C367.931 262.494 368.434 263.668 369.252 264.611C370.047 265.473 370.499 266.595 370.524 267.767C370.8 270.431 373.584 272.387 375.66 273.659C378.068 275.088 380.638 276.224 383.316 277.043C384.756 277.511 386.148 278.099 387.588 278.531C389.028 278.963 390.204 279.167 391.464 279.647C394.452 280.787 417.636 289.619 426.876 292.175C431.436 293.435 432.66 294.575 439.08 291.227C450.636 285.227 461.952 281.063 468.6 276.995C477.708 271.415 481.572 268.295 482.82 262.355C485.688 248.579 476.616 246.035 476.616 246.035C473.292 246.887 471.576 247.655 461.46 253.511C450.66 259.775 428.46 273.371 428.46 273.371Z" fill="#FFBDA7"/>
<path d="M476.615 246.059C471.035 246.695 468.131 248.231 461.939 252.131C455.747 256.031 445.199 262.859 445.199 262.859C445.908 269.055 448.476 274.891 452.567 279.599C457.535 285.275 461.567 284.807 461.567 284.807C461.567 284.807 478.211 272.567 481.571 267.851C484.931 263.135 487.427 248.999 476.615 246.059Z" fill="#F60846"/>
<path opacity="0.2" d="M476.615 246.059C471.035 246.695 468.131 248.231 461.939 252.131C455.747 256.031 445.199 262.859 445.199 262.859C445.908 269.055 448.476 274.891 452.567 279.599C457.535 285.275 461.567 284.807 461.567 284.807C461.567 284.807 478.211 272.567 481.571 267.851C484.931 263.135 487.427 248.999 476.615 246.059Z" fill="black"/>
<path d="M504.551 161.327L501.407 155.435L503.939 148.151V143.699L496.211 148.151V152.615L499.535 158.363C499.583 158.454 499.665 158.523 499.763 158.555L504.551 161.327Z" fill="#F60846"/>
<path opacity="0.2" d="M504.551 161.327L501.407 155.435L503.939 148.151V143.699L496.211 148.151V152.615L499.535 158.363C499.583 158.454 499.665 158.523 499.763 158.555L504.551 161.327Z" fill="black"/>
<path d="M522.983 108.263C522.942 107.46 522.71 106.677 522.308 105.981C521.905 105.284 521.343 104.693 520.667 104.255L518.783 103.199C518.065 102.838 517.272 102.65 516.467 102.65C515.663 102.65 514.87 102.838 514.151 103.199L485.255 119.879C484.581 120.318 484.02 120.91 483.618 121.606C483.215 122.303 482.983 123.084 482.939 123.887V155.687C482.981 156.491 483.213 157.273 483.615 157.97C484.018 158.667 484.58 159.258 485.255 159.695L487.199 160.799C487.916 161.166 488.71 161.357 489.515 161.357C490.321 161.357 491.114 161.166 491.831 160.799L501.119 155.435L504.431 161.171C504.481 161.251 504.551 161.316 504.636 161.358C504.72 161.4 504.814 161.418 504.908 161.409C505.001 161.4 505.091 161.366 505.165 161.309C505.24 161.252 505.298 161.175 505.331 161.087L508.799 150.959L520.703 144.071C521.379 143.634 521.941 143.043 522.344 142.346C522.746 141.649 522.978 140.867 523.019 140.063L522.983 108.263Z" fill="#F60846"/>
<path d="M515.604 130.031V126.431C515.604 125.783 515.136 125.519 514.572 125.843L508.38 129.443V122.243C508.38 121.595 507.924 121.319 507.36 121.655L504.228 123.455C503.931 123.651 503.684 123.913 503.506 124.222C503.329 124.53 503.227 124.876 503.208 125.231V132.431L497.016 136.031C496.715 136.223 496.464 136.485 496.284 136.794C496.104 137.103 496.002 137.45 495.984 137.807V141.407C495.984 142.055 496.44 142.319 497.016 141.995L503.208 138.395V145.595C503.208 146.255 503.664 146.519 504.228 146.183L507.36 144.383C507.658 144.188 507.905 143.926 508.082 143.617C508.259 143.309 508.362 142.963 508.38 142.607V135.407L514.572 131.807C514.872 131.614 515.122 131.352 515.301 131.043C515.48 130.734 515.584 130.388 515.604 130.031Z" fill="#FAFAFA"/>
<path opacity="0.2" d="M482.94 155.687C482.981 156.491 483.213 157.273 483.616 157.97C484.018 158.667 484.58 159.258 485.256 159.695L487.2 160.799C487.852 161.13 488.567 161.319 489.297 161.352C490.027 161.385 490.757 161.262 491.436 160.991C490.344 161.399 489.516 160.787 489.516 159.467V127.667C489.539 126.862 489.771 126.077 490.188 125.387L483.6 121.607C483.188 122.299 482.957 123.083 482.928 123.887L482.94 155.687Z" fill="black"/>
<path opacity="0.3" d="M522.912 107.603C522.636 106.619 521.712 106.307 520.668 106.919L491.76 123.599C491.075 124.021 490.516 124.617 490.14 125.327L483.6 121.619C483.981 120.909 484.544 120.312 485.232 119.891L514.152 103.199C514.87 102.838 515.663 102.65 516.468 102.65C517.272 102.65 518.065 102.838 518.784 103.199L520.668 104.291C521.246 104.664 521.742 105.149 522.128 105.718C522.514 106.287 522.78 106.929 522.912 107.603Z" fill="white"/>
</svg>
