<svg width="55" height="55" viewBox="0 0 55 55" fill="none" xmlns="http://www.w3.org/2000/svg">
<path d="M48.5547 20.1953H45.332C44.6324 20.1953 43.9585 20.3074 43.3272 20.5145L32.7204 3.99803L31.3359 2.05326L31.2185 1.93359C29.9964 0.686641 28.3617 0 26.6158 0C23.0619 0 20.1705 2.89137 20.1705 6.44531C20.1705 7.16149 20.2878 7.86607 20.519 8.5395L20.5629 8.66755L20.6227 8.78915C20.9603 9.47611 21.321 10.1943 21.7029 10.9546C22.6657 12.8715 24.2553 16.0363 24.4935 16.9876C24.3385 18.1135 22.8332 18.7988 21.7609 18.7988H7.62695C4.25068 18.7988 1.50391 21.5456 1.50391 24.9219C1.50391 26.0334 1.80791 27.1073 2.36135 28.0394C0.905459 29.1725 0 30.9347 0 32.8711C0 34.3918 0.555586 35.8567 1.56438 36.9959C1.82982 37.2957 2.11911 37.5645 2.42784 37.8001C1.90674 38.7084 1.61842 39.7471 1.61842 40.8203C1.61842 43.1489 2.93487 45.1781 4.86761 46.2133C4.49775 46.9872 4.29688 47.8364 4.29688 48.7082C4.29688 52.3539 6.88166 55 10.4429 55H31.4746C32.6612 55 33.623 54.0381 33.623 52.8516C33.623 51.665 32.6612 50.7031 31.4746 50.7031H10.4429C8.774 50.7031 8.59375 49.308 8.59375 48.7082C8.59375 47.8217 9.34248 47.3397 9.57183 47.2132C10.7771 46.5484 10.957 45.5932 10.957 45.083C10.957 43.7167 9.77743 42.6465 8.27148 42.6465H7.7869C6.7549 42.6465 5.91529 41.8273 5.91529 40.8203C5.91529 40.1794 6.27236 39.5756 6.84707 39.2446C6.88349 39.2237 6.91732 39.2057 6.94805 39.1891C7.89755 38.6763 8.37891 37.9394 8.37891 36.9988C8.37891 36.1881 7.83772 34.7866 5.80938 34.6772C4.98953 34.6328 4.29688 33.8058 4.29688 32.8711C4.29688 32.047 4.87932 31.3018 5.68176 31.0994C6.97372 30.7735 7.8418 29.7587 7.8418 28.5742C7.8418 27.9878 7.62556 27.1388 6.5957 26.4243C6.09802 26.0789 5.80078 25.5173 5.80078 24.9219C5.80078 23.9149 6.61998 23.0957 7.62695 23.0957H21.7609C25.0341 23.0957 28.6558 20.7708 28.7991 17.0149L28.8007 16.9329C28.8007 15.6412 27.8578 13.6354 25.5426 9.02602C25.1916 8.32734 24.8588 7.66477 24.5493 7.03667C24.4949 6.84578 24.4674 6.64737 24.4674 6.44531C24.4674 5.26066 25.4312 4.29688 26.6158 4.29688C27.151 4.29688 27.6549 4.49045 28.0494 4.84483L29.1333 6.3641L39.9146 23.1521C39.2644 24.1582 38.8867 25.3562 38.8867 26.6406V48.5547C38.8867 52.1086 41.7781 55 45.332 55H48.5547C52.1086 55 55 52.1086 55 48.5547V26.6406C55 23.0867 52.1086 20.1953 48.5547 20.1953ZM50.7031 48.5547C50.7031 49.7393 49.7393 50.7031 48.5547 50.7031H45.332C44.1474 50.7031 43.1836 49.7393 43.1836 48.5547V26.6406C43.1836 25.456 44.1474 24.4922 45.332 24.4922H48.5547C49.7393 24.4922 50.7031 25.456 50.7031 26.6406V48.5547Z" fill="#0AAD74"/>
</svg>
