<svg width="80" height="80" viewBox="0 0 80 80" fill="none" xmlns="http://www.w3.org/2000/svg">
<g clip-path="url(#clip0)">
<path d="M35.7761 10.2946V4.21421C35.7761 1.89415 37.6675 0 39.9931 0C42.3188 0 44.2102 1.89415 44.2102 4.21421V10.2946C44.2102 12.6202 42.3188 14.52 39.9931 14.52C37.6675 14.52 35.7761 12.6202 35.7761 10.2946Z" fill="#CECFD0"/>
<path d="M35.7761 75.7687V69.6939C35.7761 67.3739 37.6675 65.4741 39.9931 65.4741C42.3188 65.4741 44.2102 67.3739 44.2102 69.6939V75.7687C44.2102 78.0999 42.3188 79.9997 39.9931 79.9997C37.6675 79.9997 35.7761 78.0999 35.7761 75.7687Z" fill="#CECFD0"/>
<path d="M58.0126 21.9788C56.3734 20.3313 56.3734 17.6498 58.0126 16.0134L62.3109 11.7179C63.9612 10.0647 66.6315 10.0647 68.2791 11.7179C69.9323 13.3711 69.9323 16.0302 68.2791 17.6722L63.9808 21.9788C63.1571 22.7942 62.0755 23.2089 60.9995 23.2089C59.9179 23.2089 58.842 22.7942 58.0126 21.9788Z" fill="#CECFD0"/>
<path d="M11.7096 68.2764C10.0704 66.6344 10.0704 63.9585 11.7096 62.3053L16.0107 58.0098C17.6695 56.3678 20.3286 56.3678 21.9817 58.0098C23.6237 59.6686 23.6237 62.3277 21.9817 63.9809L17.6779 68.2764C16.8597 69.0973 15.7725 69.5064 14.6937 69.5064C13.615 69.5092 12.5306 69.0973 11.7096 68.2764Z" fill="#CECFD0"/>
<path d="M69.7 44.207C67.3688 44.207 65.4802 42.3184 65.4802 39.9928C65.4802 37.6615 67.3688 35.7729 69.7 35.7729H75.7776C78.1032 35.7729 80.0002 37.6727 80.0002 39.9928C80.0002 42.3184 78.1032 44.207 75.7776 44.207H69.7Z" fill="#CECFD0"/>
<path d="M4.21702 44.207C1.88855 44.207 0 42.3212 0 39.9928C0 37.6615 1.88855 35.7729 4.21702 35.7729H10.2946C12.6202 35.7729 14.5116 37.6727 14.5116 39.9928C14.5116 42.3184 12.6202 44.207 10.2946 44.207H4.21702Z" fill="#CECFD0"/>
<path d="M62.311 68.2764L58.0128 63.9697C56.3736 62.3277 56.3736 59.6686 58.0212 58.0098C59.6659 56.3678 62.3334 56.3678 63.981 58.0098L68.2793 62.3053C69.9213 63.9585 69.9213 66.6344 68.2793 68.2764C67.4499 69.0973 66.3711 69.5064 65.2952 69.5064C64.2192 69.5092 63.1376 69.0973 62.311 68.2764Z" fill="#CECFD0"/>
<path d="M16.0107 21.9788L11.7096 17.6722C10.0704 16.0302 10.0704 13.3599 11.7096 11.7179C13.36 10.0647 16.0303 10.0647 17.6779 11.7179L21.9817 16.0134C23.6237 17.6498 23.6237 20.3313 21.9817 21.9788C21.1524 22.7942 20.0764 23.2089 18.9976 23.2089C17.916 23.2089 16.8373 22.7942 16.0107 21.9788Z" fill="#CECFD0"/>
</g>
<defs>
<clipPath id="clip0">
<rect width="80" height="80" fill="white"/>
</clipPath>
</defs>
</svg>
