<svg width="291" height="50" viewBox="0 0 291 50" fill="none" xmlns="http://www.w3.org/2000/svg">
<path d="M272.509 1.10303H288.681V5.5149H277.655V40.7354C277.655 42.108 278.01 43.2599 278.72 44.1913C279.431 45.1228 280.436 45.5885 281.735 45.5885C283.033 45.5885 284.026 45.135 284.712 44.2282C285.398 43.3213 285.741 42.1571 285.741 40.7354V31.9855H290.887V40.4413C290.887 43.5295 290.066 45.8948 288.424 47.5369C286.782 49.1791 284.565 50.0002 281.771 50.0002C278.978 50.0002 276.736 49.1791 275.045 47.5369C273.354 45.8948 272.509 43.5295 272.509 40.4413V1.10303Z" fill="#373435"/>
<path d="M24.2588 1.10283V5.51471H14.7023V48.897H9.5565V5.51471H0V1.10283H24.2588ZM66.6753 48.897H61.5294V35.3677C54.8643 34.6324 51.5318 31.2499 51.5318 25.2206V1.10283H56.6776V25.2206C56.6776 29.1421 59.128 31.1029 64.0288 31.1029C68.9296 31.1029 71.38 29.1421 71.38 25.2206V1.10283H76.5258V25.2206C76.5258 31.2499 73.2423 34.6324 66.6753 35.3677V48.897ZM113.355 48.897H108.209V1.10283H119.31C123.132 1.10283 126.036 2.0097 128.021 3.82344C130.006 5.63717 130.998 8.16167 130.998 11.3971V23.897C130.998 27.1813 130.018 29.7181 128.058 31.5073C126.097 33.2965 123.181 34.1912 119.31 34.1912H113.355V48.897ZM125.852 23.897V11.3971C125.852 9.53424 125.289 8.08816 124.161 7.05883C123.034 6.02937 121.417 5.51471 119.31 5.51471H113.355V29.7793H119.31C123.671 29.7793 125.852 27.8186 125.852 23.897ZM181.06 39.7059V35.6617H186.206V39.7059C186.206 42.9901 185.201 45.5269 183.192 47.3161C181.182 49.1054 178.168 50 174.15 50C170.131 50 167.092 49.1054 165.034 47.3161C162.976 45.5269 161.947 42.9901 161.947 39.7059V10.2941C161.947 7.00974 162.951 4.47297 164.961 2.68378C166.97 0.894597 169.984 0 174.003 0C178.021 0 181.06 0.894597 183.118 2.68378C185.176 4.47297 186.206 7.00974 186.206 10.2941V26.4706H167.092V39.7059C167.092 43.6274 169.42 45.5883 174.076 45.5883C178.732 45.5883 181.06 43.6274 181.06 39.7059ZM167.092 10.2941V22.0588H181.06V10.2941C181.06 6.37248 178.732 4.41174 174.076 4.41174C169.42 4.41174 167.092 6.37248 167.092 10.2941Z" fill="#373435"/>
<path fill-rule="evenodd" clip-rule="evenodd" d="M205.909 1.25065L205.909 1.25052C207.311 -0.151864 209.606 -0.151595 211.008 1.25052L224.995 15.2411C226.397 16.6431 226.396 18.9391 224.995 20.3408L224.995 20.341C223.593 21.7427 221.299 21.7432 219.897 20.3408L205.909 6.3501C204.508 4.94785 204.507 2.6529 205.909 1.25065ZM253.596 1.25065L253.595 1.25052C252.193 -0.151864 249.899 -0.151864 248.497 1.25052L205.909 43.8483C204.507 45.2507 204.507 47.5455 205.909 48.9478L205.91 48.9479C207.312 50.3503 209.606 50.3503 211.008 48.9479L253.596 6.3501C254.997 4.94772 254.997 2.6529 253.596 1.25065ZM233.978 29.825L233.978 29.8249C235.376 28.4266 237.663 28.4267 239.062 29.8249L253.069 43.8356C254.467 45.234 254.467 47.5224 253.069 48.9208L253.069 48.9209C251.671 50.3191 249.383 50.3192 247.985 48.9209L233.978 34.9102C232.58 33.5117 232.58 31.2234 233.978 29.825Z" fill="#F60846"/>
</svg>
