<svg width="16610" height="4240" viewBox="0 0 16610 4240" fill="none" xmlns="http://www.w3.org/2000/svg">
<path d="M619.477 3847.17C563.194 3831 522.178 3811.17 496.43 3787.7C470.909 3764 458.148 3734.84 458.148 3700.2C458.148 3661.01 473.757 3628.65 504.975 3603.13C536.42 3577.38 577.208 3564.51 627.338 3564.51C661.518 3564.51 691.938 3571.12 718.598 3584.33C745.486 3597.55 766.221 3615.78 780.805 3639.02C795.616 3662.26 803.021 3687.67 803.021 3715.24H737.055C737.055 3685.16 727.484 3661.58 708.344 3644.49C689.203 3627.17 662.201 3618.51 627.338 3618.51C594.981 3618.51 569.688 3625.69 551.459 3640.04C533.458 3654.17 524.457 3673.88 524.457 3699.18C524.457 3719.46 533.002 3736.66 550.092 3750.79C567.41 3764.69 596.69 3777.45 637.934 3789.07C679.405 3800.69 711.762 3813.56 735.004 3827.69C758.474 3841.59 775.792 3857.88 786.957 3876.57C798.35 3895.25 804.047 3917.24 804.047 3942.54C804.047 3982.87 788.324 4015.22 756.879 4039.61C725.434 4063.76 683.393 4075.84 630.756 4075.84C596.576 4075.84 564.675 4069.34 535.053 4056.35C505.43 4043.14 482.53 4025.14 466.352 4002.35C450.401 3979.56 442.426 3953.7 442.426 3924.76H508.393C508.393 3954.84 519.444 3978.65 541.547 3996.2C563.878 4013.51 593.614 4022.17 630.756 4022.17C665.391 4022.17 691.938 4015.11 710.395 4000.98C728.852 3986.85 738.08 3967.6 738.08 3943.22C738.08 3918.84 729.535 3900.04 712.445 3886.82C695.355 3873.38 664.366 3860.16 619.477 3847.17ZM1413.81 3571.34V3909.72C1413.58 3956.66 1398.77 3995.06 1369.38 4024.91C1340.21 4054.76 1300.56 4071.51 1250.43 4075.15L1233 4075.84C1178.54 4075.84 1135.13 4061.14 1102.78 4031.74C1070.42 4002.35 1054.01 3961.9 1053.56 3910.41V3571.34H1118.5V3908.36C1118.5 3944.36 1128.41 3972.39 1148.24 3992.44C1168.06 4012.26 1196.32 4022.17 1233 4022.17C1270.14 4022.17 1298.51 4012.26 1318.11 3992.44C1337.93 3972.61 1347.85 3944.7 1347.85 3908.7V3571.34H1413.81ZM1959.66 3939.12H1751.17L1704.34 4069H1636.66L1826.7 3571.34H1884.12L2074.51 4069H2007.17L1959.66 3939.12ZM1770.99 3885.11H1940.18L1855.41 3652.35L1770.99 3885.11ZM2730.76 3874.18V4069H2665.13V3571.34H2848.68C2903.14 3571.34 2945.75 3585.24 2976.51 3613.04C3007.5 3640.84 3022.99 3677.64 3022.99 3723.44C3022.99 3771.75 3007.84 3809.01 2977.53 3835.21C2947.46 3861.19 2904.27 3874.18 2847.99 3874.18H2730.76ZM2730.76 3820.51H2848.68C2883.77 3820.51 2910.65 3812.31 2929.34 3795.9C2948.02 3779.27 2957.37 3755.34 2957.37 3724.13C2957.37 3694.5 2948.02 3670.81 2929.34 3653.03C2910.65 3635.26 2885.02 3626.03 2852.44 3625.35H2730.76V3820.51ZM3347.7 4015.34H3583.54V4069H3281.73V3571.34H3347.7V4015.34ZM4115.03 3939.12H3906.54L3859.71 4069H3792.04L3982.07 3571.34H4039.5L4229.88 4069H4162.54L4115.03 3939.12ZM3926.36 3885.11H4095.55L4010.79 3652.35L3926.36 3885.11ZM4771.28 3625.35H4611.32V4069H4546.04V3625.35H4386.42V3571.34H4771.28V3625.35ZM5267.57 3939.12H5059.08L5012.25 4069H4944.57L5134.61 3571.34H5192.04L5382.42 4069H5315.08L5267.57 3939.12ZM5078.9 3885.11H5248.09L5163.32 3652.35L5078.9 3885.11ZM5898.87 3849.22H5690.03V4069H5624.41V3571.34H5932.71V3625.35H5690.03V3795.56H5898.87V3849.22ZM6569.13 3836.24C6569.13 3885 6560.93 3927.61 6544.53 3964.07C6528.12 4000.3 6504.88 4027.98 6474.8 4047.12C6444.72 4066.27 6409.63 4075.84 6369.53 4075.84C6330.33 4075.84 6295.58 4066.27 6265.28 4047.12C6234.97 4027.76 6211.39 4000.3 6194.53 3964.75C6177.89 3928.98 6169.35 3887.62 6168.89 3840.68V3804.79C6168.89 3756.94 6177.21 3714.67 6193.84 3677.98C6210.48 3641.3 6233.95 3613.27 6264.25 3593.9C6294.79 3574.31 6329.65 3564.51 6368.84 3564.51C6408.72 3564.51 6443.81 3574.19 6474.12 3593.56C6504.65 3612.7 6528.12 3640.61 6544.53 3677.3C6560.93 3713.76 6569.13 3756.26 6569.13 3804.79V3836.24ZM6503.85 3804.11C6503.85 3745.09 6492 3699.86 6468.3 3668.41C6444.61 3636.74 6411.45 3620.9 6368.84 3620.9C6327.37 3620.9 6294.67 3636.74 6270.75 3668.41C6247.05 3699.86 6234.86 3743.61 6234.17 3799.66V3836.24C6234.17 3893.43 6246.14 3938.43 6270.06 3971.25C6294.22 4003.83 6327.37 4020.12 6369.53 4020.12C6411.91 4020.12 6444.72 4004.74 6467.96 3973.98C6491.21 3942.99 6503.17 3898.67 6503.85 3841.02V3804.11ZM7025.09 3867.68H6908.2V4069H6842.23V3571.34H7006.98C7063.03 3571.34 7106.1 3584.1 7136.18 3609.62C7166.48 3635.15 7181.63 3672.29 7181.63 3721.05C7181.63 3752.04 7173.2 3779.04 7156.34 3802.06C7139.71 3825.07 7116.47 3842.27 7086.62 3853.67L7203.51 4064.9V4069H7133.1L7025.09 3867.68ZM6908.2 3814.02H7009.03C7041.61 3814.02 7067.47 3805.59 7086.62 3788.73C7105.98 3771.86 7115.67 3749.31 7115.67 3721.05C7115.67 3690.29 7106.44 3666.71 7087.98 3650.3C7069.75 3633.89 7043.32 3625.58 7008.69 3625.35H6908.2V3814.02ZM7533.69 3571.34L7696.38 3977.4L7859.08 3571.34H7944.18V4069H7878.56V3875.2L7884.71 3666.02L7721.33 4069H7671.09L7508.05 3667.05L7514.54 3875.2V4069H7448.92V3571.34H7533.69ZM8516.01 3939.12H8307.51L8260.69 4069H8193.01L8383.05 3571.34H8440.47L8630.85 4069H8563.52L8516.01 3939.12ZM8327.34 3885.11H8496.53L8411.76 3652.35L8327.34 3885.11ZM9221.48 4069V3571.34H9361.96C9405.25 3571.34 9443.53 3580.91 9476.8 3600.05C9510.07 3619.2 9535.7 3646.43 9553.71 3681.74C9571.93 3717.06 9581.16 3757.62 9581.39 3803.42V3835.21C9581.39 3882.15 9572.28 3923.28 9554.05 3958.6C9536.05 3993.92 9510.18 4021.03 9476.46 4039.95C9442.96 4058.86 9403.88 4068.54 9359.22 4069H9221.48ZM9287.1 3625.35V4015.34H9356.15C9406.73 4015.34 9446.04 3999.62 9474.07 3968.17C9502.32 3936.72 9516.45 3891.95 9516.45 3833.84V3804.79C9516.45 3748.28 9503.12 3704.42 9476.46 3673.2C9450.03 3641.75 9412.43 3625.8 9363.67 3625.35H9287.1ZM10137.2 3838.97H9921.48V4015.34H10172V4069H9855.85V3571.34H10168.6V3625.35H9921.48V3785.31H10137.2V3838.97ZM11052.1 3939.12H10843.6L10796.8 4069H10729.1L10919.2 3571.34H10976.6L11167 4069H11099.7L11052.1 3939.12ZM10863.5 3885.11H11032.7L10947.9 3652.35L10863.5 3885.11ZM11708.4 3625.35H11548.4V4069H11483.1V3625.35H11323.5V3571.34H11708.4V3625.35ZM12204.7 3939.12H11996.2L11949.4 4069H11881.7L12071.7 3571.34H12129.1L12319.5 4069H12252.2L12204.7 3939.12ZM12016 3885.11H12185.2L12100.4 3652.35L12016 3885.11ZM13293 3836.24C13293 3885 13284.8 3927.61 13268.4 3964.07C13251.9 4000.3 13228.7 4027.98 13198.6 4047.12C13168.5 4066.27 13133.5 4075.84 13093.4 4075.84C13054.2 4075.84 13019.4 4066.27 12989.1 4047.12C12958.8 4027.76 12935.2 4000.3 12918.4 3964.75C12901.7 3928.98 12893.2 3887.62 12892.7 3840.68V3804.79C12892.7 3756.94 12901 3714.67 12917.7 3677.98C12934.3 3641.3 12957.8 3613.27 12988.1 3593.9C13018.6 3574.31 13053.5 3564.51 13092.7 3564.51C13132.5 3564.51 13167.6 3574.19 13197.9 3593.56C13228.5 3612.7 13251.9 3640.61 13268.4 3677.3C13284.8 3713.76 13293 3756.26 13293 3804.79V3836.24ZM13227.7 3804.11C13227.7 3745.09 13215.8 3699.86 13192.1 3668.41C13168.4 3636.74 13135.3 3620.9 13092.7 3620.9C13051.2 3620.9 13018.5 3636.74 12994.6 3668.41C12970.9 3699.86 12958.7 3743.61 12958 3799.66V3836.24C12958 3893.43 12970 3938.43 12993.9 3971.25C13018 4003.83 13051.2 4020.12 13093.4 4020.12C13135.7 4020.12 13168.5 4004.74 13191.8 3973.98C13215 3942.99 13227 3898.67 13227.7 3841.02V3804.11ZM13948.9 4069H13882.9L13632.4 3685.5V4069H13566.4V3571.34H13632.4L13883.6 3956.55V3571.34H13948.9V4069ZM14306.4 4015.34H14542.2V4069H14240.4V3571.34H14306.4V4015.34ZM14862.5 4069H14796.9V3571.34H14862.5V4069ZM15540.3 4069H15474.3L15223.8 3685.5V4069H15157.8V3571.34H15223.8L15475 3956.55V3571.34H15540.3V4069ZM16113.1 3838.97H15897.5V4015.34H16148V4069H15831.8V3571.34H16144.6V3625.35H15897.5V3785.31H16113.1V3838.97Z" fill="#373435"/>
<path d="M15560.6 62.9678H16484.1V314.821H15854.4V2325.47C15854.4 2403.83 15874.7 2469.58 15915.3 2522.76C15955.9 2575.93 16013.2 2602.52 16087.4 2602.52C16161.6 2602.52 16218.2 2576.64 16257.4 2524.85C16296.6 2473.09 16316.2 2406.62 16316.2 2325.47V1825.96H16610V2308.68C16610 2484.97 16563.1 2620.01 16469.4 2713.75C16375.6 2807.49 16249 2854.38 16089.5 2854.38C15930 2854.38 15802 2807.49 15705.4 2713.75C15608.9 2620.01 15560.6 2484.97 15560.6 2308.68V62.9678V62.9678Z" fill="#373435"/>
<path d="M1385.2 62.9601V314.813H839.522V2791.39H545.682V314.813H0V62.9601H1385.2V62.9601ZM3807.22 2791.39H3513.4V2019.05C3132.8 1977.07 2942.52 1783.98 2942.52 1439.78V62.9601H3236.34V1439.78C3236.34 1663.64 3376.27 1775.58 3656.1 1775.58C3935.95 1775.58 4075.86 1663.64 4075.86 1439.78V62.9601H4369.71V1439.78C4369.71 1783.98 4182.21 1977.07 3807.22 2019.05V2791.39V2791.39ZM6472.7 2791.39H6178.87V62.9601H6812.7C7030.98 62.9601 7196.78 114.729 7310.13 218.267C7423.46 321.806 7480.13 465.921 7480.13 650.629V1364.22C7480.13 1551.7 7424.16 1696.53 7312.22 1798.66C7200.28 1900.8 7033.77 1951.88 6812.7 1951.88H6472.7V2791.39V2791.39ZM7186.29 1364.22V650.629C7186.29 544.286 7154.11 461.734 7089.74 402.974C7025.38 344.2 6933.04 314.813 6812.7 314.813H6472.7V1700.02H6812.7C7061.76 1700.02 7186.29 1588.08 7186.29 1364.22V1364.22ZM10338.7 2266.7V2035.83H10632.5V2266.7C10632.5 2454.18 10575.2 2599.01 10460.4 2701.14C10345.7 2803.3 10173.6 2854.37 9944.11 2854.37C9714.64 2854.37 9541.15 2803.3 9423.61 2701.14C9306.08 2599.01 9247.32 2454.18 9247.32 2266.7V587.654C9247.32 400.169 9304.68 255.342 9419.41 153.213C9534.14 51.0708 9706.25 0 9935.72 0C10165.2 0 10338.7 51.0708 10456.2 153.213C10573.7 255.342 10632.5 400.169 10632.5 587.654V1511.14H9541.15V2266.7C9541.15 2490.56 9674.07 2602.51 9939.92 2602.51C10205.8 2602.51 10338.7 2490.56 10338.7 2266.7V2266.7ZM9541.15 587.654V1259.28H10338.7V587.654C10338.7 363.791 10205.8 251.853 9939.92 251.853C9674.07 251.853 9541.15 363.791 9541.15 587.654Z" fill="#373435"/>
<path fill-rule="evenodd" clip-rule="evenodd" d="M11757.6 71.3876C11837.6 -8.68129 11968.6 -8.65445 12048.7 71.3876L12847.4 870.064C12927.4 950.106 12927.4 1081.18 12847.4 1161.19L12847.4 1161.21C12767.4 1241.22 12636.3 1241.25 12556.3 1161.19L11757.6 362.505C11677.5 282.449 11677.5 151.443 11757.6 71.3876V71.3876ZM14480.5 71.3876H14480.5C14400.4 -8.68129 14269.4 -8.68129 14189.4 71.3876L11757.6 2503.18C11677.5 2583.23 11677.5 2714.24 11757.6 2794.29H11757.6C11837.6 2874.35 11968.6 2874.35 12048.7 2794.29L14480.5 362.505C14560.6 282.449 14560.6 151.443 14480.5 71.3876V71.3876ZM13360.3 1702.62H13360.3C13440.1 1622.79 13570.8 1622.79 13650.6 1702.62L14450.4 2502.45C14530.3 2582.28 14530.3 2712.92 14450.4 2792.75H14450.4C14370.6 2872.58 14240 2872.58 14160.1 2792.75L13360.3 1992.92C13280.5 1913.09 13280.5 1782.45 13360.3 1702.62Z" fill="#F60846"/>
</svg>
