<svg width="55" height="55" viewBox="0 0 55 55" fill="none" xmlns="http://www.w3.org/2000/svg">
<path d="M33.5656 35.7422H21.4353C20.521 35.7422 19.7773 36.4859 19.7773 37.4001V41.1206C19.7773 42.0349 20.521 42.7786 21.4353 42.7786H33.5657C34.48 42.7786 35.2238 42.035 35.2238 41.1206V37.4001C35.2236 36.486 34.4799 35.7422 33.5656 35.7422ZM33.0919 40.647H21.9089V37.874H33.0919V40.647Z" fill="#F60846"/>
<path d="M54.4603 26.5275L54.4774 26.5189L46.4847 10.7167C45.8385 9.43947 44.5484 8.64616 43.1174 8.64616H41.5984V7.17717C41.5984 6.5885 41.1212 6.11133 40.5325 6.11133H14.4676C13.8789 6.11133 13.4017 6.5885 13.4017 7.17717V8.64616H11.8827C10.4517 8.64616 9.16158 9.43947 8.51544 10.7167L0.522607 26.5189L0.539688 26.5275C0.197334 27.0914 0 27.7526 0 28.4591V45.1534C0 47.2118 1.67471 48.8864 3.73312 48.8864H51.267C53.3254 48.8864 55 47.2117 55 45.1534V28.4591C55 27.7526 54.8027 27.0914 54.4603 26.5275ZM41.5983 11.0147H43.1173C43.65 11.0147 44.1303 11.3102 44.371 11.7859L50.9163 24.7261H46.4657V20.7444C46.4657 20.1558 45.9885 19.6786 45.3998 19.6786H44.0812V13.9609C44.0812 13.3722 43.604 12.895 43.0154 12.895H41.5983V11.0147ZM44.3341 21.8102V24.726H38.7096C37.7445 24.726 36.8647 25.2946 36.4682 26.1743L34.9325 29.5806C34.9179 29.6128 34.8858 29.6336 34.8504 29.6336H20.1497C20.1143 29.6336 20.0822 29.6128 20.0676 29.5805L18.532 26.1744C18.1354 25.2946 17.2556 24.726 16.2905 24.726H10.666V21.8102H44.3341ZM15.5334 8.24301H39.4666V12.8949H15.5334V8.24301ZM41.9495 15.0266V19.6785H13.0505V15.0266H41.9495ZM10.629 11.7859C10.8696 11.3101 11.35 11.0147 11.8827 11.0147H13.4017V12.8949H11.9846C11.396 12.8949 10.9188 13.3721 10.9188 13.9608V19.6785H9.60019C9.01151 19.6785 8.53435 20.1557 8.53435 20.7443V24.726H4.08375L10.629 11.7859ZM51.267 46.5177H3.73312C2.98074 46.5177 2.36854 45.9055 2.36854 45.1534V28.4591C2.36854 27.7068 2.98063 27.0947 3.73312 27.0947H16.2905C16.3258 27.0947 16.3581 27.1155 16.3727 27.1479L17.9083 30.554C18.3049 31.4338 19.1846 32.0021 20.1497 32.0021H34.8503C35.8154 32.0021 36.6952 31.4337 37.0917 30.5541L38.6274 27.1479V27.1478C38.642 27.1155 38.6741 27.0947 38.7095 27.0947H51.2669C52.0193 27.0947 52.6312 27.7069 52.6312 28.4591V45.1534H52.6313C52.6315 45.9058 52.0194 46.5177 51.267 46.5177Z" fill="#F60846"/>
</svg>
