<svg width="55" height="55" viewBox="0 0 55 55" fill="none" xmlns="http://www.w3.org/2000/svg">
<path d="M42.7258 8.41951C43.4588 8.41951 44.0533 7.82515 44.0533 7.09199V2.90329C44.0533 1.30249 42.7517 0 41.1514 0H13.0671C12.7151 0 12.3775 0.139971 12.1284 0.388867L1.13105 11.3862C0.882158 11.6351 0.742188 11.9728 0.742188 12.3248V52.0966C0.742295 53.6975 2.04468 55 3.64559 55H41.1513C42.7516 55 44.0532 53.6975 44.0532 52.0967V31.8279C44.0533 31.0949 43.4589 30.5004 42.7258 30.5004C41.9927 30.5004 41.3983 31.0948 41.3983 31.8279V52.0967C41.3983 52.2336 41.2875 52.345 41.1515 52.345H3.64569C3.50884 52.345 3.39744 52.2336 3.39744 52.0967V13.6526H11.4928C13.0931 13.6526 14.3949 12.3506 14.3949 10.7504V2.65504H41.1514C41.2875 2.65504 41.3981 2.76644 41.3981 2.90329V7.09199C41.3981 7.82515 41.9926 8.41951 42.7258 8.41951ZM11.7398 10.7502C11.7398 10.8866 11.629 10.9974 11.4928 10.9974H5.27539L11.7398 4.53277V10.7502Z" fill="#F60846"/>
<path d="M52.9444 10.7854L51.3824 9.22363C49.6309 7.47222 46.7813 7.47244 45.0296 9.22363L32.6307 21.6226H11.1244C10.3912 21.6226 9.79688 22.217 9.79688 22.9501C9.79688 23.6833 10.3912 24.2776 11.1244 24.2776H29.9756L21.9857 32.2676H11.1244C10.3912 32.2676 9.79688 32.8619 9.79688 33.5951C9.79688 34.3282 10.3912 34.9226 11.1244 34.9226H19.3306L19.3092 34.944C19.1472 35.106 19.0301 35.3069 18.9688 35.5276L16.9183 42.9125H11.1244C10.3912 42.9125 9.79688 43.5069 9.79688 44.24C9.79688 44.9732 10.3912 45.5676 11.1244 45.5676H17.9276C17.9277 45.5676 18.2186 45.5347 18.2614 45.5235C18.2684 45.5217 26.64 43.1987 26.64 43.1987C26.8606 43.1375 27.0617 43.0202 27.2236 42.8583L52.9445 17.1377C54.6957 15.3865 54.6957 12.5368 52.9444 10.7854ZM19.8347 42.3328L20.9183 38.4306L23.737 41.2493L19.8347 42.3328ZM26.285 40.0424L22.1255 35.8829L43.3572 14.6512L47.5168 18.8107L26.285 40.0424ZM51.0669 15.2604L49.3942 16.9331L45.2346 12.7735L46.9073 11.1008C47.6237 10.3845 48.789 10.3846 49.5048 11.1008L51.0669 12.6628C51.783 13.379 51.783 14.5443 51.0669 15.2604Z" fill="#F60846"/>
</svg>
