<svg width="55" height="55" viewBox="0 0 55 55" fill="none" xmlns="http://www.w3.org/2000/svg">
<g clip-path="url(#clip0)">
<path d="M48.3093 25.7642C48.251 24.9548 47.5486 24.3472 46.738 24.4042C45.9284 24.4625 45.3196 25.166 45.3778 25.9755C45.414 26.4756 45.4321 26.9886 45.4321 27.5C45.4321 39.2155 35.901 48.7466 24.1856 48.7466C12.4702 48.7466 2.93906 39.2154 2.93906 27.5C2.93906 15.7845 12.4702 6.25341 24.1857 6.25341C28.8254 6.25341 33.2317 7.72165 36.9281 10.4993C37.577 10.9867 38.4981 10.856 38.9856 10.2073C39.4733 9.55846 39.3426 8.63721 38.6938 8.14973C34.484 4.98647 29.4672 3.31445 24.1856 3.31445C10.8497 3.31435 0 14.1641 0 27.5C0 40.8358 10.8497 51.6854 24.1857 51.6854C37.5217 51.6854 48.3712 40.8359 48.3712 27.5C48.3712 26.9184 48.3503 26.3344 48.3093 25.7642Z" fill="#F60846"/>
<path d="M53.3234 6.63533C51.0882 4.4002 47.4511 4.4002 45.2159 6.63533L24.0419 27.809L16.5359 20.3029C14.3007 18.0678 10.6636 18.0678 8.42838 20.3029C6.19314 22.5382 6.19314 26.1753 8.42838 28.4105L21.3556 41.3377C22.0963 42.0784 23.0691 42.4487 24.0419 42.4487C25.0149 42.4487 25.9877 42.0784 26.7283 41.3377L53.3234 14.7427C55.5584 12.5075 55.5584 8.87067 53.3234 6.63533ZM51.2452 12.6646L24.6501 39.2599C24.3149 39.595 23.7692 39.595 23.434 39.2599L10.5068 26.3325C9.41741 25.2432 9.41741 23.4708 10.5068 22.3814C11.0514 21.8366 11.7667 21.5644 12.4823 21.5644C13.1978 21.5644 13.9132 21.8367 14.4578 22.3814L22.1795 30.1031C22.677 30.6006 23.3386 30.8745 24.042 30.8745C24.7458 30.8745 25.4074 30.6005 25.9048 30.103L47.2942 8.71351C48.3832 7.62415 50.1559 7.62415 51.2452 8.71351C52.3345 9.80288 52.3345 11.5752 51.2452 12.6646Z" fill="#F60846"/>
</g>
<defs>
<clipPath id="clip0">
<rect width="55" height="55" fill="white"/>
</clipPath>
</defs>
</svg>
