<svg width="49" height="55" viewBox="0 0 49 55" fill="none" xmlns="http://www.w3.org/2000/svg">
<path d="M46.7569 9.94073L24.7783 0.18446C24.2219 -0.0625028 23.5867 -0.061536 23.0313 0.187683L1.26715 9.94395C0.496182 10.2896 0 11.0557 0 11.9005V28.8401C0 35.242 2.52989 41.7863 6.94106 46.7948C9.15986 49.314 11.7177 51.3075 14.5437 52.7199C17.5707 54.2329 20.7575 55 24.0156 55C28.5777 55 33.0178 53.5235 36.8563 50.7298C37.8139 50.0329 38.0252 48.6919 37.3282 47.7343C36.6314 46.7768 35.2902 46.5657 34.3328 47.2624C31.2324 49.5189 27.6648 50.7115 24.0157 50.7115C13.6912 50.7115 4.2886 40.2869 4.2886 28.8402V13.2893L23.9128 4.49229L43.7427 13.2949V28.8402C43.7427 32.7887 42.6085 36.7847 40.4624 40.396C39.8574 41.414 40.1922 42.7298 41.2103 43.3348C42.2285 43.9396 43.5441 43.6048 44.1491 42.5868C46.6889 38.313 48.0312 33.5596 48.0312 28.8403V11.9006C48.0311 11.0529 47.5317 10.2847 46.7569 9.94073Z" fill="#0AAD74"/>
</svg>
