<svg width="90" height="90" viewBox="0 0 90 90" fill="none" xmlns="http://www.w3.org/2000/svg">
<path d="M89.7718 77.1191C89.3761 75.2184 87.5147 73.9983 85.6133 74.394C83.7124 74.7896 82.4923 76.6515 82.8882 78.5522C83.1161 79.6472 82.8446 80.7694 82.1436 81.6318C81.7375 82.1312 80.8321 82.9688 79.3312 82.9688H10.6686C9.1678 82.9688 8.26235 82.131 7.8563 81.6318C7.15511 80.7696 6.8837 79.6472 7.11169 78.5522C10.7602 61.0277 26.2175 48.2263 44.0679 47.7946C44.3771 47.8065 44.6877 47.8125 44.9999 47.8125C45.3132 47.8125 45.625 47.8063 45.9354 47.7944C58.5094 48.096 70.1314 54.4648 77.1695 64.9612C78.2507 66.574 80.4344 67.0046 82.0474 65.9234C83.66 64.8422 84.0909 62.6583 83.0095 61.0457C77.2408 52.4422 68.8643 46.1862 59.3134 43.0427C65.1336 38.6782 68.9062 31.7245 68.9062 23.9062C68.9062 10.7244 58.1819 0 44.9999 0C31.8179 0 21.0937 10.7244 21.0937 23.9062C21.0937 31.7292 24.8709 38.6866 30.6971 43.0508C25.359 44.8082 20.3501 47.5429 15.9661 51.1488C7.92732 57.7612 2.338 66.9843 0.228096 77.1191C-0.433193 80.2949 0.359053 83.5567 2.40128 86.068C4.43349 88.5669 7.4469 90 10.6686 90H79.3311C82.5529 90 85.5664 88.5669 87.5984 86.068C89.641 83.5567 90.433 80.2949 89.7718 77.1191ZM28.1249 23.9062C28.1249 14.6013 35.695 7.03125 44.9999 7.03125C54.3049 7.03125 61.8749 14.6013 61.8749 23.9062C61.8749 32.9247 54.7637 40.3135 45.854 40.7598C45.5698 40.7545 45.285 40.7519 44.9999 40.7519C44.7162 40.7519 44.4325 40.7547 44.1491 40.76C35.2379 40.3154 28.1249 32.9259 28.1249 23.9062Z" fill="#373435"/>
</svg>
