<svg width="35" height="35" viewBox="0 0 35 35" fill="none" xmlns="http://www.w3.org/2000/svg">
<path d="M34.9113 29.9908C34.7574 29.2516 34.0336 28.7771 33.2941 28.931C32.5549 29.0849 32.0804 29.809 32.2343 30.5481C32.323 30.9739 32.2174 31.4104 31.9448 31.7457C31.7869 31.9399 31.4347 32.2657 30.8511 32.2657H4.14891C3.56526 32.2657 3.21314 31.9399 3.05523 31.7457C2.78255 31.4104 2.677 30.9739 2.76566 30.5481C4.18453 23.733 10.1957 18.7547 17.1376 18.5868C17.2578 18.5914 17.3786 18.5938 17.5 18.5938C17.6218 18.5938 17.7431 18.5914 17.8638 18.5867C22.7537 18.704 27.2733 21.1808 30.0104 25.2627C30.4309 25.8899 31.2801 26.0574 31.9074 25.6369C32.5345 25.2164 32.702 24.3671 32.2815 23.74C30.0381 20.3942 26.7806 17.9613 23.0664 16.7388C25.3298 15.0415 26.7969 12.3373 26.7969 9.29689C26.7969 4.17061 22.6263 0 17.5 0C12.3737 0 8.20311 4.17061 8.20311 9.29689C8.20311 12.3392 9.67202 15.0448 11.9378 16.742C9.86185 17.4254 7.91395 18.4889 6.20906 19.8912C3.08285 22.4627 0.909223 26.0495 0.0887043 29.9908C-0.168464 31.2258 0.139632 32.4943 0.933832 33.4709C1.72414 34.4427 2.89602 35 4.14891 35H30.851C32.104 35 33.2759 34.4427 34.0661 33.4709C34.8604 32.4943 35.1685 31.2258 34.9113 29.9908ZM10.9375 9.29689C10.9375 5.67828 13.8814 2.73438 17.5 2.73438C21.1186 2.73438 24.0625 5.67828 24.0625 9.29689C24.0625 12.8041 21.297 15.6775 17.8322 15.8511C17.7216 15.849 17.6109 15.848 17.5 15.848C17.3897 15.848 17.2793 15.8491 17.1691 15.8511C13.7037 15.6782 10.9375 12.8045 10.9375 9.29689Z" fill="#CECFD0"/>
</svg>
