<svg width="55" height="55" viewBox="0 0 55 55" fill="none" xmlns="http://www.w3.org/2000/svg">
<path d="M29.541 40.8203C29.541 42.007 28.5793 42.9688 27.3926 42.9688C26.2059 42.9688 25.2441 42.007 25.2441 40.8203C25.2441 39.6336 26.2059 38.6719 27.3926 38.6719C28.5793 38.6719 29.541 39.6336 29.541 40.8203ZM29.541 14.9316C29.541 13.745 28.5793 12.7832 27.3926 12.7832C26.2059 12.7832 25.2441 13.745 25.2441 14.9316V33.3008C25.2441 34.4875 26.2059 35.4492 27.3926 35.4492C28.5793 35.4492 29.541 34.4875 29.541 33.3008V14.9316ZM46.9455 8.05454C41.7514 2.86053 34.8454 0 27.5 0C20.1546 0 13.2486 2.86053 8.05454 8.05454C2.86053 13.2486 0 20.1546 0 27.5C0 34.8454 2.86053 41.7514 8.05454 46.9455C13.2486 52.1395 20.1546 55 27.5 55C32.5287 55 37.4491 53.6295 41.7292 51.0367C42.7443 50.422 43.0686 49.101 42.4539 48.0864C41.8387 47.0713 40.5178 46.747 39.5031 47.3617C35.8944 49.5475 31.7436 50.7031 27.5 50.7031C14.7059 50.7031 4.29688 40.2941 4.29688 27.5C4.29688 14.7059 14.7059 4.29688 27.5 4.29688C40.2941 4.29688 50.7031 14.7059 50.7031 27.5C50.7031 32.0751 49.3427 36.5281 46.7688 40.3785C46.1092 41.3646 46.3744 42.6989 47.3605 43.3586C48.347 44.0182 49.6814 43.753 50.3406 42.7665C53.3891 38.2074 55 32.9282 55 27.5C55 20.1546 52.1395 13.2486 46.9455 8.05454Z" fill="#F60846"/>
</svg>
